G75*
%MOIN*%
%OFA0B0*%
%FSLAX24Y24*%
%IPPOS*%
%LPD*%
%AMOC8*
5,1,8,0,0,1.08239X$1,22.5*
%
%ADD10C,0.0000*%
D10*
X001524Y001749D02*
X001526Y001791D01*
X001532Y001832D01*
X001542Y001873D01*
X001556Y001913D01*
X001573Y001951D01*
X001594Y001987D01*
X001618Y002021D01*
X001646Y002053D01*
X001676Y002082D01*
X001709Y002107D01*
X001744Y002130D01*
X001781Y002149D01*
X001820Y002165D01*
X001860Y002177D01*
X001901Y002185D01*
X001943Y002189D01*
X001985Y002189D01*
X002027Y002185D01*
X002068Y002177D01*
X002108Y002165D01*
X002147Y002149D01*
X002184Y002130D01*
X002219Y002107D01*
X002252Y002082D01*
X002282Y002053D01*
X002310Y002021D01*
X002334Y001987D01*
X002355Y001951D01*
X002372Y001913D01*
X002386Y001873D01*
X002396Y001832D01*
X002402Y001791D01*
X002404Y001749D01*
X002402Y001707D01*
X002396Y001666D01*
X002386Y001625D01*
X002372Y001585D01*
X002355Y001547D01*
X002334Y001511D01*
X002310Y001477D01*
X002282Y001445D01*
X002252Y001416D01*
X002219Y001391D01*
X002184Y001368D01*
X002147Y001349D01*
X002108Y001333D01*
X002068Y001321D01*
X002027Y001313D01*
X001985Y001309D01*
X001943Y001309D01*
X001901Y001313D01*
X001860Y001321D01*
X001820Y001333D01*
X001781Y001349D01*
X001744Y001368D01*
X001709Y001391D01*
X001676Y001416D01*
X001646Y001445D01*
X001618Y001477D01*
X001594Y001511D01*
X001573Y001547D01*
X001556Y001585D01*
X001542Y001625D01*
X001532Y001666D01*
X001526Y001707D01*
X001524Y001749D01*
X000145Y003130D02*
X000145Y012626D01*
X001524Y013911D02*
X001526Y013953D01*
X001532Y013994D01*
X001542Y014035D01*
X001556Y014075D01*
X001573Y014113D01*
X001594Y014149D01*
X001618Y014183D01*
X001646Y014215D01*
X001676Y014244D01*
X001709Y014269D01*
X001744Y014292D01*
X001781Y014311D01*
X001820Y014327D01*
X001860Y014339D01*
X001901Y014347D01*
X001943Y014351D01*
X001985Y014351D01*
X002027Y014347D01*
X002068Y014339D01*
X002108Y014327D01*
X002147Y014311D01*
X002184Y014292D01*
X002219Y014269D01*
X002252Y014244D01*
X002282Y014215D01*
X002310Y014183D01*
X002334Y014149D01*
X002355Y014113D01*
X002372Y014075D01*
X002386Y014035D01*
X002396Y013994D01*
X002402Y013953D01*
X002404Y013911D01*
X002402Y013869D01*
X002396Y013828D01*
X002386Y013787D01*
X002372Y013747D01*
X002355Y013709D01*
X002334Y013673D01*
X002310Y013639D01*
X002282Y013607D01*
X002252Y013578D01*
X002219Y013553D01*
X002184Y013530D01*
X002147Y013511D01*
X002108Y013495D01*
X002068Y013483D01*
X002027Y013475D01*
X001985Y013471D01*
X001943Y013471D01*
X001901Y013475D01*
X001860Y013483D01*
X001820Y013495D01*
X001781Y013511D01*
X001744Y013530D01*
X001709Y013553D01*
X001676Y013578D01*
X001646Y013607D01*
X001618Y013639D01*
X001594Y013673D01*
X001573Y013709D01*
X001556Y013747D01*
X001542Y013787D01*
X001532Y013828D01*
X001526Y013869D01*
X001524Y013911D01*
X000144Y012626D02*
X000145Y012732D01*
X000150Y012838D01*
X000159Y012944D01*
X000172Y013050D01*
X000188Y013154D01*
X000208Y013259D01*
X000232Y013362D01*
X000259Y013465D01*
X000290Y013566D01*
X000325Y013666D01*
X000363Y013766D01*
X000405Y013863D01*
X000450Y013959D01*
X000498Y014053D01*
X000550Y014146D01*
X000605Y014237D01*
X000664Y014325D01*
X000725Y014412D01*
X000790Y014496D01*
X000857Y014578D01*
X000928Y014657D01*
X001001Y014734D01*
X001077Y014808D01*
X001155Y014880D01*
X001236Y014948D01*
X001320Y015014D01*
X001405Y015077D01*
X001493Y015136D01*
X001583Y015193D01*
X001675Y015246D01*
X001769Y015296D01*
X001864Y015342D01*
X001961Y015385D01*
X002060Y015425D01*
X002159Y015461D01*
X002261Y015493D01*
X002363Y015522D01*
X002466Y015547D01*
X002570Y015568D01*
X002674Y015586D01*
X002780Y015600D01*
X002885Y015610D01*
X002991Y015616D01*
X003097Y015619D01*
X003003Y015618D02*
X016877Y015618D01*
X017686Y013911D02*
X017688Y013953D01*
X017694Y013994D01*
X017704Y014035D01*
X017718Y014075D01*
X017735Y014113D01*
X017756Y014149D01*
X017780Y014183D01*
X017808Y014215D01*
X017838Y014244D01*
X017871Y014269D01*
X017906Y014292D01*
X017943Y014311D01*
X017982Y014327D01*
X018022Y014339D01*
X018063Y014347D01*
X018105Y014351D01*
X018147Y014351D01*
X018189Y014347D01*
X018230Y014339D01*
X018270Y014327D01*
X018309Y014311D01*
X018346Y014292D01*
X018381Y014269D01*
X018414Y014244D01*
X018444Y014215D01*
X018472Y014183D01*
X018496Y014149D01*
X018517Y014113D01*
X018534Y014075D01*
X018548Y014035D01*
X018558Y013994D01*
X018564Y013953D01*
X018566Y013911D01*
X018564Y013869D01*
X018558Y013828D01*
X018548Y013787D01*
X018534Y013747D01*
X018517Y013709D01*
X018496Y013673D01*
X018472Y013639D01*
X018444Y013607D01*
X018414Y013578D01*
X018381Y013553D01*
X018346Y013530D01*
X018309Y013511D01*
X018270Y013495D01*
X018230Y013483D01*
X018189Y013475D01*
X018147Y013471D01*
X018105Y013471D01*
X018063Y013475D01*
X018022Y013483D01*
X017982Y013495D01*
X017943Y013511D01*
X017906Y013530D01*
X017871Y013553D01*
X017838Y013578D01*
X017808Y013607D01*
X017780Y013639D01*
X017756Y013673D01*
X017735Y013709D01*
X017718Y013747D01*
X017704Y013787D01*
X017694Y013828D01*
X017688Y013869D01*
X017686Y013911D01*
X016877Y015618D02*
X016985Y015617D01*
X017092Y015612D01*
X017200Y015603D01*
X017306Y015590D01*
X017413Y015574D01*
X017519Y015554D01*
X017623Y015530D01*
X017727Y015502D01*
X017830Y015471D01*
X017932Y015436D01*
X018033Y015397D01*
X018132Y015355D01*
X018229Y015309D01*
X018325Y015260D01*
X018419Y015208D01*
X018511Y015152D01*
X018601Y015093D01*
X018688Y015030D01*
X018774Y014965D01*
X018857Y014896D01*
X018938Y014825D01*
X019016Y014751D01*
X019091Y014674D01*
X019164Y014595D01*
X019233Y014513D01*
X019300Y014428D01*
X019363Y014341D01*
X019424Y014252D01*
X019481Y014161D01*
X019535Y014068D01*
X019586Y013973D01*
X019633Y013876D01*
X019677Y013778D01*
X019717Y013678D01*
X019753Y013577D01*
X019786Y013474D01*
X019816Y013371D01*
X019841Y013266D01*
X019863Y013161D01*
X019881Y013055D01*
X019895Y012948D01*
X019906Y012841D01*
X019912Y012733D01*
X019915Y012626D01*
X019915Y002880D01*
X017686Y001749D02*
X017688Y001791D01*
X017694Y001832D01*
X017704Y001873D01*
X017718Y001913D01*
X017735Y001951D01*
X017756Y001987D01*
X017780Y002021D01*
X017808Y002053D01*
X017838Y002082D01*
X017871Y002107D01*
X017906Y002130D01*
X017943Y002149D01*
X017982Y002165D01*
X018022Y002177D01*
X018063Y002185D01*
X018105Y002189D01*
X018147Y002189D01*
X018189Y002185D01*
X018230Y002177D01*
X018270Y002165D01*
X018309Y002149D01*
X018346Y002130D01*
X018381Y002107D01*
X018414Y002082D01*
X018444Y002053D01*
X018472Y002021D01*
X018496Y001987D01*
X018517Y001951D01*
X018534Y001913D01*
X018548Y001873D01*
X018558Y001832D01*
X018564Y001791D01*
X018566Y001749D01*
X018564Y001707D01*
X018558Y001666D01*
X018548Y001625D01*
X018534Y001585D01*
X018517Y001547D01*
X018496Y001511D01*
X018472Y001477D01*
X018444Y001445D01*
X018414Y001416D01*
X018381Y001391D01*
X018346Y001368D01*
X018309Y001349D01*
X018270Y001333D01*
X018230Y001321D01*
X018189Y001313D01*
X018147Y001309D01*
X018105Y001309D01*
X018063Y001313D01*
X018022Y001321D01*
X017982Y001333D01*
X017943Y001349D01*
X017906Y001368D01*
X017871Y001391D01*
X017838Y001416D01*
X017808Y001445D01*
X017780Y001477D01*
X017756Y001511D01*
X017735Y001547D01*
X017718Y001585D01*
X017704Y001625D01*
X017694Y001666D01*
X017688Y001707D01*
X017686Y001749D01*
X017145Y000130D02*
X017248Y000132D01*
X017351Y000137D01*
X017454Y000146D01*
X017556Y000159D01*
X017658Y000176D01*
X017759Y000197D01*
X017860Y000221D01*
X017959Y000250D01*
X018057Y000282D01*
X018154Y000317D01*
X018249Y000356D01*
X018343Y000399D01*
X018436Y000445D01*
X018526Y000495D01*
X018615Y000548D01*
X018701Y000604D01*
X018786Y000663D01*
X018868Y000726D01*
X018948Y000791D01*
X019025Y000860D01*
X019100Y000931D01*
X019171Y001005D01*
X019240Y001082D01*
X019307Y001161D01*
X019370Y001243D01*
X019430Y001327D01*
X019487Y001413D01*
X019540Y001501D01*
X019590Y001591D01*
X019637Y001683D01*
X019681Y001777D01*
X019721Y001872D01*
X019757Y001969D01*
X019789Y002067D01*
X019818Y002166D01*
X019844Y002266D01*
X019865Y002367D01*
X019883Y002469D01*
X019897Y002571D01*
X019907Y002674D01*
X019913Y002777D01*
X019915Y002880D01*
X017145Y000130D02*
X003145Y000130D01*
X003038Y000132D01*
X002931Y000138D01*
X002824Y000147D01*
X002718Y000161D01*
X002612Y000178D01*
X002507Y000199D01*
X002403Y000223D01*
X002300Y000252D01*
X002198Y000284D01*
X002097Y000319D01*
X001997Y000358D01*
X001899Y000401D01*
X001802Y000447D01*
X001707Y000497D01*
X001614Y000550D01*
X001523Y000606D01*
X001434Y000666D01*
X001347Y000728D01*
X001263Y000794D01*
X001180Y000863D01*
X001101Y000934D01*
X001024Y001009D01*
X000949Y001086D01*
X000878Y001165D01*
X000809Y001248D01*
X000743Y001332D01*
X000681Y001419D01*
X000621Y001508D01*
X000565Y001599D01*
X000512Y001692D01*
X000462Y001787D01*
X000416Y001884D01*
X000373Y001982D01*
X000334Y002082D01*
X000299Y002183D01*
X000267Y002285D01*
X000238Y002388D01*
X000214Y002492D01*
X000193Y002597D01*
X000176Y002703D01*
X000162Y002809D01*
X000153Y002916D01*
X000147Y003023D01*
X000145Y003130D01*
M02*
