G75*
%MOIN*%
%OFA0B0*%
%FSLAX24Y24*%
%IPPOS*%
%LPD*%
%AMOC8*
5,1,8,0,0,1.08239X$1,22.5*
%
%ADD10R,0.0236X0.0079*%
%ADD11R,0.0079X0.0236*%
%ADD12R,0.1772X0.1772*%
%ADD13R,0.0236X0.0118*%
%ADD14R,0.0157X0.0709*%
%ADD15R,0.0472X0.0551*%
%ADD16R,0.0276X0.0394*%
%ADD17R,0.1791X0.0394*%
%ADD18R,0.0394X0.1791*%
%ADD19R,0.1496X0.0394*%
%ADD20R,0.0394X0.1496*%
%ADD21R,0.1398X0.0394*%
%ADD22R,0.0394X0.1398*%
%ADD23R,0.0394X0.0276*%
%ADD24R,0.0394X0.0236*%
%ADD25C,0.0130*%
%ADD26R,0.0118X0.0236*%
%ADD27R,0.0984X0.0984*%
%ADD28R,0.0118X0.0197*%
%ADD29R,0.0709X0.0748*%
%ADD30R,0.0551X0.0472*%
%ADD31R,0.0748X0.0394*%
%ADD32R,0.0472X0.0315*%
%ADD33R,0.0197X0.0118*%
%ADD34R,0.0354X0.0709*%
%ADD35R,0.0394X0.0591*%
%ADD36R,0.0315X0.0472*%
%ADD37R,0.0591X0.0394*%
%ADD38R,0.0709X0.0354*%
%ADD39R,0.0157X0.0630*%
%ADD40R,0.0827X0.0630*%
%ADD41R,0.0748X0.0748*%
%ADD42R,0.0394X0.0748*%
%ADD43R,0.1063X0.1063*%
%ADD44R,0.0551X0.0374*%
%ADD45R,0.0295X0.0453*%
%ADD46R,0.0248X0.0327*%
%ADD47R,0.0472X0.0472*%
D10*
X014623Y005264D03*
X014623Y005421D03*
X014623Y005579D03*
X014623Y005736D03*
X014623Y005894D03*
X014623Y006051D03*
X014623Y006209D03*
X014623Y006366D03*
X014623Y006524D03*
X014623Y006681D03*
X014623Y006839D03*
X014623Y006996D03*
X016867Y006996D03*
X016867Y006839D03*
X016867Y006681D03*
X016867Y006524D03*
X016867Y006366D03*
X016867Y006209D03*
X016867Y006051D03*
X016867Y005894D03*
X016867Y005736D03*
X016867Y005579D03*
X016867Y005421D03*
X016867Y005264D03*
D11*
X016611Y005008D03*
X016454Y005008D03*
X016296Y005008D03*
X016139Y005008D03*
X015981Y005008D03*
X015824Y005008D03*
X015666Y005008D03*
X015509Y005008D03*
X015351Y005008D03*
X015194Y005008D03*
X015036Y005008D03*
X014879Y005008D03*
X014879Y007252D03*
X015036Y007252D03*
X015194Y007252D03*
X015351Y007252D03*
X015509Y007252D03*
X015666Y007252D03*
X015824Y007252D03*
X015981Y007252D03*
X016139Y007252D03*
X016296Y007252D03*
X016454Y007252D03*
X016611Y007252D03*
D12*
X015745Y006130D03*
D13*
X011623Y004374D03*
X011623Y004177D03*
X011623Y003980D03*
X011623Y003783D03*
X011623Y003586D03*
X010167Y003586D03*
X010167Y003783D03*
X010167Y003980D03*
X010167Y004177D03*
X010167Y004374D03*
X008873Y004374D03*
X008873Y004177D03*
X008873Y003980D03*
X008873Y003783D03*
X008873Y003586D03*
X007417Y003586D03*
X007417Y003783D03*
X007417Y003980D03*
X007417Y004177D03*
X007417Y004374D03*
X006123Y004374D03*
X006123Y004177D03*
X006123Y003980D03*
X006123Y003783D03*
X006123Y003586D03*
X004667Y003586D03*
X004667Y003783D03*
X004667Y003980D03*
X004667Y004177D03*
X004667Y004374D03*
X002933Y004888D03*
X002933Y005085D03*
X002933Y005282D03*
X002933Y005478D03*
X002933Y005675D03*
X002933Y005872D03*
X001457Y005872D03*
X001457Y005675D03*
X001457Y005478D03*
X001457Y005282D03*
X001457Y005085D03*
X001457Y004888D03*
X013644Y002350D03*
X013644Y002153D03*
X013644Y001957D03*
X013644Y001760D03*
X014746Y001760D03*
X014746Y001957D03*
X014746Y002153D03*
X014746Y002350D03*
D14*
X014195Y002055D03*
D15*
X017980Y005247D03*
X018610Y005247D03*
X018610Y006113D03*
X017980Y006113D03*
D16*
X018090Y006830D03*
X017500Y006830D03*
X017500Y007455D03*
X018090Y007455D03*
X016990Y008580D03*
X016400Y008580D03*
X015740Y008680D03*
X015150Y008680D03*
X015150Y008080D03*
X015740Y008080D03*
X016400Y009180D03*
X016990Y009180D03*
X018150Y009180D03*
X018740Y009180D03*
X013990Y008530D03*
X013400Y008530D03*
X013190Y010730D03*
X012600Y010730D03*
X010615Y007280D03*
X010025Y007280D03*
X008965Y007280D03*
X008375Y007280D03*
X007315Y007280D03*
X006725Y007280D03*
X013400Y005855D03*
X013990Y005855D03*
X017950Y004580D03*
X018540Y004580D03*
X015890Y002505D03*
X015300Y002505D03*
X009940Y000980D03*
X009350Y000980D03*
X003840Y013280D03*
X003250Y013280D03*
X003250Y014130D03*
X003840Y014130D03*
X003840Y015030D03*
X003250Y015030D03*
D17*
X013535Y009789D03*
X018555Y003371D03*
D18*
X012836Y004070D03*
X019254Y009090D03*
D19*
X016045Y009789D03*
X016045Y003371D03*
D20*
X012836Y006580D03*
X019254Y006580D03*
D21*
X018358Y009789D03*
X013732Y003371D03*
D22*
X019254Y004267D03*
X012836Y008893D03*
D23*
X003645Y001935D03*
X003645Y002525D03*
X002245Y003435D03*
X001645Y003235D03*
X001645Y003825D03*
X001045Y003825D03*
X001045Y003235D03*
X002245Y004025D03*
X003595Y004835D03*
X003595Y005425D03*
X005520Y005335D03*
X006120Y005335D03*
X006120Y005925D03*
X005520Y005925D03*
X003345Y007835D03*
X003345Y008425D03*
X007045Y009635D03*
X007045Y010225D03*
X008695Y010225D03*
X008695Y009635D03*
X010345Y009635D03*
X010345Y010225D03*
X014545Y009025D03*
X014545Y008435D03*
X011620Y005925D03*
X011020Y005925D03*
X011020Y005335D03*
X011620Y005335D03*
X008870Y005335D03*
X008270Y005335D03*
X008270Y005925D03*
X008870Y005925D03*
X008345Y002625D03*
X008345Y002035D03*
X006445Y001935D03*
X005845Y001935D03*
X005845Y002525D03*
X006445Y002525D03*
X011095Y002625D03*
X011095Y002035D03*
X014895Y003885D03*
X014895Y004475D03*
X016995Y004475D03*
X016995Y003885D03*
X018595Y006685D03*
X018595Y007275D03*
X018695Y008085D03*
X018045Y008085D03*
X018045Y008675D03*
X018695Y008675D03*
X000795Y005025D03*
X000795Y004435D03*
D24*
X016929Y010524D03*
X016929Y011036D03*
X018111Y011036D03*
X018111Y010524D03*
D25*
X016965Y008033D02*
X016859Y008033D01*
X016965Y008033D02*
X016965Y007927D01*
X016859Y007927D01*
X016859Y008033D01*
X016531Y008033D02*
X016425Y008033D01*
X016531Y008033D02*
X016531Y007927D01*
X016425Y007927D01*
X016425Y008033D01*
D26*
X011289Y004708D03*
X011092Y004708D03*
X010895Y004708D03*
X010698Y004708D03*
X010501Y004708D03*
X010501Y003252D03*
X010698Y003252D03*
X010895Y003252D03*
X011092Y003252D03*
X011289Y003252D03*
X008539Y003252D03*
X008342Y003252D03*
X008145Y003252D03*
X007948Y003252D03*
X007751Y003252D03*
X007751Y004708D03*
X007948Y004708D03*
X008145Y004708D03*
X008342Y004708D03*
X008539Y004708D03*
X005789Y004708D03*
X005592Y004708D03*
X005395Y004708D03*
X005198Y004708D03*
X005001Y004708D03*
X005001Y003252D03*
X005198Y003252D03*
X005395Y003252D03*
X005592Y003252D03*
X005789Y003252D03*
X002687Y004642D03*
X002490Y004642D03*
X002293Y004642D03*
X002097Y004642D03*
X001900Y004642D03*
X001703Y004642D03*
X001703Y006118D03*
X001900Y006118D03*
X002097Y006118D03*
X002293Y006118D03*
X002490Y006118D03*
X002687Y006118D03*
D27*
X005395Y003980D03*
X008145Y003980D03*
X010895Y003980D03*
D28*
X010140Y007929D03*
X009943Y007929D03*
X009747Y007929D03*
X009550Y007929D03*
X008490Y007929D03*
X008293Y007929D03*
X008097Y007929D03*
X007900Y007929D03*
X006840Y007929D03*
X006643Y007929D03*
X006447Y007929D03*
X006250Y007929D03*
X006250Y009031D03*
X006447Y009031D03*
X006643Y009031D03*
X006840Y009031D03*
X007900Y009031D03*
X008097Y009031D03*
X008293Y009031D03*
X008490Y009031D03*
X009550Y009031D03*
X009747Y009031D03*
X009943Y009031D03*
X010140Y009031D03*
X012900Y011376D03*
X013097Y011376D03*
X013293Y011376D03*
X013490Y011376D03*
X013490Y012084D03*
X013293Y012084D03*
X013097Y012084D03*
X012900Y012084D03*
D29*
X012699Y015022D03*
X015691Y015022D03*
X009845Y008480D03*
X008195Y008480D03*
X006545Y008480D03*
D30*
X005178Y002545D03*
X005178Y001915D03*
X004312Y001915D03*
X004312Y002545D03*
D31*
X003395Y010689D03*
X003395Y011871D03*
D32*
X001295Y008234D03*
X001295Y007526D03*
D33*
X001991Y008135D03*
X001991Y008332D03*
X001991Y008528D03*
X001991Y008725D03*
X002699Y008725D03*
X002699Y008528D03*
X002699Y008332D03*
X002699Y008135D03*
D34*
X002345Y008430D03*
D35*
X002021Y007380D03*
X002769Y007380D03*
D36*
X012291Y012780D03*
X012999Y012780D03*
D37*
X012145Y012054D03*
X012145Y011306D03*
D38*
X013195Y011730D03*
D39*
X013683Y013919D03*
X013939Y013919D03*
X014195Y013919D03*
X014451Y013919D03*
X014707Y013919D03*
D40*
X015415Y014018D03*
X012975Y014018D03*
D41*
X013683Y015022D03*
X014707Y015022D03*
D42*
X014454Y011180D03*
X015636Y011180D03*
D43*
X002195Y005380D03*
D44*
X001495Y010013D03*
X001495Y011647D03*
D45*
X000895Y011450D03*
X002095Y011450D03*
X002095Y010210D03*
X000895Y010210D03*
D46*
X014706Y012680D03*
X015584Y012680D03*
D47*
X008758Y000980D03*
X007932Y000980D03*
M02*
