G75*
%MOIN*%
%OFA0B0*%
%FSLAX24Y24*%
%IPPOS*%
%LPD*%
%AMOC8*
5,1,8,0,0,1.08239X$1,22.5*
%
%ADD10C,0.0591*%
%ADD11C,0.0180*%
%ADD12C,0.0060*%
D10*
X005245Y010893D03*
X006245Y010893D03*
X007245Y010893D03*
X008245Y010893D03*
X009245Y010893D03*
X010245Y010893D03*
X010245Y011893D03*
X009245Y011893D03*
X008245Y011893D03*
X007245Y011893D03*
X006245Y011893D03*
X005245Y011893D03*
D11*
X006095Y012980D03*
X007495Y012980D03*
X004545Y013330D03*
X002445Y011730D03*
X002345Y008630D03*
X002345Y008230D03*
X001495Y007180D03*
X001495Y006930D03*
X001245Y006930D03*
X001245Y007180D03*
X001745Y006930D03*
X001995Y006930D03*
X002220Y006455D03*
X002570Y006455D03*
X000735Y006405D03*
X000505Y006405D03*
X001095Y004730D03*
X001645Y002930D03*
X002345Y003030D03*
X004095Y003030D03*
X005145Y003730D03*
X005145Y004230D03*
X005645Y004230D03*
X005645Y003730D03*
X006495Y003705D03*
X006495Y004080D03*
X006495Y004480D03*
X007045Y004805D03*
X006495Y005055D03*
X006570Y005930D03*
X006720Y006830D03*
X007595Y006755D03*
X008395Y006830D03*
X008945Y006630D03*
X009620Y006430D03*
X010245Y006805D03*
X010470Y007930D03*
X010920Y008755D03*
X010795Y009605D03*
X009145Y009580D03*
X008845Y009180D03*
X009220Y008955D03*
X008820Y007930D03*
X007570Y008980D03*
X007495Y009555D03*
X007520Y010155D03*
X009120Y009955D03*
X007170Y007930D03*
X004745Y006530D03*
X004295Y004805D03*
X006495Y003330D03*
X006945Y002530D03*
X007795Y001430D03*
X009245Y003330D03*
X009245Y003705D03*
X009245Y004080D03*
X009245Y004480D03*
X009245Y005055D03*
X009795Y004805D03*
X009245Y005680D03*
X011620Y006330D03*
X012445Y006580D03*
X012445Y007180D03*
X012445Y007780D03*
X012445Y008380D03*
X012445Y008980D03*
X012445Y009580D03*
X012445Y010180D03*
X013045Y010180D03*
X013645Y010180D03*
X014245Y010180D03*
X014845Y010180D03*
X015445Y010180D03*
X016045Y010180D03*
X016645Y010180D03*
X017245Y010180D03*
X017845Y010180D03*
X018445Y010180D03*
X019045Y010180D03*
X019645Y010180D03*
X019645Y009580D03*
X019645Y008980D03*
X019645Y008380D03*
X019645Y007780D03*
X019645Y007180D03*
X019645Y006580D03*
X019645Y005980D03*
X019645Y005380D03*
X019645Y004780D03*
X019645Y004180D03*
X019645Y003580D03*
X019645Y002980D03*
X019045Y002980D03*
X018445Y002980D03*
X017845Y002980D03*
X017245Y002980D03*
X016645Y002980D03*
X016045Y002980D03*
X015445Y002980D03*
X014845Y002980D03*
X014595Y002680D03*
X014245Y002980D03*
X013645Y002980D03*
X013045Y002980D03*
X012495Y002980D03*
X011995Y003280D03*
X012445Y003580D03*
X011995Y003705D03*
X011995Y004080D03*
X012445Y004180D03*
X011995Y004480D03*
X012445Y004780D03*
X011970Y005030D03*
X012445Y005380D03*
X013095Y005505D03*
X013695Y005505D03*
X014195Y005480D03*
X015145Y005530D03*
X015545Y005530D03*
X015945Y005530D03*
X016345Y005530D03*
X016345Y005930D03*
X016345Y006330D03*
X015945Y006330D03*
X015945Y005930D03*
X015545Y005930D03*
X015545Y006330D03*
X015145Y006330D03*
X015145Y005930D03*
X015145Y006730D03*
X015545Y006730D03*
X015945Y006730D03*
X016345Y006730D03*
X016870Y007255D03*
X017170Y007105D03*
X017620Y007830D03*
X018695Y007680D03*
X017745Y009055D03*
X017245Y009580D03*
X015745Y009055D03*
X015545Y007705D03*
X014495Y007630D03*
X014245Y007280D03*
X014245Y006980D03*
X014045Y006780D03*
X013795Y006630D03*
X013545Y006480D03*
X013295Y006280D03*
X012445Y005980D03*
X013320Y004630D03*
X013745Y004630D03*
X014195Y004630D03*
X014495Y004380D03*
X015320Y004405D03*
X015520Y003930D03*
X015745Y003780D03*
X016270Y003780D03*
X016570Y003980D03*
X016470Y004330D03*
X016570Y004655D03*
X016870Y004980D03*
X017411Y005171D03*
X017545Y005555D03*
X017195Y005605D03*
X017195Y005955D03*
X017395Y004405D03*
X015445Y002080D03*
X015195Y002080D03*
X015195Y001780D03*
X015195Y001480D03*
X013220Y002305D03*
X013020Y002130D03*
X014095Y009030D03*
X016320Y010755D03*
X016320Y011355D03*
X016920Y011355D03*
X017520Y011355D03*
X018120Y011355D03*
X018720Y011355D03*
X018720Y010755D03*
X015045Y011830D03*
X014795Y011830D03*
X014545Y011830D03*
X014295Y011830D03*
X014045Y011830D03*
X013395Y011730D03*
X012995Y011730D03*
X011945Y012580D03*
X011695Y012580D03*
X011695Y012330D03*
X011695Y012080D03*
X011695Y012830D03*
X011945Y012830D03*
X014205Y013355D03*
X014435Y013355D03*
X014295Y012680D03*
D12*
X018962Y001066D02*
X001240Y001066D01*
X001182Y001125D02*
X019021Y001125D01*
X019080Y001183D02*
X018380Y001183D01*
X018477Y001223D02*
X018652Y001398D01*
X018746Y001626D01*
X018746Y001872D01*
X018652Y002100D01*
X018477Y002275D01*
X018249Y002369D01*
X018003Y002369D01*
X017775Y002275D01*
X017600Y002100D01*
X017506Y001872D01*
X017506Y001626D01*
X017600Y001398D01*
X017775Y001223D01*
X018003Y001129D01*
X018249Y001129D01*
X018477Y001223D01*
X018496Y001242D02*
X019139Y001242D01*
X019143Y001246D02*
X018785Y000890D01*
X018363Y000610D01*
X017895Y000418D01*
X017399Y000322D01*
X017146Y000310D01*
X017145Y000310D01*
X017071Y000310D01*
X003145Y000310D01*
X002869Y000324D01*
X002326Y000431D01*
X001816Y000643D01*
X001356Y000950D01*
X000965Y001341D01*
X000658Y001801D01*
X000446Y002311D01*
X000339Y002854D01*
X000325Y003130D01*
X000325Y012552D01*
X000325Y012553D01*
X000325Y012627D01*
X000325Y012627D01*
X000337Y012901D01*
X000440Y013439D01*
X000646Y013946D01*
X000947Y014403D01*
X001332Y014793D01*
X001785Y015100D01*
X002289Y015313D01*
X002825Y015423D01*
X003099Y015438D01*
X016804Y015438D01*
X016878Y015438D01*
X016879Y015438D01*
X017157Y015427D01*
X017703Y015322D01*
X018218Y015114D01*
X018682Y014808D01*
X019078Y014418D01*
X019390Y013959D01*
X019607Y013447D01*
X019719Y012902D01*
X019735Y012625D01*
X019735Y010330D01*
X019715Y010350D01*
X019575Y010350D01*
X019475Y010250D01*
X019475Y010110D01*
X019575Y010010D01*
X019715Y010010D01*
X019735Y010030D01*
X019735Y009730D01*
X019715Y009750D01*
X019575Y009750D01*
X019475Y009650D01*
X019475Y009510D01*
X019575Y009410D01*
X019715Y009410D01*
X019735Y009430D01*
X019735Y009130D01*
X019715Y009150D01*
X019575Y009150D01*
X019475Y009050D01*
X019475Y008910D01*
X019575Y008810D01*
X019715Y008810D01*
X019735Y008830D01*
X019735Y008530D01*
X019715Y008550D01*
X019575Y008550D01*
X019475Y008450D01*
X019475Y008310D01*
X019575Y008210D01*
X019715Y008210D01*
X019735Y008230D01*
X019735Y007930D01*
X019715Y007950D01*
X019575Y007950D01*
X019475Y007850D01*
X019475Y007710D01*
X019575Y007610D01*
X019715Y007610D01*
X019735Y007630D01*
X019735Y007330D01*
X019715Y007350D01*
X019575Y007350D01*
X019475Y007250D01*
X019475Y007110D01*
X019575Y007010D01*
X019715Y007010D01*
X019735Y007030D01*
X019735Y006730D01*
X019715Y006750D01*
X019575Y006750D01*
X019475Y006650D01*
X019475Y006510D01*
X019575Y006410D01*
X019715Y006410D01*
X019735Y006430D01*
X019735Y006130D01*
X019715Y006150D01*
X019575Y006150D01*
X019475Y006050D01*
X019475Y005910D01*
X019575Y005810D01*
X019715Y005810D01*
X019735Y005830D01*
X019735Y005530D01*
X019715Y005550D01*
X019575Y005550D01*
X019475Y005450D01*
X019475Y005310D01*
X019575Y005210D01*
X019715Y005210D01*
X019735Y005230D01*
X019735Y004930D01*
X019715Y004950D01*
X019575Y004950D01*
X019475Y004850D01*
X019475Y004710D01*
X019575Y004610D01*
X019715Y004610D01*
X019735Y004630D01*
X019735Y004330D01*
X019715Y004350D01*
X019575Y004350D01*
X019475Y004250D01*
X019475Y004110D01*
X019575Y004010D01*
X019715Y004010D01*
X019735Y004030D01*
X019735Y003730D01*
X019715Y003750D01*
X019575Y003750D01*
X019475Y003650D01*
X019475Y003510D01*
X019575Y003410D01*
X019715Y003410D01*
X019735Y003430D01*
X019735Y003130D01*
X019715Y003150D01*
X019575Y003150D01*
X019475Y003050D01*
X019475Y002910D01*
X019575Y002810D01*
X019715Y002810D01*
X019732Y002827D01*
X019722Y002628D01*
X019621Y002132D01*
X019426Y001666D01*
X019143Y001246D01*
X019180Y001300D02*
X018554Y001300D01*
X018613Y001359D02*
X019219Y001359D01*
X019259Y001417D02*
X018660Y001417D01*
X018684Y001476D02*
X019298Y001476D01*
X019337Y001534D02*
X018708Y001534D01*
X018732Y001593D02*
X019377Y001593D01*
X019416Y001651D02*
X018746Y001651D01*
X018746Y001710D02*
X019444Y001710D01*
X019469Y001768D02*
X018746Y001768D01*
X018746Y001827D02*
X019493Y001827D01*
X019518Y001885D02*
X018741Y001885D01*
X018717Y001944D02*
X019542Y001944D01*
X019567Y002002D02*
X018692Y002002D01*
X018668Y002061D02*
X019591Y002061D01*
X019616Y002119D02*
X018633Y002119D01*
X018574Y002178D02*
X019630Y002178D01*
X019642Y002236D02*
X018516Y002236D01*
X018429Y002295D02*
X019654Y002295D01*
X019666Y002353D02*
X018288Y002353D01*
X017964Y002353D02*
X013390Y002353D01*
X013390Y002375D02*
X013290Y002475D01*
X013150Y002475D01*
X013050Y002375D01*
X013050Y002300D01*
X012950Y002300D01*
X012850Y002200D01*
X012850Y002060D01*
X012950Y001960D01*
X013090Y001960D01*
X013190Y002060D01*
X013190Y002135D01*
X013290Y002135D01*
X013390Y002235D01*
X013390Y002375D01*
X013354Y002412D02*
X019678Y002412D01*
X019690Y002470D02*
X013295Y002470D01*
X013145Y002470D02*
X007115Y002470D01*
X007115Y002460D02*
X007015Y002360D01*
X006875Y002360D01*
X006775Y002460D01*
X006775Y002600D01*
X006875Y002700D01*
X007015Y002700D01*
X007115Y002600D01*
X007115Y002460D01*
X007067Y002412D02*
X013086Y002412D01*
X013050Y002353D02*
X002126Y002353D01*
X002087Y002369D02*
X001841Y002369D01*
X001613Y002275D01*
X001438Y002100D01*
X001344Y001872D01*
X001344Y001626D01*
X001438Y001398D01*
X001613Y001223D01*
X001841Y001129D01*
X002087Y001129D01*
X002315Y001223D01*
X002490Y001398D01*
X002584Y001626D01*
X002584Y001872D01*
X002490Y002100D01*
X002315Y002275D01*
X002087Y002369D01*
X002267Y002295D02*
X012944Y002295D01*
X012886Y002236D02*
X002354Y002236D01*
X002412Y002178D02*
X012850Y002178D01*
X012850Y002119D02*
X002471Y002119D01*
X002506Y002061D02*
X012850Y002061D01*
X012908Y002002D02*
X002530Y002002D01*
X002554Y001944D02*
X015091Y001944D01*
X015105Y001930D02*
X015025Y001850D01*
X015025Y001710D01*
X015105Y001630D01*
X015025Y001550D01*
X015025Y001410D01*
X015125Y001310D01*
X015265Y001310D01*
X015365Y001410D01*
X015365Y001550D01*
X015285Y001630D01*
X015365Y001710D01*
X015365Y001850D01*
X015285Y001930D01*
X015365Y002010D01*
X015365Y002150D01*
X015265Y002250D01*
X015125Y002250D01*
X015025Y002150D01*
X015025Y002010D01*
X015105Y001930D01*
X015060Y001885D02*
X002579Y001885D01*
X002584Y001827D02*
X015025Y001827D01*
X015025Y001768D02*
X002584Y001768D01*
X002584Y001710D02*
X015025Y001710D01*
X015084Y001651D02*
X002584Y001651D01*
X002570Y001593D02*
X015067Y001593D01*
X015025Y001534D02*
X002546Y001534D01*
X002522Y001476D02*
X015025Y001476D01*
X015025Y001417D02*
X002498Y001417D01*
X002450Y001359D02*
X015076Y001359D01*
X015314Y001359D02*
X017640Y001359D01*
X017592Y001417D02*
X015365Y001417D01*
X015365Y001476D02*
X017568Y001476D01*
X017544Y001534D02*
X015365Y001534D01*
X015323Y001593D02*
X017520Y001593D01*
X017506Y001651D02*
X015306Y001651D01*
X015365Y001710D02*
X017506Y001710D01*
X017506Y001768D02*
X015365Y001768D01*
X015365Y001827D02*
X017506Y001827D01*
X017511Y001885D02*
X015330Y001885D01*
X015299Y001944D02*
X017536Y001944D01*
X017560Y002002D02*
X015357Y002002D01*
X015365Y002061D02*
X017584Y002061D01*
X017619Y002119D02*
X015365Y002119D01*
X015338Y002178D02*
X017678Y002178D01*
X017736Y002236D02*
X015279Y002236D01*
X015111Y002236D02*
X013390Y002236D01*
X013390Y002295D02*
X017823Y002295D01*
X017775Y002810D02*
X017915Y002810D01*
X018015Y002910D01*
X018015Y003050D01*
X017915Y003150D01*
X017775Y003150D01*
X017675Y003050D01*
X017675Y002910D01*
X017775Y002810D01*
X017764Y002821D02*
X017326Y002821D01*
X017315Y002810D02*
X017415Y002910D01*
X017415Y003050D01*
X017315Y003150D01*
X017175Y003150D01*
X017075Y003050D01*
X017075Y002910D01*
X017175Y002810D01*
X017315Y002810D01*
X017385Y002880D02*
X017705Y002880D01*
X017675Y002938D02*
X017415Y002938D01*
X017415Y002997D02*
X017675Y002997D01*
X017680Y003055D02*
X017410Y003055D01*
X017352Y003114D02*
X017738Y003114D01*
X017952Y003114D02*
X018338Y003114D01*
X018375Y003150D02*
X018275Y003050D01*
X018275Y002910D01*
X018375Y002810D01*
X018515Y002810D01*
X018615Y002910D01*
X018615Y003050D01*
X018515Y003150D01*
X018375Y003150D01*
X018280Y003055D02*
X018010Y003055D01*
X018015Y002997D02*
X018275Y002997D01*
X018275Y002938D02*
X018015Y002938D01*
X017985Y002880D02*
X018305Y002880D01*
X018364Y002821D02*
X017926Y002821D01*
X018526Y002821D02*
X018964Y002821D01*
X018975Y002810D02*
X019115Y002810D01*
X019215Y002910D01*
X019215Y003050D01*
X019115Y003150D01*
X018975Y003150D01*
X018875Y003050D01*
X018875Y002910D01*
X018975Y002810D01*
X018905Y002880D02*
X018585Y002880D01*
X018615Y002938D02*
X018875Y002938D01*
X018875Y002997D02*
X018615Y002997D01*
X018610Y003055D02*
X018880Y003055D01*
X018938Y003114D02*
X018552Y003114D01*
X019126Y002821D02*
X019564Y002821D01*
X019505Y002880D02*
X019185Y002880D01*
X019215Y002938D02*
X019475Y002938D01*
X019475Y002997D02*
X019215Y002997D01*
X019210Y003055D02*
X019480Y003055D01*
X019538Y003114D02*
X019152Y003114D01*
X019520Y003465D02*
X012570Y003465D01*
X012615Y003510D02*
X012515Y003410D01*
X012375Y003410D01*
X012275Y003510D01*
X012275Y003650D01*
X012375Y003750D01*
X012515Y003750D01*
X012615Y003650D01*
X012615Y003510D01*
X012615Y003523D02*
X019475Y003523D01*
X019475Y003582D02*
X012615Y003582D01*
X012615Y003640D02*
X015645Y003640D01*
X015675Y003610D02*
X015815Y003610D01*
X015915Y003710D01*
X015915Y003850D01*
X015815Y003950D01*
X015690Y003950D01*
X015690Y004000D01*
X015590Y004100D01*
X015450Y004100D01*
X015350Y004000D01*
X015350Y003860D01*
X015450Y003760D01*
X015575Y003760D01*
X015575Y003710D01*
X015675Y003610D01*
X015586Y003699D02*
X012567Y003699D01*
X012323Y003699D02*
X012165Y003699D01*
X012165Y003757D02*
X015575Y003757D01*
X015394Y003816D02*
X012125Y003816D01*
X012165Y003775D02*
X012065Y003875D01*
X011925Y003875D01*
X011825Y003775D01*
X011825Y003635D01*
X011925Y003535D01*
X012065Y003535D01*
X012165Y003635D01*
X012165Y003775D01*
X012165Y003640D02*
X012275Y003640D01*
X012275Y003582D02*
X012112Y003582D01*
X012065Y003450D02*
X011925Y003450D01*
X011825Y003350D01*
X011825Y003210D01*
X011925Y003110D01*
X012065Y003110D01*
X012165Y003210D01*
X012165Y003350D01*
X012065Y003450D01*
X012109Y003406D02*
X019735Y003406D01*
X019735Y003348D02*
X012165Y003348D01*
X012165Y003289D02*
X019735Y003289D01*
X019735Y003231D02*
X012165Y003231D01*
X012127Y003172D02*
X019735Y003172D01*
X019726Y002821D02*
X019732Y002821D01*
X019729Y002763D02*
X014753Y002763D01*
X014765Y002750D02*
X014665Y002850D01*
X014525Y002850D01*
X014425Y002750D01*
X014425Y002610D01*
X014525Y002510D01*
X014665Y002510D01*
X014765Y002610D01*
X014765Y002750D01*
X014765Y002704D02*
X019726Y002704D01*
X019723Y002646D02*
X014765Y002646D01*
X014742Y002587D02*
X019713Y002587D01*
X019702Y002529D02*
X014684Y002529D01*
X014506Y002529D02*
X007115Y002529D01*
X007115Y002587D02*
X014448Y002587D01*
X014425Y002646D02*
X007070Y002646D01*
X006820Y002646D02*
X000380Y002646D01*
X000368Y002704D02*
X014425Y002704D01*
X014437Y002763D02*
X001718Y002763D01*
X001715Y002760D02*
X001815Y002860D01*
X001815Y003000D01*
X001715Y003100D01*
X001575Y003100D01*
X001475Y003000D01*
X001475Y002860D01*
X001575Y002760D01*
X001715Y002760D01*
X001776Y002821D02*
X012414Y002821D01*
X012425Y002810D02*
X012565Y002810D01*
X012665Y002910D01*
X012665Y003050D01*
X012565Y003150D01*
X012425Y003150D01*
X012325Y003050D01*
X012325Y002910D01*
X012425Y002810D01*
X012355Y002880D02*
X004185Y002880D01*
X004165Y002860D02*
X004025Y002860D01*
X003925Y002960D01*
X003925Y003100D01*
X004025Y003200D01*
X004165Y003200D01*
X004265Y003100D01*
X004265Y002960D01*
X004165Y002860D01*
X004243Y002938D02*
X012325Y002938D01*
X012325Y002997D02*
X004265Y002997D01*
X004265Y003055D02*
X012330Y003055D01*
X012388Y003114D02*
X012069Y003114D01*
X011921Y003114D02*
X004252Y003114D01*
X004193Y003172D02*
X006413Y003172D01*
X006425Y003160D02*
X006565Y003160D01*
X006665Y003260D01*
X006665Y003400D01*
X006565Y003500D01*
X006425Y003500D01*
X006325Y003400D01*
X006325Y003260D01*
X006425Y003160D01*
X006354Y003231D02*
X000325Y003231D01*
X000325Y003289D02*
X006325Y003289D01*
X006325Y003348D02*
X000325Y003348D01*
X000325Y003406D02*
X006331Y003406D01*
X006389Y003465D02*
X000325Y003465D01*
X000325Y003523D02*
X012275Y003523D01*
X012320Y003465D02*
X009351Y003465D01*
X009315Y003500D02*
X009175Y003500D01*
X009075Y003400D01*
X009075Y003260D01*
X009175Y003160D01*
X009315Y003160D01*
X009415Y003260D01*
X009415Y003400D01*
X009315Y003500D01*
X009315Y003535D02*
X009175Y003535D01*
X009075Y003635D01*
X009075Y003775D01*
X009175Y003875D01*
X009315Y003875D01*
X009415Y003775D01*
X009415Y003635D01*
X009315Y003535D01*
X009362Y003582D02*
X011878Y003582D01*
X011825Y003640D02*
X009415Y003640D01*
X009415Y003699D02*
X011825Y003699D01*
X011825Y003757D02*
X009415Y003757D01*
X009375Y003816D02*
X011865Y003816D01*
X011924Y003874D02*
X009316Y003874D01*
X009315Y003910D02*
X009415Y004010D01*
X009415Y004150D01*
X009315Y004250D01*
X009175Y004250D01*
X009075Y004150D01*
X009075Y004010D01*
X009175Y003910D01*
X009315Y003910D01*
X009338Y003933D02*
X011902Y003933D01*
X011925Y003910D02*
X012065Y003910D01*
X012165Y004010D01*
X012165Y004150D01*
X012065Y004250D01*
X011925Y004250D01*
X011825Y004150D01*
X011825Y004010D01*
X011925Y003910D01*
X011844Y003991D02*
X009396Y003991D01*
X009415Y004050D02*
X011825Y004050D01*
X011825Y004108D02*
X009415Y004108D01*
X009399Y004167D02*
X011841Y004167D01*
X011900Y004225D02*
X009340Y004225D01*
X009315Y004310D02*
X009415Y004410D01*
X009415Y004550D01*
X009315Y004650D01*
X009175Y004650D01*
X009075Y004550D01*
X009075Y004410D01*
X009175Y004310D01*
X009315Y004310D01*
X009347Y004342D02*
X011893Y004342D01*
X011925Y004310D02*
X012065Y004310D01*
X012165Y004410D01*
X012165Y004550D01*
X012065Y004650D01*
X011925Y004650D01*
X011825Y004550D01*
X011825Y004410D01*
X011925Y004310D01*
X011834Y004401D02*
X009406Y004401D01*
X009415Y004459D02*
X011825Y004459D01*
X011825Y004518D02*
X009415Y004518D01*
X009389Y004576D02*
X011851Y004576D01*
X011909Y004635D02*
X009331Y004635D01*
X009159Y004635D02*
X006581Y004635D01*
X006565Y004650D02*
X006425Y004650D01*
X006325Y004550D01*
X006325Y004410D01*
X006425Y004310D01*
X006565Y004310D01*
X006665Y004410D01*
X006665Y004550D01*
X006565Y004650D01*
X006639Y004576D02*
X009101Y004576D01*
X009075Y004518D02*
X006665Y004518D01*
X006665Y004459D02*
X009075Y004459D01*
X009084Y004401D02*
X006656Y004401D01*
X006597Y004342D02*
X009143Y004342D01*
X009150Y004225D02*
X006590Y004225D01*
X006565Y004250D02*
X006425Y004250D01*
X006325Y004150D01*
X006325Y004010D01*
X006425Y003910D01*
X006565Y003910D01*
X006665Y004010D01*
X006665Y004150D01*
X006565Y004250D01*
X006649Y004167D02*
X009091Y004167D01*
X009075Y004108D02*
X006665Y004108D01*
X006665Y004050D02*
X009075Y004050D01*
X009094Y003991D02*
X006646Y003991D01*
X006588Y003933D02*
X009152Y003933D01*
X009174Y003874D02*
X006566Y003874D01*
X006565Y003875D02*
X006425Y003875D01*
X006325Y003775D01*
X006325Y003635D01*
X006425Y003535D01*
X006565Y003535D01*
X006665Y003635D01*
X006665Y003775D01*
X006565Y003875D01*
X006625Y003816D02*
X009115Y003816D01*
X009075Y003757D02*
X006665Y003757D01*
X006665Y003699D02*
X009075Y003699D01*
X009075Y003640D02*
X006665Y003640D01*
X006612Y003582D02*
X009128Y003582D01*
X009139Y003465D02*
X006601Y003465D01*
X006659Y003406D02*
X009081Y003406D01*
X009075Y003348D02*
X006665Y003348D01*
X006665Y003289D02*
X009075Y003289D01*
X009104Y003231D02*
X006636Y003231D01*
X006577Y003172D02*
X009163Y003172D01*
X009327Y003172D02*
X011863Y003172D01*
X011825Y003231D02*
X009386Y003231D01*
X009415Y003289D02*
X011825Y003289D01*
X011825Y003348D02*
X009415Y003348D01*
X009409Y003406D02*
X011881Y003406D01*
X012066Y003874D02*
X015350Y003874D01*
X015350Y003933D02*
X012088Y003933D01*
X012146Y003991D02*
X015350Y003991D01*
X015399Y004050D02*
X012555Y004050D01*
X012515Y004010D02*
X012615Y004110D01*
X012615Y004250D01*
X012515Y004350D01*
X012375Y004350D01*
X012275Y004250D01*
X012275Y004110D01*
X012375Y004010D01*
X012515Y004010D01*
X012613Y004108D02*
X016458Y004108D01*
X016500Y004150D02*
X016400Y004050D01*
X016400Y003910D01*
X016500Y003810D01*
X016640Y003810D01*
X016740Y003910D01*
X016740Y004050D01*
X016640Y004150D01*
X016500Y004150D01*
X016540Y004160D02*
X016400Y004160D01*
X016300Y004260D01*
X016300Y004400D01*
X016400Y004500D01*
X016485Y004500D01*
X016400Y004585D01*
X016400Y004725D01*
X016500Y004825D01*
X016640Y004825D01*
X016740Y004725D01*
X016740Y004585D01*
X016640Y004485D01*
X016555Y004485D01*
X016640Y004400D01*
X016640Y004260D01*
X016540Y004160D01*
X016547Y004167D02*
X019475Y004167D01*
X019475Y004225D02*
X016605Y004225D01*
X016640Y004284D02*
X019508Y004284D01*
X019567Y004342D02*
X016640Y004342D01*
X016640Y004401D02*
X019735Y004401D01*
X019735Y004459D02*
X016581Y004459D01*
X016673Y004518D02*
X019735Y004518D01*
X019735Y004576D02*
X016731Y004576D01*
X016740Y004635D02*
X019550Y004635D01*
X019492Y004693D02*
X016740Y004693D01*
X016714Y004752D02*
X019475Y004752D01*
X019475Y004810D02*
X016940Y004810D01*
X017040Y004910D01*
X017040Y005050D01*
X016940Y005150D01*
X016800Y005150D01*
X016700Y005050D01*
X016700Y004910D01*
X016800Y004810D01*
X016940Y004810D01*
X016999Y004869D02*
X019493Y004869D01*
X019552Y004927D02*
X017040Y004927D01*
X017040Y004986D02*
X019735Y004986D01*
X019735Y005044D02*
X017524Y005044D01*
X017482Y005001D02*
X017581Y005101D01*
X017581Y005242D01*
X017482Y005341D01*
X017341Y005341D01*
X017241Y005242D01*
X017241Y005101D01*
X017341Y005001D01*
X017482Y005001D01*
X017581Y005103D02*
X019735Y005103D01*
X019735Y005161D02*
X017581Y005161D01*
X017581Y005220D02*
X019565Y005220D01*
X019507Y005278D02*
X017545Y005278D01*
X017487Y005337D02*
X019475Y005337D01*
X019475Y005395D02*
X016450Y005395D01*
X016415Y005360D02*
X016515Y005460D01*
X016515Y005600D01*
X016415Y005700D01*
X016275Y005700D01*
X016175Y005600D01*
X016175Y005460D01*
X016275Y005360D01*
X016415Y005360D01*
X016509Y005454D02*
X017106Y005454D01*
X017125Y005435D02*
X017025Y005535D01*
X017025Y005675D01*
X017125Y005775D01*
X017265Y005775D01*
X017365Y005675D01*
X017365Y005535D01*
X017265Y005435D01*
X017125Y005435D01*
X017048Y005512D02*
X016515Y005512D01*
X016515Y005571D02*
X017025Y005571D01*
X017025Y005629D02*
X016486Y005629D01*
X016428Y005688D02*
X017037Y005688D01*
X017096Y005746D02*
X000325Y005746D01*
X000325Y005688D02*
X015062Y005688D01*
X015075Y005700D02*
X014975Y005600D01*
X014975Y005460D01*
X015075Y005360D01*
X015215Y005360D01*
X015315Y005460D01*
X015315Y005600D01*
X015215Y005700D01*
X015075Y005700D01*
X015075Y005760D02*
X015215Y005760D01*
X015315Y005860D01*
X015315Y006000D01*
X015215Y006100D01*
X015075Y006100D01*
X014975Y006000D01*
X014975Y005860D01*
X015075Y005760D01*
X015030Y005805D02*
X000325Y005805D01*
X000325Y005863D02*
X012322Y005863D01*
X012275Y005910D02*
X012375Y005810D01*
X012515Y005810D01*
X012615Y005910D01*
X012615Y006050D01*
X012515Y006150D01*
X012375Y006150D01*
X012275Y006050D01*
X012275Y005910D01*
X012275Y005922D02*
X000325Y005922D01*
X000325Y005980D02*
X012275Y005980D01*
X012275Y006039D02*
X000325Y006039D01*
X000325Y006097D02*
X012322Y006097D01*
X012568Y006097D02*
X015072Y006097D01*
X015075Y006160D02*
X015215Y006160D01*
X015315Y006260D01*
X015315Y006400D01*
X015215Y006500D01*
X015075Y006500D01*
X014975Y006400D01*
X014975Y006260D01*
X015075Y006160D01*
X015021Y006214D02*
X013465Y006214D01*
X013465Y006210D02*
X013465Y006320D01*
X013475Y006310D01*
X013615Y006310D01*
X013715Y006410D01*
X013715Y006470D01*
X013725Y006460D01*
X013865Y006460D01*
X013965Y006560D01*
X013965Y006620D01*
X013975Y006610D01*
X014115Y006610D01*
X014215Y006710D01*
X014215Y006810D01*
X014315Y006810D01*
X014415Y006910D01*
X014415Y007050D01*
X014335Y007130D01*
X014415Y007210D01*
X014415Y007350D01*
X014315Y007450D01*
X014175Y007450D01*
X014075Y007350D01*
X014075Y007210D01*
X014155Y007130D01*
X014075Y007050D01*
X014075Y006950D01*
X013975Y006950D01*
X013875Y006850D01*
X013875Y006790D01*
X013865Y006800D01*
X013725Y006800D01*
X013625Y006700D01*
X013625Y006640D01*
X013615Y006650D01*
X013475Y006650D01*
X013375Y006550D01*
X013375Y006440D01*
X013365Y006450D01*
X013225Y006450D01*
X013125Y006350D01*
X013125Y006210D01*
X013225Y006110D01*
X013365Y006110D01*
X013465Y006210D01*
X013465Y006273D02*
X014975Y006273D01*
X014975Y006331D02*
X013636Y006331D01*
X013695Y006390D02*
X014975Y006390D01*
X015023Y006448D02*
X013715Y006448D01*
X013912Y006507D02*
X019478Y006507D01*
X019475Y006565D02*
X016420Y006565D01*
X016415Y006560D02*
X016515Y006660D01*
X016515Y006800D01*
X016415Y006900D01*
X016275Y006900D01*
X016175Y006800D01*
X016175Y006660D01*
X016275Y006560D01*
X016415Y006560D01*
X016415Y006500D02*
X016275Y006500D01*
X016175Y006400D01*
X016175Y006260D01*
X016275Y006160D01*
X016415Y006160D01*
X016515Y006260D01*
X016515Y006400D01*
X016415Y006500D01*
X016467Y006448D02*
X019537Y006448D01*
X019475Y006624D02*
X016479Y006624D01*
X016515Y006682D02*
X019507Y006682D01*
X019565Y006741D02*
X016515Y006741D01*
X016515Y006799D02*
X019735Y006799D01*
X019725Y006741D02*
X019735Y006741D01*
X019735Y006858D02*
X016458Y006858D01*
X016232Y006858D02*
X016058Y006858D01*
X016015Y006900D02*
X016115Y006800D01*
X016115Y006660D01*
X016015Y006560D01*
X015875Y006560D01*
X015775Y006660D01*
X015775Y006800D01*
X015875Y006900D01*
X016015Y006900D01*
X016115Y006799D02*
X016175Y006799D01*
X016175Y006741D02*
X016115Y006741D01*
X016115Y006682D02*
X016175Y006682D01*
X016211Y006624D02*
X016079Y006624D01*
X016020Y006565D02*
X016270Y006565D01*
X016223Y006448D02*
X016067Y006448D01*
X016115Y006400D02*
X016015Y006500D01*
X015875Y006500D01*
X015775Y006400D01*
X015775Y006260D01*
X015875Y006160D01*
X016015Y006160D01*
X016115Y006260D01*
X016115Y006400D01*
X016115Y006390D02*
X016175Y006390D01*
X016175Y006331D02*
X016115Y006331D01*
X016115Y006273D02*
X016175Y006273D01*
X016221Y006214D02*
X016069Y006214D01*
X016015Y006100D02*
X015875Y006100D01*
X015775Y006000D01*
X015775Y005860D01*
X015875Y005760D01*
X016015Y005760D01*
X016115Y005860D01*
X016115Y006000D01*
X016015Y006100D01*
X016018Y006097D02*
X016272Y006097D01*
X016275Y006100D02*
X016175Y006000D01*
X016175Y005860D01*
X016275Y005760D01*
X016415Y005760D01*
X016515Y005860D01*
X016515Y006000D01*
X016415Y006100D01*
X016275Y006100D01*
X016213Y006039D02*
X016077Y006039D01*
X016115Y005980D02*
X016175Y005980D01*
X016175Y005922D02*
X016115Y005922D01*
X016115Y005863D02*
X016175Y005863D01*
X016230Y005805D02*
X016060Y005805D01*
X016015Y005700D02*
X015875Y005700D01*
X015775Y005600D01*
X015775Y005460D01*
X015875Y005360D01*
X016015Y005360D01*
X016115Y005460D01*
X016115Y005600D01*
X016015Y005700D01*
X016028Y005688D02*
X016262Y005688D01*
X016204Y005629D02*
X016086Y005629D01*
X016115Y005571D02*
X016175Y005571D01*
X016175Y005512D02*
X016115Y005512D01*
X016109Y005454D02*
X016181Y005454D01*
X016240Y005395D02*
X016050Y005395D01*
X015840Y005395D02*
X015650Y005395D01*
X015615Y005360D02*
X015715Y005460D01*
X015715Y005600D01*
X015615Y005700D01*
X015475Y005700D01*
X015375Y005600D01*
X015375Y005460D01*
X015475Y005360D01*
X015615Y005360D01*
X015709Y005454D02*
X015781Y005454D01*
X015775Y005512D02*
X015715Y005512D01*
X015715Y005571D02*
X015775Y005571D01*
X015804Y005629D02*
X015686Y005629D01*
X015628Y005688D02*
X015862Y005688D01*
X015830Y005805D02*
X015660Y005805D01*
X015615Y005760D02*
X015715Y005860D01*
X015715Y006000D01*
X015615Y006100D01*
X015475Y006100D01*
X015375Y006000D01*
X015375Y005860D01*
X015475Y005760D01*
X015615Y005760D01*
X015715Y005863D02*
X015775Y005863D01*
X015775Y005922D02*
X015715Y005922D01*
X015715Y005980D02*
X015775Y005980D01*
X015813Y006039D02*
X015677Y006039D01*
X015618Y006097D02*
X015872Y006097D01*
X015821Y006214D02*
X015669Y006214D01*
X015715Y006260D02*
X015615Y006160D01*
X015475Y006160D01*
X015375Y006260D01*
X015375Y006400D01*
X015475Y006500D01*
X015615Y006500D01*
X015715Y006400D01*
X015715Y006260D01*
X015715Y006273D02*
X015775Y006273D01*
X015775Y006331D02*
X015715Y006331D01*
X015715Y006390D02*
X015775Y006390D01*
X015823Y006448D02*
X015667Y006448D01*
X015615Y006560D02*
X015475Y006560D01*
X015375Y006660D01*
X015375Y006800D01*
X015475Y006900D01*
X015615Y006900D01*
X015715Y006800D01*
X015715Y006660D01*
X015615Y006560D01*
X015620Y006565D02*
X015870Y006565D01*
X015811Y006624D02*
X015679Y006624D01*
X015715Y006682D02*
X015775Y006682D01*
X015775Y006741D02*
X015715Y006741D01*
X015715Y006799D02*
X015775Y006799D01*
X015832Y006858D02*
X015658Y006858D01*
X015432Y006858D02*
X015258Y006858D01*
X015215Y006900D02*
X015075Y006900D01*
X014975Y006800D01*
X014975Y006660D01*
X015075Y006560D01*
X015215Y006560D01*
X015315Y006660D01*
X015315Y006800D01*
X015215Y006900D01*
X015315Y006799D02*
X015375Y006799D01*
X015375Y006741D02*
X015315Y006741D01*
X015315Y006682D02*
X015375Y006682D01*
X015411Y006624D02*
X015279Y006624D01*
X015220Y006565D02*
X015470Y006565D01*
X015423Y006448D02*
X015267Y006448D01*
X015315Y006390D02*
X015375Y006390D01*
X015375Y006331D02*
X015315Y006331D01*
X015315Y006273D02*
X015375Y006273D01*
X015421Y006214D02*
X015269Y006214D01*
X015218Y006097D02*
X015472Y006097D01*
X015413Y006039D02*
X015277Y006039D01*
X015315Y005980D02*
X015375Y005980D01*
X015375Y005922D02*
X015315Y005922D01*
X015315Y005863D02*
X015375Y005863D01*
X015430Y005805D02*
X015260Y005805D01*
X015228Y005688D02*
X015462Y005688D01*
X015404Y005629D02*
X015286Y005629D01*
X015315Y005571D02*
X015375Y005571D01*
X015375Y005512D02*
X015315Y005512D01*
X015309Y005454D02*
X015381Y005454D01*
X015440Y005395D02*
X015250Y005395D01*
X015040Y005395D02*
X014350Y005395D01*
X014365Y005410D02*
X014265Y005310D01*
X014125Y005310D01*
X014025Y005410D01*
X014025Y005550D01*
X014125Y005650D01*
X014265Y005650D01*
X014365Y005550D01*
X014365Y005410D01*
X014365Y005454D02*
X014981Y005454D01*
X014975Y005512D02*
X014365Y005512D01*
X014345Y005571D02*
X014975Y005571D01*
X015004Y005629D02*
X014286Y005629D01*
X014104Y005629D02*
X013211Y005629D01*
X013165Y005675D02*
X013025Y005675D01*
X012925Y005575D01*
X012925Y005435D01*
X013025Y005335D01*
X013165Y005335D01*
X013265Y005435D01*
X013265Y005575D01*
X013165Y005675D01*
X013265Y005571D02*
X014045Y005571D01*
X014025Y005512D02*
X013265Y005512D01*
X013265Y005454D02*
X014025Y005454D01*
X014040Y005395D02*
X013225Y005395D01*
X013167Y005337D02*
X014098Y005337D01*
X014292Y005337D02*
X017336Y005337D01*
X017278Y005278D02*
X012583Y005278D01*
X012615Y005310D02*
X012515Y005210D01*
X012375Y005210D01*
X012275Y005310D01*
X012275Y005450D01*
X012375Y005550D01*
X012515Y005550D01*
X012615Y005450D01*
X012615Y005310D01*
X012615Y005337D02*
X013023Y005337D01*
X012965Y005395D02*
X012615Y005395D01*
X012612Y005454D02*
X012925Y005454D01*
X012925Y005512D02*
X012553Y005512D01*
X012337Y005512D02*
X000325Y005512D01*
X000325Y005454D02*
X012278Y005454D01*
X012275Y005395D02*
X000325Y005395D01*
X000325Y005337D02*
X012275Y005337D01*
X012307Y005278D02*
X000325Y005278D01*
X000325Y005220D02*
X006419Y005220D01*
X006425Y005225D02*
X006325Y005125D01*
X006325Y004985D01*
X006425Y004885D01*
X006565Y004885D01*
X006665Y004985D01*
X006665Y005125D01*
X006565Y005225D01*
X006425Y005225D01*
X006361Y005161D02*
X000325Y005161D01*
X000325Y005103D02*
X006325Y005103D01*
X006325Y005044D02*
X000325Y005044D01*
X000325Y004986D02*
X006325Y004986D01*
X006383Y004927D02*
X004413Y004927D01*
X004365Y004975D02*
X004225Y004975D01*
X004125Y004875D01*
X004125Y004735D01*
X004225Y004635D01*
X004365Y004635D01*
X004465Y004735D01*
X004465Y004875D01*
X004365Y004975D01*
X004465Y004869D02*
X006875Y004869D01*
X006875Y004875D02*
X006875Y004735D01*
X006975Y004635D01*
X007115Y004635D01*
X007215Y004735D01*
X007215Y004875D01*
X007115Y004975D01*
X006975Y004975D01*
X006875Y004875D01*
X006875Y004810D02*
X004465Y004810D01*
X004465Y004752D02*
X006875Y004752D01*
X006917Y004693D02*
X004423Y004693D01*
X004167Y004693D02*
X000325Y004693D01*
X000325Y004635D02*
X006409Y004635D01*
X006351Y004576D02*
X000325Y004576D01*
X000325Y004518D02*
X006325Y004518D01*
X006325Y004459D02*
X000325Y004459D01*
X000325Y004401D02*
X006334Y004401D01*
X006393Y004342D02*
X005773Y004342D01*
X005815Y004300D02*
X005715Y004400D01*
X005575Y004400D01*
X005475Y004300D01*
X005475Y004160D01*
X005575Y004060D01*
X005715Y004060D01*
X005815Y004160D01*
X005815Y004300D01*
X005815Y004284D02*
X012308Y004284D01*
X012275Y004225D02*
X012090Y004225D01*
X012149Y004167D02*
X012275Y004167D01*
X012277Y004108D02*
X012165Y004108D01*
X012165Y004050D02*
X012335Y004050D01*
X012615Y004167D02*
X016393Y004167D01*
X016335Y004225D02*
X012615Y004225D01*
X012582Y004284D02*
X015201Y004284D01*
X015250Y004235D02*
X015390Y004235D01*
X015490Y004335D01*
X015490Y004475D01*
X015390Y004575D01*
X015250Y004575D01*
X015150Y004475D01*
X015150Y004335D01*
X015250Y004235D01*
X015150Y004342D02*
X012523Y004342D01*
X012367Y004342D02*
X012097Y004342D01*
X012156Y004401D02*
X015150Y004401D01*
X015150Y004459D02*
X012165Y004459D01*
X012165Y004518D02*
X013192Y004518D01*
X013150Y004560D02*
X013250Y004460D01*
X013390Y004460D01*
X013490Y004560D01*
X013490Y004700D01*
X013390Y004800D01*
X013250Y004800D01*
X013150Y004700D01*
X013150Y004560D01*
X013150Y004576D02*
X012139Y004576D01*
X012081Y004635D02*
X012350Y004635D01*
X012375Y004610D02*
X012515Y004610D01*
X012615Y004710D01*
X012615Y004850D01*
X012515Y004950D01*
X012375Y004950D01*
X012275Y004850D01*
X012275Y004710D01*
X012375Y004610D01*
X012292Y004693D02*
X009923Y004693D01*
X009965Y004735D02*
X009865Y004635D01*
X009725Y004635D01*
X009625Y004735D01*
X009625Y004875D01*
X009725Y004975D01*
X009865Y004975D01*
X009965Y004875D01*
X009965Y004735D01*
X009965Y004752D02*
X012275Y004752D01*
X012275Y004810D02*
X009965Y004810D01*
X009965Y004869D02*
X011891Y004869D01*
X011900Y004860D02*
X012040Y004860D01*
X012140Y004960D01*
X012140Y005100D01*
X012040Y005200D01*
X011900Y005200D01*
X011800Y005100D01*
X011800Y004960D01*
X011900Y004860D01*
X011833Y004927D02*
X009913Y004927D01*
X009677Y004927D02*
X009357Y004927D01*
X009315Y004885D02*
X009415Y004985D01*
X009415Y005125D01*
X009315Y005225D01*
X009175Y005225D01*
X009075Y005125D01*
X009075Y004985D01*
X009175Y004885D01*
X009315Y004885D01*
X009415Y004986D02*
X011800Y004986D01*
X011800Y005044D02*
X009415Y005044D01*
X009415Y005103D02*
X011802Y005103D01*
X011861Y005161D02*
X009379Y005161D01*
X009321Y005220D02*
X012365Y005220D01*
X012525Y005220D02*
X017241Y005220D01*
X017241Y005161D02*
X012079Y005161D01*
X012138Y005103D02*
X016752Y005103D01*
X016700Y005044D02*
X012140Y005044D01*
X012140Y004986D02*
X016700Y004986D01*
X016700Y004927D02*
X012538Y004927D01*
X012597Y004869D02*
X016741Y004869D01*
X016800Y004810D02*
X016655Y004810D01*
X016485Y004810D02*
X012615Y004810D01*
X012615Y004752D02*
X013201Y004752D01*
X013150Y004693D02*
X012598Y004693D01*
X012540Y004635D02*
X013150Y004635D01*
X013439Y004752D02*
X013626Y004752D01*
X013675Y004800D02*
X013575Y004700D01*
X013575Y004560D01*
X013675Y004460D01*
X013815Y004460D01*
X013915Y004560D01*
X013915Y004700D01*
X013815Y004800D01*
X013675Y004800D01*
X013575Y004693D02*
X013490Y004693D01*
X013490Y004635D02*
X013575Y004635D01*
X013575Y004576D02*
X013490Y004576D01*
X013448Y004518D02*
X013617Y004518D01*
X013873Y004518D02*
X014067Y004518D01*
X014025Y004560D02*
X014125Y004460D01*
X014265Y004460D01*
X014365Y004560D01*
X014365Y004700D01*
X014265Y004800D01*
X014125Y004800D01*
X014025Y004700D01*
X014025Y004560D01*
X014025Y004576D02*
X013915Y004576D01*
X013915Y004635D02*
X014025Y004635D01*
X014025Y004693D02*
X013915Y004693D01*
X013864Y004752D02*
X014076Y004752D01*
X014314Y004752D02*
X016426Y004752D01*
X016400Y004693D02*
X014365Y004693D01*
X014365Y004635D02*
X016400Y004635D01*
X016409Y004576D02*
X014365Y004576D01*
X014323Y004518D02*
X015192Y004518D01*
X015448Y004518D02*
X016467Y004518D01*
X016359Y004459D02*
X015490Y004459D01*
X015490Y004401D02*
X016300Y004401D01*
X016300Y004342D02*
X015490Y004342D01*
X015439Y004284D02*
X016300Y004284D01*
X016400Y004050D02*
X015641Y004050D01*
X015690Y003991D02*
X016400Y003991D01*
X016400Y003933D02*
X016358Y003933D01*
X016340Y003950D02*
X016200Y003950D01*
X016100Y003850D01*
X016100Y003710D01*
X016200Y003610D01*
X016340Y003610D01*
X016440Y003710D01*
X016440Y003850D01*
X016340Y003950D01*
X016416Y003874D02*
X016436Y003874D01*
X016440Y003816D02*
X016494Y003816D01*
X016440Y003757D02*
X019735Y003757D01*
X019735Y003816D02*
X016646Y003816D01*
X016704Y003874D02*
X019735Y003874D01*
X019735Y003933D02*
X016740Y003933D01*
X016740Y003991D02*
X019735Y003991D01*
X019535Y004050D02*
X016740Y004050D01*
X016682Y004108D02*
X019477Y004108D01*
X019723Y004342D02*
X019735Y004342D01*
X019523Y003699D02*
X016429Y003699D01*
X016370Y003640D02*
X019475Y003640D01*
X019725Y005220D02*
X019735Y005220D01*
X019478Y005454D02*
X017284Y005454D01*
X017342Y005512D02*
X019537Y005512D01*
X019735Y005571D02*
X017365Y005571D01*
X017365Y005629D02*
X019735Y005629D01*
X019735Y005688D02*
X017353Y005688D01*
X017294Y005746D02*
X019735Y005746D01*
X019735Y005805D02*
X017285Y005805D01*
X017265Y005785D02*
X017365Y005885D01*
X017365Y006025D01*
X017265Y006125D01*
X017125Y006125D01*
X017025Y006025D01*
X017025Y005885D01*
X017125Y005785D01*
X017265Y005785D01*
X017343Y005863D02*
X019522Y005863D01*
X019475Y005922D02*
X017365Y005922D01*
X017365Y005980D02*
X019475Y005980D01*
X019475Y006039D02*
X017352Y006039D01*
X017293Y006097D02*
X019522Y006097D01*
X019735Y006156D02*
X013411Y006156D01*
X013179Y006156D02*
X000325Y006156D01*
X000325Y006214D02*
X013125Y006214D01*
X013125Y006273D02*
X009703Y006273D01*
X009690Y006260D02*
X009790Y006360D01*
X009790Y006500D01*
X009690Y006600D01*
X009550Y006600D01*
X009450Y006500D01*
X009450Y006360D01*
X009550Y006260D01*
X009690Y006260D01*
X009761Y006331D02*
X013125Y006331D01*
X013164Y006390D02*
X009790Y006390D01*
X009790Y006448D02*
X012337Y006448D01*
X012375Y006410D02*
X012515Y006410D01*
X012615Y006510D01*
X012615Y006650D01*
X012515Y006750D01*
X012375Y006750D01*
X012275Y006650D01*
X012275Y006510D01*
X012375Y006410D01*
X012278Y006507D02*
X009784Y006507D01*
X009725Y006565D02*
X012275Y006565D01*
X012275Y006624D02*
X009115Y006624D01*
X009115Y006682D02*
X010128Y006682D01*
X010175Y006635D02*
X010315Y006635D01*
X010415Y006735D01*
X010415Y006875D01*
X010315Y006975D01*
X010175Y006975D01*
X010075Y006875D01*
X010075Y006735D01*
X010175Y006635D01*
X010075Y006741D02*
X009075Y006741D01*
X009115Y006700D02*
X009015Y006800D01*
X008875Y006800D01*
X008775Y006700D01*
X008775Y006560D01*
X008875Y006460D01*
X009015Y006460D01*
X009115Y006560D01*
X009115Y006700D01*
X009115Y006565D02*
X009515Y006565D01*
X009456Y006507D02*
X009062Y006507D01*
X008828Y006507D02*
X004915Y006507D01*
X004915Y006460D02*
X004815Y006360D01*
X004675Y006360D01*
X004575Y006460D01*
X004575Y006600D01*
X004675Y006700D01*
X004815Y006700D01*
X004915Y006600D01*
X004915Y006460D01*
X004903Y006448D02*
X009450Y006448D01*
X009450Y006390D02*
X004845Y006390D01*
X004645Y006390D02*
X002740Y006390D01*
X002740Y006385D02*
X002640Y006285D01*
X002500Y006285D01*
X002400Y006385D01*
X002400Y006525D01*
X002500Y006625D01*
X002640Y006625D01*
X002740Y006525D01*
X002740Y006385D01*
X002740Y006448D02*
X004587Y006448D01*
X004575Y006507D02*
X002740Y006507D01*
X002700Y006565D02*
X004575Y006565D01*
X004598Y006624D02*
X002642Y006624D01*
X002498Y006624D02*
X002292Y006624D01*
X002290Y006625D02*
X002150Y006625D01*
X002050Y006525D01*
X002050Y006385D01*
X002150Y006285D01*
X002290Y006285D01*
X002390Y006385D01*
X002390Y006525D01*
X002290Y006625D01*
X002350Y006565D02*
X002440Y006565D01*
X002400Y006507D02*
X002390Y006507D01*
X002390Y006448D02*
X002400Y006448D01*
X002390Y006390D02*
X002400Y006390D01*
X002454Y006331D02*
X002336Y006331D01*
X002104Y006331D02*
X000901Y006331D01*
X000905Y006335D02*
X000805Y006235D01*
X000665Y006235D01*
X000620Y006280D01*
X000575Y006235D01*
X000435Y006235D01*
X000335Y006335D01*
X000335Y006475D01*
X000435Y006575D01*
X000575Y006575D01*
X000620Y006530D01*
X000665Y006575D01*
X000805Y006575D01*
X000905Y006475D01*
X000905Y006335D01*
X000905Y006390D02*
X002050Y006390D01*
X002050Y006448D02*
X000905Y006448D01*
X000874Y006507D02*
X002050Y006507D01*
X002090Y006565D02*
X000815Y006565D01*
X000655Y006565D02*
X000585Y006565D01*
X000425Y006565D02*
X000325Y006565D01*
X000325Y006507D02*
X000366Y006507D01*
X000335Y006448D02*
X000325Y006448D01*
X000325Y006390D02*
X000335Y006390D01*
X000325Y006331D02*
X000339Y006331D01*
X000325Y006273D02*
X000397Y006273D01*
X000613Y006273D02*
X000627Y006273D01*
X000843Y006273D02*
X009537Y006273D01*
X009479Y006331D02*
X002686Y006331D01*
X002148Y006624D02*
X000325Y006624D01*
X000325Y006682D02*
X004657Y006682D01*
X004833Y006682D02*
X006628Y006682D01*
X006650Y006660D02*
X006550Y006760D01*
X006550Y006900D01*
X006650Y007000D01*
X006790Y007000D01*
X006890Y006900D01*
X006890Y006760D01*
X006790Y006660D01*
X006650Y006660D01*
X006569Y006741D02*
X000325Y006741D01*
X000325Y006799D02*
X001136Y006799D01*
X001175Y006760D02*
X001315Y006760D01*
X001370Y006815D01*
X001425Y006760D01*
X001565Y006760D01*
X001620Y006815D01*
X001675Y006760D01*
X001815Y006760D01*
X001870Y006815D01*
X001925Y006760D01*
X002065Y006760D01*
X002165Y006860D01*
X002165Y007000D01*
X002065Y007100D01*
X001925Y007100D01*
X001870Y007045D01*
X001815Y007100D01*
X001675Y007100D01*
X001620Y007045D01*
X001610Y007055D01*
X001665Y007110D01*
X001665Y007250D01*
X001565Y007350D01*
X001425Y007350D01*
X001370Y007295D01*
X001315Y007350D01*
X001175Y007350D01*
X001075Y007250D01*
X001075Y007110D01*
X001130Y007055D01*
X001075Y007000D01*
X001075Y006860D01*
X001175Y006760D01*
X001077Y006858D02*
X000325Y006858D01*
X000325Y006916D02*
X001075Y006916D01*
X001075Y006975D02*
X000325Y006975D01*
X000325Y007033D02*
X001108Y007033D01*
X001093Y007092D02*
X000325Y007092D01*
X000325Y007150D02*
X001075Y007150D01*
X001075Y007209D02*
X000325Y007209D01*
X000325Y007267D02*
X001092Y007267D01*
X001150Y007326D02*
X000325Y007326D01*
X000325Y007384D02*
X014109Y007384D01*
X014075Y007326D02*
X012540Y007326D01*
X012515Y007350D02*
X012375Y007350D01*
X012275Y007250D01*
X012275Y007110D01*
X012375Y007010D01*
X012515Y007010D01*
X012615Y007110D01*
X012615Y007250D01*
X012515Y007350D01*
X012598Y007267D02*
X014075Y007267D01*
X014076Y007209D02*
X012615Y007209D01*
X012615Y007150D02*
X014135Y007150D01*
X014116Y007092D02*
X012597Y007092D01*
X012538Y007033D02*
X014075Y007033D01*
X014075Y006975D02*
X010316Y006975D01*
X010374Y006916D02*
X013941Y006916D01*
X013882Y006858D02*
X010415Y006858D01*
X010415Y006799D02*
X013724Y006799D01*
X013665Y006741D02*
X012525Y006741D01*
X012583Y006682D02*
X013625Y006682D01*
X013448Y006624D02*
X012615Y006624D01*
X012615Y006565D02*
X013390Y006565D01*
X013375Y006507D02*
X012612Y006507D01*
X012553Y006448D02*
X013223Y006448D01*
X013367Y006448D02*
X013375Y006448D01*
X013866Y006799D02*
X013875Y006799D01*
X013965Y006565D02*
X015070Y006565D01*
X015011Y006624D02*
X014129Y006624D01*
X014187Y006682D02*
X014975Y006682D01*
X014975Y006741D02*
X014215Y006741D01*
X014215Y006799D02*
X014975Y006799D01*
X015032Y006858D02*
X014363Y006858D01*
X014415Y006916D02*
X019735Y006916D01*
X019735Y006975D02*
X017280Y006975D01*
X017240Y006935D02*
X017340Y007035D01*
X017340Y007175D01*
X017240Y007275D01*
X017100Y007275D01*
X017040Y007215D01*
X017040Y007325D01*
X016940Y007425D01*
X016800Y007425D01*
X016700Y007325D01*
X016700Y007185D01*
X016800Y007085D01*
X016940Y007085D01*
X017000Y007145D01*
X017000Y007035D01*
X017100Y006935D01*
X017240Y006935D01*
X017338Y007033D02*
X019552Y007033D01*
X019493Y007092D02*
X017340Y007092D01*
X017340Y007150D02*
X019475Y007150D01*
X019475Y007209D02*
X017307Y007209D01*
X017248Y007267D02*
X019492Y007267D01*
X019550Y007326D02*
X017040Y007326D01*
X017040Y007267D02*
X017092Y007267D01*
X016981Y007384D02*
X019735Y007384D01*
X019735Y007443D02*
X014323Y007443D01*
X014381Y007384D02*
X016759Y007384D01*
X016700Y007326D02*
X014415Y007326D01*
X014415Y007267D02*
X016700Y007267D01*
X016700Y007209D02*
X014414Y007209D01*
X014355Y007150D02*
X016735Y007150D01*
X016793Y007092D02*
X014374Y007092D01*
X014415Y007033D02*
X017002Y007033D01*
X017000Y007092D02*
X016947Y007092D01*
X017060Y006975D02*
X014415Y006975D01*
X014425Y007460D02*
X014565Y007460D01*
X014665Y007560D01*
X014665Y007700D01*
X014565Y007800D01*
X014425Y007800D01*
X014325Y007700D01*
X014325Y007560D01*
X014425Y007460D01*
X014384Y007501D02*
X000325Y007501D01*
X000325Y007443D02*
X014167Y007443D01*
X014325Y007560D02*
X000325Y007560D01*
X000325Y007618D02*
X012367Y007618D01*
X012375Y007610D02*
X012515Y007610D01*
X012615Y007710D01*
X012615Y007850D01*
X012515Y007950D01*
X012375Y007950D01*
X012275Y007850D01*
X012275Y007710D01*
X012375Y007610D01*
X012308Y007677D02*
X000325Y007677D01*
X000325Y007735D02*
X012275Y007735D01*
X012275Y007794D02*
X010574Y007794D01*
X010540Y007760D02*
X010640Y007860D01*
X010640Y008000D01*
X010540Y008100D01*
X010400Y008100D01*
X010300Y008000D01*
X010300Y007860D01*
X010400Y007760D01*
X010540Y007760D01*
X010632Y007852D02*
X012277Y007852D01*
X012335Y007911D02*
X010640Y007911D01*
X010640Y007969D02*
X019735Y007969D01*
X019735Y008028D02*
X010613Y008028D01*
X010554Y008086D02*
X019735Y008086D01*
X019735Y008145D02*
X002500Y008145D01*
X002515Y008160D02*
X002415Y008060D01*
X002275Y008060D01*
X002175Y008160D01*
X002175Y008300D01*
X002275Y008400D01*
X002415Y008400D01*
X002515Y008300D01*
X002515Y008160D01*
X002515Y008203D02*
X019735Y008203D01*
X019523Y008262D02*
X012567Y008262D01*
X012615Y008310D02*
X012515Y008210D01*
X012375Y008210D01*
X012275Y008310D01*
X012275Y008450D01*
X012375Y008550D01*
X012515Y008550D01*
X012615Y008450D01*
X012615Y008310D01*
X012615Y008320D02*
X019475Y008320D01*
X019475Y008379D02*
X012615Y008379D01*
X012615Y008437D02*
X019475Y008437D01*
X019520Y008496D02*
X012570Y008496D01*
X012320Y008496D02*
X002451Y008496D01*
X002415Y008460D02*
X002515Y008560D01*
X002515Y008700D01*
X002415Y008800D01*
X002275Y008800D01*
X002175Y008700D01*
X002175Y008560D01*
X002275Y008460D01*
X002415Y008460D01*
X002437Y008379D02*
X012275Y008379D01*
X012275Y008437D02*
X000325Y008437D01*
X000325Y008379D02*
X002253Y008379D01*
X002195Y008320D02*
X000325Y008320D01*
X000325Y008262D02*
X002175Y008262D01*
X002175Y008203D02*
X000325Y008203D01*
X000325Y008145D02*
X002190Y008145D01*
X002249Y008086D02*
X000325Y008086D01*
X000325Y008028D02*
X007027Y008028D01*
X007000Y008000D02*
X007000Y007860D01*
X007100Y007760D01*
X007240Y007760D01*
X007340Y007860D01*
X007340Y008000D01*
X007240Y008100D01*
X007100Y008100D01*
X007000Y008000D01*
X007000Y007969D02*
X000325Y007969D01*
X000325Y007911D02*
X007000Y007911D01*
X007008Y007852D02*
X000325Y007852D01*
X000325Y007794D02*
X007066Y007794D01*
X007274Y007794D02*
X008716Y007794D01*
X008750Y007760D02*
X008890Y007760D01*
X008990Y007860D01*
X008990Y008000D01*
X008890Y008100D01*
X008750Y008100D01*
X008650Y008000D01*
X008650Y007860D01*
X008750Y007760D01*
X008658Y007852D02*
X007332Y007852D01*
X007340Y007911D02*
X008650Y007911D01*
X008650Y007969D02*
X007340Y007969D01*
X007313Y008028D02*
X008677Y008028D01*
X008736Y008086D02*
X007254Y008086D01*
X007086Y008086D02*
X002441Y008086D01*
X002515Y008262D02*
X012323Y008262D01*
X012275Y008320D02*
X002495Y008320D01*
X002509Y008554D02*
X019735Y008554D01*
X019735Y008613D02*
X011018Y008613D01*
X010990Y008585D02*
X011090Y008685D01*
X011090Y008825D01*
X010990Y008925D01*
X010850Y008925D01*
X010750Y008825D01*
X010750Y008685D01*
X010850Y008585D01*
X010990Y008585D01*
X011076Y008671D02*
X019735Y008671D01*
X019735Y008730D02*
X011090Y008730D01*
X011090Y008788D02*
X019735Y008788D01*
X019538Y008847D02*
X012552Y008847D01*
X012515Y008810D02*
X012615Y008910D01*
X012615Y009050D01*
X012515Y009150D01*
X012375Y009150D01*
X012275Y009050D01*
X012275Y008910D01*
X012375Y008810D01*
X012515Y008810D01*
X012610Y008905D02*
X017655Y008905D01*
X017675Y008885D02*
X017815Y008885D01*
X017915Y008985D01*
X017915Y009125D01*
X017815Y009225D01*
X017675Y009225D01*
X017575Y009125D01*
X017575Y008985D01*
X017675Y008885D01*
X017596Y008964D02*
X012615Y008964D01*
X012615Y009022D02*
X017575Y009022D01*
X017575Y009081D02*
X012585Y009081D01*
X012526Y009139D02*
X017589Y009139D01*
X017647Y009198D02*
X009015Y009198D01*
X009015Y009250D02*
X008915Y009350D01*
X008775Y009350D01*
X008675Y009250D01*
X008675Y009110D01*
X008775Y009010D01*
X008915Y009010D01*
X009015Y009110D01*
X009015Y009250D01*
X009009Y009256D02*
X019735Y009256D01*
X019735Y009198D02*
X017843Y009198D01*
X017901Y009139D02*
X019564Y009139D01*
X019505Y009081D02*
X017915Y009081D01*
X017915Y009022D02*
X019475Y009022D01*
X019475Y008964D02*
X017894Y008964D01*
X017835Y008905D02*
X019480Y008905D01*
X019726Y009139D02*
X019735Y009139D01*
X019735Y009315D02*
X008951Y009315D01*
X009015Y009139D02*
X012364Y009139D01*
X012305Y009081D02*
X009335Y009081D01*
X009290Y009125D02*
X009390Y009025D01*
X009390Y008885D01*
X009290Y008785D01*
X009150Y008785D01*
X009050Y008885D01*
X009050Y009025D01*
X009150Y009125D01*
X009290Y009125D01*
X009390Y009022D02*
X012275Y009022D01*
X012275Y008964D02*
X009390Y008964D01*
X009390Y008905D02*
X010830Y008905D01*
X010771Y008847D02*
X009352Y008847D01*
X009293Y008788D02*
X010750Y008788D01*
X010750Y008730D02*
X002486Y008730D01*
X002515Y008671D02*
X010764Y008671D01*
X010822Y008613D02*
X002515Y008613D01*
X002427Y008788D02*
X009147Y008788D01*
X009088Y008847D02*
X007677Y008847D01*
X007640Y008810D02*
X007740Y008910D01*
X007740Y009050D01*
X007640Y009150D01*
X007500Y009150D01*
X007400Y009050D01*
X007400Y008910D01*
X007500Y008810D01*
X007640Y008810D01*
X007735Y008905D02*
X009050Y008905D01*
X009050Y008964D02*
X007740Y008964D01*
X007740Y009022D02*
X008763Y009022D01*
X008704Y009081D02*
X007710Y009081D01*
X007651Y009139D02*
X008675Y009139D01*
X008675Y009198D02*
X000325Y009198D01*
X000325Y009256D02*
X008681Y009256D01*
X008739Y009315D02*
X000325Y009315D01*
X000325Y009373D02*
X019735Y009373D01*
X019553Y009432D02*
X017337Y009432D01*
X017315Y009410D02*
X017415Y009510D01*
X017415Y009650D01*
X017315Y009750D01*
X017175Y009750D01*
X017075Y009650D01*
X017075Y009510D01*
X017175Y009410D01*
X017315Y009410D01*
X017395Y009490D02*
X019495Y009490D01*
X019475Y009549D02*
X017415Y009549D01*
X017415Y009607D02*
X019475Y009607D01*
X019490Y009666D02*
X017400Y009666D01*
X017341Y009724D02*
X019549Y009724D01*
X019735Y009783D02*
X000325Y009783D01*
X000325Y009841D02*
X008994Y009841D01*
X008950Y009885D02*
X009050Y009785D01*
X009190Y009785D01*
X009290Y009885D01*
X009290Y010025D01*
X009190Y010125D01*
X009050Y010125D01*
X008950Y010025D01*
X008950Y009885D01*
X008950Y009900D02*
X000325Y009900D01*
X000325Y009958D02*
X008950Y009958D01*
X008950Y010017D02*
X007622Y010017D01*
X007590Y009985D02*
X007690Y010085D01*
X007690Y010225D01*
X007590Y010325D01*
X007450Y010325D01*
X007350Y010225D01*
X007350Y010085D01*
X007450Y009985D01*
X007590Y009985D01*
X007680Y010075D02*
X009000Y010075D01*
X009240Y010075D02*
X012310Y010075D01*
X012275Y010110D02*
X012375Y010010D01*
X012515Y010010D01*
X012615Y010110D01*
X012615Y010250D01*
X012515Y010350D01*
X012375Y010350D01*
X012275Y010250D01*
X012275Y010110D01*
X012275Y010134D02*
X007690Y010134D01*
X007690Y010192D02*
X012275Y010192D01*
X012275Y010251D02*
X007665Y010251D01*
X007606Y010309D02*
X012334Y010309D01*
X012556Y010309D02*
X012934Y010309D01*
X012975Y010350D02*
X012875Y010250D01*
X012875Y010110D01*
X012975Y010010D01*
X013115Y010010D01*
X013215Y010110D01*
X013215Y010250D01*
X013115Y010350D01*
X012975Y010350D01*
X012875Y010251D02*
X012615Y010251D01*
X012615Y010192D02*
X012875Y010192D01*
X012875Y010134D02*
X012615Y010134D01*
X012580Y010075D02*
X012910Y010075D01*
X012968Y010017D02*
X012522Y010017D01*
X012368Y010017D02*
X009290Y010017D01*
X009290Y009958D02*
X019735Y009958D01*
X019735Y009900D02*
X009290Y009900D01*
X009246Y009841D02*
X019735Y009841D01*
X019722Y010017D02*
X019735Y010017D01*
X019568Y010017D02*
X019122Y010017D01*
X019115Y010010D02*
X019215Y010110D01*
X019215Y010250D01*
X019115Y010350D01*
X018975Y010350D01*
X018875Y010250D01*
X018875Y010110D01*
X018975Y010010D01*
X019115Y010010D01*
X019180Y010075D02*
X019510Y010075D01*
X019475Y010134D02*
X019215Y010134D01*
X019215Y010192D02*
X019475Y010192D01*
X019475Y010251D02*
X019215Y010251D01*
X019156Y010309D02*
X019534Y010309D01*
X019735Y010368D02*
X000325Y010368D01*
X000325Y010426D02*
X016690Y010426D01*
X016690Y010407D02*
X016722Y010375D01*
X018318Y010375D01*
X018350Y010407D01*
X018350Y011153D01*
X018318Y011185D01*
X016722Y011185D01*
X016690Y011153D01*
X016690Y011107D01*
X016690Y010453D01*
X016690Y010407D01*
X016715Y010350D02*
X016575Y010350D01*
X016475Y010250D01*
X016475Y010110D01*
X016575Y010010D01*
X016715Y010010D01*
X016815Y010110D01*
X016815Y010250D01*
X016715Y010350D01*
X016756Y010309D02*
X017134Y010309D01*
X017175Y010350D02*
X017075Y010250D01*
X017075Y010110D01*
X017175Y010010D01*
X017315Y010010D01*
X017415Y010110D01*
X017415Y010250D01*
X017315Y010350D01*
X017175Y010350D01*
X017075Y010251D02*
X016815Y010251D01*
X016815Y010192D02*
X017075Y010192D01*
X017075Y010134D02*
X016815Y010134D01*
X016780Y010075D02*
X017110Y010075D01*
X017168Y010017D02*
X016722Y010017D01*
X016568Y010017D02*
X016122Y010017D01*
X016115Y010010D02*
X016215Y010110D01*
X016215Y010250D01*
X016115Y010350D01*
X015975Y010350D01*
X015875Y010250D01*
X015875Y010110D01*
X015975Y010010D01*
X016115Y010010D01*
X016180Y010075D02*
X016510Y010075D01*
X016475Y010134D02*
X016215Y010134D01*
X016215Y010192D02*
X016475Y010192D01*
X016475Y010251D02*
X016215Y010251D01*
X016156Y010309D02*
X016534Y010309D01*
X016690Y010485D02*
X000325Y010485D01*
X000325Y010543D02*
X005108Y010543D01*
X005170Y010517D02*
X005320Y010517D01*
X005458Y010574D01*
X005563Y010680D01*
X005620Y010818D01*
X005620Y010967D01*
X005563Y011105D01*
X005458Y011211D01*
X005320Y011268D01*
X005170Y011268D01*
X005032Y011211D01*
X004927Y011105D01*
X004870Y010967D01*
X004870Y010818D01*
X004927Y010680D01*
X005032Y010574D01*
X005170Y010517D01*
X005005Y010602D02*
X000325Y010602D01*
X000325Y010660D02*
X004947Y010660D01*
X004911Y010719D02*
X000325Y010719D01*
X000325Y010777D02*
X004887Y010777D01*
X004870Y010836D02*
X000325Y010836D01*
X000325Y010894D02*
X004870Y010894D01*
X004870Y010953D02*
X000325Y010953D01*
X000325Y011011D02*
X004888Y011011D01*
X004912Y011070D02*
X000325Y011070D01*
X000325Y011128D02*
X004950Y011128D01*
X005008Y011187D02*
X000325Y011187D01*
X000325Y011245D02*
X005115Y011245D01*
X005375Y011245D02*
X006115Y011245D01*
X006170Y011268D02*
X006032Y011211D01*
X005927Y011105D01*
X005870Y010967D01*
X005870Y010818D01*
X005927Y010680D01*
X006032Y010574D01*
X006170Y010517D01*
X006320Y010517D01*
X006458Y010574D01*
X006563Y010680D01*
X006620Y010818D01*
X006620Y010967D01*
X006563Y011105D01*
X006458Y011211D01*
X006320Y011268D01*
X006170Y011268D01*
X006008Y011187D02*
X005482Y011187D01*
X005540Y011128D02*
X005950Y011128D01*
X005912Y011070D02*
X005578Y011070D01*
X005602Y011011D02*
X005888Y011011D01*
X005870Y010953D02*
X005620Y010953D01*
X005620Y010894D02*
X005870Y010894D01*
X005870Y010836D02*
X005620Y010836D01*
X005603Y010777D02*
X005887Y010777D01*
X005911Y010719D02*
X005579Y010719D01*
X005543Y010660D02*
X005947Y010660D01*
X006005Y010602D02*
X005485Y010602D01*
X005382Y010543D02*
X006108Y010543D01*
X006382Y010543D02*
X007108Y010543D01*
X007170Y010517D02*
X007320Y010517D01*
X007458Y010574D01*
X007563Y010680D01*
X007620Y010818D01*
X007620Y010967D01*
X007563Y011105D01*
X007458Y011211D01*
X007320Y011268D01*
X007170Y011268D01*
X007032Y011211D01*
X006927Y011105D01*
X006870Y010967D01*
X006870Y010818D01*
X006927Y010680D01*
X007032Y010574D01*
X007170Y010517D01*
X007005Y010602D02*
X006485Y010602D01*
X006543Y010660D02*
X006947Y010660D01*
X006911Y010719D02*
X006579Y010719D01*
X006603Y010777D02*
X006887Y010777D01*
X006870Y010836D02*
X006620Y010836D01*
X006620Y010894D02*
X006870Y010894D01*
X006870Y010953D02*
X006620Y010953D01*
X006602Y011011D02*
X006888Y011011D01*
X006912Y011070D02*
X006578Y011070D01*
X006540Y011128D02*
X006950Y011128D01*
X007008Y011187D02*
X006482Y011187D01*
X006375Y011245D02*
X007115Y011245D01*
X007375Y011245D02*
X008115Y011245D01*
X008170Y011268D02*
X008032Y011211D01*
X007927Y011105D01*
X007870Y010967D01*
X007870Y010818D01*
X007927Y010680D01*
X008032Y010574D01*
X008170Y010517D01*
X008320Y010517D01*
X008458Y010574D01*
X008563Y010680D01*
X008620Y010818D01*
X008620Y010967D01*
X008563Y011105D01*
X008458Y011211D01*
X008320Y011268D01*
X008170Y011268D01*
X008008Y011187D02*
X007482Y011187D01*
X007540Y011128D02*
X007950Y011128D01*
X007912Y011070D02*
X007578Y011070D01*
X007602Y011011D02*
X007888Y011011D01*
X007870Y010953D02*
X007620Y010953D01*
X007620Y010894D02*
X007870Y010894D01*
X007870Y010836D02*
X007620Y010836D01*
X007603Y010777D02*
X007887Y010777D01*
X007911Y010719D02*
X007579Y010719D01*
X007543Y010660D02*
X007947Y010660D01*
X008005Y010602D02*
X007485Y010602D01*
X007382Y010543D02*
X008108Y010543D01*
X008382Y010543D02*
X009108Y010543D01*
X009170Y010517D02*
X009320Y010517D01*
X009458Y010574D01*
X009563Y010680D01*
X009620Y010818D01*
X009620Y010967D01*
X009563Y011105D01*
X009458Y011211D01*
X009320Y011268D01*
X009170Y011268D01*
X009032Y011211D01*
X008927Y011105D01*
X008870Y010967D01*
X008870Y010818D01*
X008927Y010680D01*
X009032Y010574D01*
X009170Y010517D01*
X009005Y010602D02*
X008485Y010602D01*
X008543Y010660D02*
X008947Y010660D01*
X008911Y010719D02*
X008579Y010719D01*
X008603Y010777D02*
X008887Y010777D01*
X008870Y010836D02*
X008620Y010836D01*
X008620Y010894D02*
X008870Y010894D01*
X008870Y010953D02*
X008620Y010953D01*
X008602Y011011D02*
X008888Y011011D01*
X008912Y011070D02*
X008578Y011070D01*
X008540Y011128D02*
X008950Y011128D01*
X009008Y011187D02*
X008482Y011187D01*
X008375Y011245D02*
X009115Y011245D01*
X009375Y011245D02*
X010115Y011245D01*
X010170Y011268D02*
X010032Y011211D01*
X009927Y011105D01*
X009870Y010967D01*
X009870Y010818D01*
X009927Y010680D01*
X010032Y010574D01*
X010170Y010517D01*
X010320Y010517D01*
X010458Y010574D01*
X010563Y010680D01*
X010620Y010818D01*
X010620Y010967D01*
X010563Y011105D01*
X010458Y011211D01*
X010320Y011268D01*
X010170Y011268D01*
X010008Y011187D02*
X009482Y011187D01*
X009540Y011128D02*
X009950Y011128D01*
X009912Y011070D02*
X009578Y011070D01*
X009602Y011011D02*
X009888Y011011D01*
X009870Y010953D02*
X009620Y010953D01*
X009620Y010894D02*
X009870Y010894D01*
X009870Y010836D02*
X009620Y010836D01*
X009603Y010777D02*
X009887Y010777D01*
X009911Y010719D02*
X009579Y010719D01*
X009543Y010660D02*
X009947Y010660D01*
X010005Y010602D02*
X009485Y010602D01*
X009382Y010543D02*
X010108Y010543D01*
X010382Y010543D02*
X016690Y010543D01*
X016690Y010602D02*
X016407Y010602D01*
X016390Y010585D02*
X016490Y010685D01*
X016490Y010825D01*
X016390Y010925D01*
X016250Y010925D01*
X016150Y010825D01*
X016150Y010685D01*
X016250Y010585D01*
X016390Y010585D01*
X016465Y010660D02*
X016690Y010660D01*
X016690Y010719D02*
X016490Y010719D01*
X016490Y010777D02*
X016690Y010777D01*
X016690Y010836D02*
X016480Y010836D01*
X016421Y010894D02*
X016690Y010894D01*
X016690Y010953D02*
X010620Y010953D01*
X010620Y010894D02*
X016219Y010894D01*
X016160Y010836D02*
X010620Y010836D01*
X010603Y010777D02*
X016150Y010777D01*
X016150Y010719D02*
X010579Y010719D01*
X010543Y010660D02*
X016175Y010660D01*
X016233Y010602D02*
X010485Y010602D01*
X010602Y011011D02*
X016690Y011011D01*
X016690Y011070D02*
X010578Y011070D01*
X010540Y011128D02*
X016690Y011128D01*
X016790Y011245D02*
X016450Y011245D01*
X016490Y011285D02*
X016390Y011185D01*
X016250Y011185D01*
X016150Y011285D01*
X016150Y011425D01*
X016250Y011525D01*
X016390Y011525D01*
X016490Y011425D01*
X016490Y011285D01*
X016490Y011304D02*
X016750Y011304D01*
X016750Y011285D02*
X016850Y011185D01*
X016990Y011185D01*
X017090Y011285D01*
X017090Y011425D01*
X016990Y011525D01*
X016850Y011525D01*
X016750Y011425D01*
X016750Y011285D01*
X016750Y011362D02*
X016490Y011362D01*
X016490Y011421D02*
X016750Y011421D01*
X016804Y011479D02*
X016436Y011479D01*
X016204Y011479D02*
X000325Y011479D01*
X000325Y011421D02*
X016150Y011421D01*
X016150Y011362D02*
X000325Y011362D01*
X000325Y011304D02*
X016150Y011304D01*
X016190Y011245D02*
X010375Y011245D01*
X010482Y011187D02*
X016248Y011187D01*
X016392Y011187D02*
X016848Y011187D01*
X016992Y011187D02*
X017448Y011187D01*
X017450Y011185D02*
X017590Y011185D01*
X017690Y011285D01*
X017690Y011425D01*
X017590Y011525D01*
X017450Y011525D01*
X017350Y011425D01*
X017350Y011285D01*
X017450Y011185D01*
X017390Y011245D02*
X017050Y011245D01*
X017090Y011304D02*
X017350Y011304D01*
X017350Y011362D02*
X017090Y011362D01*
X017090Y011421D02*
X017350Y011421D01*
X017404Y011479D02*
X017036Y011479D01*
X017636Y011479D02*
X018004Y011479D01*
X018050Y011525D02*
X017950Y011425D01*
X017950Y011285D01*
X018050Y011185D01*
X018190Y011185D01*
X018290Y011285D01*
X018290Y011425D01*
X018190Y011525D01*
X018050Y011525D01*
X017950Y011421D02*
X017690Y011421D01*
X017690Y011362D02*
X017950Y011362D01*
X017950Y011304D02*
X017690Y011304D01*
X017650Y011245D02*
X017990Y011245D01*
X018048Y011187D02*
X017592Y011187D01*
X018192Y011187D02*
X018648Y011187D01*
X018650Y011185D02*
X018790Y011185D01*
X018890Y011285D01*
X018890Y011425D01*
X018790Y011525D01*
X018650Y011525D01*
X018550Y011425D01*
X018550Y011285D01*
X018650Y011185D01*
X018590Y011245D02*
X018250Y011245D01*
X018290Y011304D02*
X018550Y011304D01*
X018550Y011362D02*
X018290Y011362D01*
X018290Y011421D02*
X018550Y011421D01*
X018604Y011479D02*
X018236Y011479D01*
X018350Y011128D02*
X019735Y011128D01*
X019735Y011070D02*
X018350Y011070D01*
X018350Y011011D02*
X019735Y011011D01*
X019735Y010953D02*
X018350Y010953D01*
X018350Y010894D02*
X018619Y010894D01*
X018650Y010925D02*
X018550Y010825D01*
X018550Y010685D01*
X018650Y010585D01*
X018790Y010585D01*
X018890Y010685D01*
X018890Y010825D01*
X018790Y010925D01*
X018650Y010925D01*
X018560Y010836D02*
X018350Y010836D01*
X018350Y010777D02*
X018550Y010777D01*
X018550Y010719D02*
X018350Y010719D01*
X018350Y010660D02*
X018575Y010660D01*
X018633Y010602D02*
X018350Y010602D01*
X018350Y010543D02*
X019735Y010543D01*
X019735Y010485D02*
X018350Y010485D01*
X018350Y010426D02*
X019735Y010426D01*
X019735Y010602D02*
X018807Y010602D01*
X018865Y010660D02*
X019735Y010660D01*
X019735Y010719D02*
X018890Y010719D01*
X018890Y010777D02*
X019735Y010777D01*
X019735Y010836D02*
X018880Y010836D01*
X018821Y010894D02*
X019735Y010894D01*
X019735Y011187D02*
X018792Y011187D01*
X018850Y011245D02*
X019735Y011245D01*
X019735Y011304D02*
X018890Y011304D01*
X018890Y011362D02*
X019735Y011362D01*
X019735Y011421D02*
X018890Y011421D01*
X018836Y011479D02*
X019735Y011479D01*
X019735Y011538D02*
X010368Y011538D01*
X010320Y011517D02*
X010458Y011574D01*
X010563Y011680D01*
X010620Y011818D01*
X010620Y011967D01*
X010563Y012105D01*
X010458Y012211D01*
X010320Y012268D01*
X010170Y012268D01*
X010032Y012211D01*
X009927Y012105D01*
X009870Y011967D01*
X009870Y011818D01*
X009927Y011680D01*
X010032Y011574D01*
X010170Y011517D01*
X010320Y011517D01*
X010479Y011596D02*
X012889Y011596D01*
X012925Y011560D02*
X012825Y011660D01*
X012825Y011800D01*
X012925Y011900D01*
X013065Y011900D01*
X013165Y011800D01*
X013165Y011660D01*
X013065Y011560D01*
X012925Y011560D01*
X012830Y011655D02*
X010538Y011655D01*
X010577Y011713D02*
X012825Y011713D01*
X012825Y011772D02*
X010601Y011772D01*
X010620Y011830D02*
X012855Y011830D01*
X012913Y011889D02*
X010620Y011889D01*
X010620Y011947D02*
X013922Y011947D01*
X013875Y011900D02*
X013875Y011760D01*
X013975Y011660D01*
X014115Y011660D01*
X014170Y011715D01*
X014225Y011660D01*
X014365Y011660D01*
X014420Y011715D01*
X014475Y011660D01*
X014615Y011660D01*
X014670Y011715D01*
X014725Y011660D01*
X014865Y011660D01*
X014920Y011715D01*
X014975Y011660D01*
X015115Y011660D01*
X015215Y011760D01*
X015215Y011900D01*
X015115Y012000D01*
X014975Y012000D01*
X014920Y011945D01*
X014865Y012000D01*
X014725Y012000D01*
X014670Y011945D01*
X014615Y012000D01*
X014475Y012000D01*
X014420Y011945D01*
X014365Y012000D01*
X014225Y012000D01*
X014170Y011945D01*
X014115Y012000D01*
X013975Y012000D01*
X013875Y011900D01*
X013875Y011889D02*
X013477Y011889D01*
X013465Y011900D02*
X013325Y011900D01*
X013225Y011800D01*
X013225Y011660D01*
X013325Y011560D01*
X013465Y011560D01*
X013565Y011660D01*
X013565Y011800D01*
X013465Y011900D01*
X013535Y011830D02*
X013875Y011830D01*
X013875Y011772D02*
X013565Y011772D01*
X013565Y011713D02*
X013922Y011713D01*
X014168Y011713D02*
X014172Y011713D01*
X014168Y011947D02*
X014172Y011947D01*
X014418Y011947D02*
X014422Y011947D01*
X014418Y011713D02*
X014422Y011713D01*
X014668Y011713D02*
X014672Y011713D01*
X014668Y011947D02*
X014672Y011947D01*
X014918Y011947D02*
X014922Y011947D01*
X014918Y011713D02*
X014922Y011713D01*
X015168Y011713D02*
X019735Y011713D01*
X019735Y011655D02*
X013560Y011655D01*
X013501Y011596D02*
X019735Y011596D01*
X019735Y011772D02*
X015215Y011772D01*
X015215Y011830D02*
X019735Y011830D01*
X019735Y011889D02*
X015215Y011889D01*
X015168Y011947D02*
X019735Y011947D01*
X019735Y012006D02*
X010604Y012006D01*
X010580Y012064D02*
X019735Y012064D01*
X019735Y012123D02*
X010546Y012123D01*
X010487Y012181D02*
X019735Y012181D01*
X019735Y012240D02*
X010388Y012240D01*
X010102Y012240D02*
X009388Y012240D01*
X009320Y012268D02*
X009170Y012268D01*
X009032Y012211D01*
X008927Y012105D01*
X008870Y011967D01*
X008870Y011818D01*
X008927Y011680D01*
X009032Y011574D01*
X009170Y011517D01*
X009320Y011517D01*
X009458Y011574D01*
X009563Y011680D01*
X009620Y011818D01*
X009620Y011967D01*
X009563Y012105D01*
X009458Y012211D01*
X009320Y012268D01*
X009487Y012181D02*
X010003Y012181D01*
X009944Y012123D02*
X009546Y012123D01*
X009580Y012064D02*
X009910Y012064D01*
X009886Y012006D02*
X009604Y012006D01*
X009620Y011947D02*
X009870Y011947D01*
X009870Y011889D02*
X009620Y011889D01*
X009620Y011830D02*
X009870Y011830D01*
X009889Y011772D02*
X009601Y011772D01*
X009577Y011713D02*
X009913Y011713D01*
X009952Y011655D02*
X009538Y011655D01*
X009479Y011596D02*
X010011Y011596D01*
X010122Y011538D02*
X009368Y011538D01*
X009122Y011538D02*
X008368Y011538D01*
X008320Y011517D02*
X008458Y011574D01*
X008563Y011680D01*
X008620Y011818D01*
X008620Y011967D01*
X008563Y012105D01*
X008458Y012211D01*
X008320Y012268D01*
X008170Y012268D01*
X008032Y012211D01*
X007927Y012105D01*
X007870Y011967D01*
X007870Y011818D01*
X007927Y011680D01*
X008032Y011574D01*
X008170Y011517D01*
X008320Y011517D01*
X008479Y011596D02*
X009011Y011596D01*
X008952Y011655D02*
X008538Y011655D01*
X008577Y011713D02*
X008913Y011713D01*
X008889Y011772D02*
X008601Y011772D01*
X008620Y011830D02*
X008870Y011830D01*
X008870Y011889D02*
X008620Y011889D01*
X008620Y011947D02*
X008870Y011947D01*
X008886Y012006D02*
X008604Y012006D01*
X008580Y012064D02*
X008910Y012064D01*
X008944Y012123D02*
X008546Y012123D01*
X008487Y012181D02*
X009003Y012181D01*
X009102Y012240D02*
X008388Y012240D01*
X008102Y012240D02*
X007388Y012240D01*
X007320Y012268D02*
X007170Y012268D01*
X007032Y012211D01*
X006927Y012105D01*
X006870Y011967D01*
X006870Y011818D01*
X006927Y011680D01*
X007032Y011574D01*
X007170Y011517D01*
X007320Y011517D01*
X007458Y011574D01*
X007563Y011680D01*
X007620Y011818D01*
X007620Y011967D01*
X007563Y012105D01*
X007458Y012211D01*
X007320Y012268D01*
X007487Y012181D02*
X008003Y012181D01*
X007944Y012123D02*
X007546Y012123D01*
X007580Y012064D02*
X007910Y012064D01*
X007886Y012006D02*
X007604Y012006D01*
X007620Y011947D02*
X007870Y011947D01*
X007870Y011889D02*
X007620Y011889D01*
X007620Y011830D02*
X007870Y011830D01*
X007889Y011772D02*
X007601Y011772D01*
X007577Y011713D02*
X007913Y011713D01*
X007952Y011655D02*
X007538Y011655D01*
X007479Y011596D02*
X008011Y011596D01*
X008122Y011538D02*
X007368Y011538D01*
X007122Y011538D02*
X006368Y011538D01*
X006320Y011517D02*
X006458Y011574D01*
X006563Y011680D01*
X006620Y011818D01*
X006620Y011967D01*
X006563Y012105D01*
X006458Y012211D01*
X006320Y012268D01*
X006170Y012268D01*
X006032Y012211D01*
X005927Y012105D01*
X005870Y011967D01*
X005870Y011818D01*
X005927Y011680D01*
X006032Y011574D01*
X006170Y011517D01*
X006320Y011517D01*
X006479Y011596D02*
X007011Y011596D01*
X006952Y011655D02*
X006538Y011655D01*
X006577Y011713D02*
X006913Y011713D01*
X006889Y011772D02*
X006601Y011772D01*
X006620Y011830D02*
X006870Y011830D01*
X006870Y011889D02*
X006620Y011889D01*
X006620Y011947D02*
X006870Y011947D01*
X006886Y012006D02*
X006604Y012006D01*
X006580Y012064D02*
X006910Y012064D01*
X006944Y012123D02*
X006546Y012123D01*
X006487Y012181D02*
X007003Y012181D01*
X007102Y012240D02*
X006388Y012240D01*
X006102Y012240D02*
X005388Y012240D01*
X005320Y012268D02*
X005170Y012268D01*
X005032Y012211D01*
X004927Y012105D01*
X004870Y011967D01*
X004870Y011818D01*
X004927Y011680D01*
X005032Y011574D01*
X005170Y011517D01*
X005320Y011517D01*
X005458Y011574D01*
X005563Y011680D01*
X005620Y011818D01*
X005620Y011967D01*
X005563Y012105D01*
X005458Y012211D01*
X005320Y012268D01*
X005487Y012181D02*
X006003Y012181D01*
X005944Y012123D02*
X005546Y012123D01*
X005580Y012064D02*
X005910Y012064D01*
X005886Y012006D02*
X005604Y012006D01*
X005620Y011947D02*
X005870Y011947D01*
X005870Y011889D02*
X005620Y011889D01*
X005620Y011830D02*
X005870Y011830D01*
X005889Y011772D02*
X005601Y011772D01*
X005577Y011713D02*
X005913Y011713D01*
X005952Y011655D02*
X005538Y011655D01*
X005479Y011596D02*
X006011Y011596D01*
X006122Y011538D02*
X005368Y011538D01*
X005122Y011538D02*
X000325Y011538D01*
X000325Y011596D02*
X002339Y011596D01*
X002375Y011560D02*
X002515Y011560D01*
X002615Y011660D01*
X002615Y011800D01*
X002515Y011900D01*
X002375Y011900D01*
X002275Y011800D01*
X002275Y011660D01*
X002375Y011560D01*
X002280Y011655D02*
X000325Y011655D01*
X000325Y011713D02*
X002275Y011713D01*
X002275Y011772D02*
X000325Y011772D01*
X000325Y011830D02*
X002305Y011830D01*
X002363Y011889D02*
X000325Y011889D01*
X000325Y011947D02*
X004870Y011947D01*
X004870Y011889D02*
X002527Y011889D01*
X002585Y011830D02*
X004870Y011830D01*
X004889Y011772D02*
X002615Y011772D01*
X002615Y011713D02*
X004913Y011713D01*
X004952Y011655D02*
X002610Y011655D01*
X002551Y011596D02*
X005011Y011596D01*
X004886Y012006D02*
X000325Y012006D01*
X000325Y012064D02*
X004910Y012064D01*
X004944Y012123D02*
X000325Y012123D01*
X000325Y012181D02*
X005003Y012181D01*
X005102Y012240D02*
X000325Y012240D01*
X000325Y012298D02*
X019735Y012298D01*
X019735Y012357D02*
X000325Y012357D01*
X000325Y012415D02*
X019735Y012415D01*
X019735Y012474D02*
X000325Y012474D01*
X000325Y012532D02*
X014203Y012532D01*
X014225Y012510D02*
X014365Y012510D01*
X014465Y012610D01*
X014465Y012750D01*
X014365Y012850D01*
X014225Y012850D01*
X014125Y012750D01*
X014125Y012610D01*
X014225Y012510D01*
X014144Y012591D02*
X000325Y012591D01*
X000326Y012649D02*
X014125Y012649D01*
X014125Y012708D02*
X000328Y012708D01*
X000331Y012766D02*
X014141Y012766D01*
X014199Y012825D02*
X007580Y012825D01*
X007565Y012810D02*
X007665Y012910D01*
X007665Y013050D01*
X007565Y013150D01*
X007425Y013150D01*
X007325Y013050D01*
X007325Y012910D01*
X007425Y012810D01*
X007565Y012810D01*
X007638Y012883D02*
X019720Y012883D01*
X019724Y012825D02*
X014391Y012825D01*
X014449Y012766D02*
X019727Y012766D01*
X019730Y012708D02*
X014465Y012708D01*
X014465Y012649D02*
X019734Y012649D01*
X019735Y012591D02*
X014446Y012591D01*
X014387Y012532D02*
X019735Y012532D01*
X019711Y012942D02*
X007665Y012942D01*
X007665Y013000D02*
X019699Y013000D01*
X019687Y013059D02*
X007657Y013059D01*
X007598Y013117D02*
X019675Y013117D01*
X019663Y013176D02*
X004631Y013176D01*
X004615Y013160D02*
X004715Y013260D01*
X004715Y013400D01*
X004615Y013500D01*
X004475Y013500D01*
X004375Y013400D01*
X004375Y013260D01*
X004475Y013160D01*
X004615Y013160D01*
X004689Y013234D02*
X014086Y013234D01*
X014135Y013185D02*
X014035Y013285D01*
X014035Y013425D01*
X014135Y013525D01*
X014275Y013525D01*
X014320Y013480D01*
X014365Y013525D01*
X014505Y013525D01*
X014605Y013425D01*
X014605Y013285D01*
X014505Y013185D01*
X014365Y013185D01*
X014320Y013230D01*
X014275Y013185D01*
X014135Y013185D01*
X014035Y013293D02*
X004715Y013293D01*
X004715Y013351D02*
X014035Y013351D01*
X014035Y013410D02*
X004706Y013410D01*
X004647Y013468D02*
X014078Y013468D01*
X014562Y013468D02*
X017692Y013468D01*
X017634Y013527D02*
X002456Y013527D01*
X002490Y013560D02*
X002584Y013788D01*
X002584Y014034D01*
X002490Y014262D01*
X002315Y014437D01*
X002087Y014531D01*
X001841Y014531D01*
X001613Y014437D01*
X001438Y014262D01*
X001344Y014034D01*
X001344Y013788D01*
X001438Y013560D01*
X001613Y013385D01*
X001841Y013291D01*
X002087Y013291D01*
X002315Y013385D01*
X002490Y013560D01*
X002500Y013585D02*
X017590Y013585D01*
X017600Y013560D02*
X017775Y013385D01*
X018003Y013291D01*
X018249Y013291D01*
X018477Y013385D01*
X018652Y013560D01*
X018746Y013788D01*
X018746Y014034D01*
X018652Y014262D01*
X018477Y014437D01*
X018249Y014531D01*
X018003Y014531D01*
X017775Y014437D01*
X017600Y014262D01*
X017506Y014034D01*
X017506Y013788D01*
X017600Y013560D01*
X017566Y013644D02*
X002524Y013644D01*
X002548Y013702D02*
X017542Y013702D01*
X017517Y013761D02*
X002573Y013761D01*
X002584Y013819D02*
X017506Y013819D01*
X017506Y013878D02*
X002584Y013878D01*
X002584Y013936D02*
X017506Y013936D01*
X017506Y013995D02*
X002584Y013995D01*
X002576Y014053D02*
X017514Y014053D01*
X017538Y014112D02*
X002552Y014112D01*
X002528Y014170D02*
X017562Y014170D01*
X017587Y014229D02*
X002503Y014229D01*
X002465Y014287D02*
X017625Y014287D01*
X017684Y014346D02*
X002406Y014346D01*
X002348Y014404D02*
X017742Y014404D01*
X017837Y014463D02*
X002253Y014463D01*
X002111Y014521D02*
X017979Y014521D01*
X018274Y014521D02*
X018974Y014521D01*
X019033Y014463D02*
X018415Y014463D01*
X018510Y014404D02*
X019088Y014404D01*
X019127Y014346D02*
X018568Y014346D01*
X018627Y014287D02*
X019167Y014287D01*
X019207Y014229D02*
X018666Y014229D01*
X018690Y014170D02*
X019247Y014170D01*
X019286Y014112D02*
X018714Y014112D01*
X018738Y014053D02*
X019326Y014053D01*
X019366Y013995D02*
X018746Y013995D01*
X018746Y013936D02*
X019400Y013936D01*
X019424Y013878D02*
X018746Y013878D01*
X018746Y013819D02*
X019449Y013819D01*
X019474Y013761D02*
X018735Y013761D01*
X018711Y013702D02*
X019499Y013702D01*
X019523Y013644D02*
X018686Y013644D01*
X018662Y013585D02*
X019548Y013585D01*
X019573Y013527D02*
X018618Y013527D01*
X018560Y013468D02*
X019598Y013468D01*
X019614Y013410D02*
X018501Y013410D01*
X018394Y013351D02*
X019627Y013351D01*
X019639Y013293D02*
X018253Y013293D01*
X017999Y013293D02*
X014605Y013293D01*
X014605Y013351D02*
X017858Y013351D01*
X017751Y013410D02*
X014605Y013410D01*
X014554Y013234D02*
X019651Y013234D01*
X018914Y014580D02*
X001121Y014580D01*
X001179Y014638D02*
X018855Y014638D01*
X018795Y014697D02*
X001237Y014697D01*
X001295Y014755D02*
X018736Y014755D01*
X018674Y014814D02*
X001363Y014814D01*
X001449Y014872D02*
X018585Y014872D01*
X018496Y014931D02*
X001535Y014931D01*
X001621Y014989D02*
X018407Y014989D01*
X018318Y015048D02*
X001708Y015048D01*
X001800Y015106D02*
X018229Y015106D01*
X018092Y015165D02*
X001938Y015165D01*
X002077Y015223D02*
X017947Y015223D01*
X017803Y015282D02*
X002216Y015282D01*
X002423Y015340D02*
X017610Y015340D01*
X017304Y015399D02*
X002707Y015399D01*
X001816Y014521D02*
X001064Y014521D01*
X001006Y014463D02*
X001675Y014463D01*
X001580Y014404D02*
X000948Y014404D01*
X000909Y014346D02*
X001522Y014346D01*
X001463Y014287D02*
X000871Y014287D01*
X000832Y014229D02*
X001424Y014229D01*
X001400Y014170D02*
X000794Y014170D01*
X000755Y014112D02*
X001376Y014112D01*
X001352Y014053D02*
X000717Y014053D01*
X000678Y013995D02*
X001344Y013995D01*
X001344Y013936D02*
X000642Y013936D01*
X000618Y013878D02*
X001344Y013878D01*
X001344Y013819D02*
X000594Y013819D01*
X000571Y013761D02*
X001355Y013761D01*
X001379Y013702D02*
X000547Y013702D01*
X000523Y013644D02*
X001404Y013644D01*
X001428Y013585D02*
X000499Y013585D01*
X000476Y013527D02*
X001472Y013527D01*
X001530Y013468D02*
X000452Y013468D01*
X000434Y013410D02*
X001589Y013410D01*
X001696Y013351D02*
X000423Y013351D01*
X000412Y013293D02*
X001837Y013293D01*
X002091Y013293D02*
X004375Y013293D01*
X004375Y013351D02*
X002232Y013351D01*
X002339Y013410D02*
X004384Y013410D01*
X004443Y013468D02*
X002398Y013468D01*
X000401Y013234D02*
X004401Y013234D01*
X004459Y013176D02*
X000389Y013176D01*
X000378Y013117D02*
X005992Y013117D01*
X006025Y013150D02*
X005925Y013050D01*
X005925Y012910D01*
X006025Y012810D01*
X006165Y012810D01*
X006265Y012910D01*
X006265Y013050D01*
X006165Y013150D01*
X006025Y013150D01*
X005933Y013059D02*
X000367Y013059D01*
X000356Y013000D02*
X005925Y013000D01*
X005925Y012942D02*
X000344Y012942D01*
X000336Y012883D02*
X005952Y012883D01*
X006010Y012825D02*
X000333Y012825D01*
X000325Y010309D02*
X007434Y010309D01*
X007375Y010251D02*
X000325Y010251D01*
X000325Y010192D02*
X007350Y010192D01*
X007350Y010134D02*
X000325Y010134D01*
X000325Y010075D02*
X007360Y010075D01*
X007418Y010017D02*
X000325Y010017D01*
X000325Y009724D02*
X012349Y009724D01*
X012375Y009750D02*
X012275Y009650D01*
X012275Y009510D01*
X012375Y009410D01*
X012515Y009410D01*
X012615Y009510D01*
X012615Y009650D01*
X012515Y009750D01*
X012375Y009750D01*
X012290Y009666D02*
X000325Y009666D01*
X000325Y009607D02*
X012275Y009607D01*
X012275Y009549D02*
X000325Y009549D01*
X000325Y009490D02*
X012295Y009490D01*
X012353Y009432D02*
X000325Y009432D01*
X000325Y009139D02*
X007489Y009139D01*
X007430Y009081D02*
X000325Y009081D01*
X000325Y009022D02*
X007400Y009022D01*
X007400Y008964D02*
X000325Y008964D01*
X000325Y008905D02*
X007405Y008905D01*
X007463Y008847D02*
X000325Y008847D01*
X000325Y008788D02*
X002263Y008788D01*
X002204Y008730D02*
X000325Y008730D01*
X000325Y008671D02*
X002175Y008671D01*
X002175Y008613D02*
X000325Y008613D01*
X000325Y008554D02*
X002181Y008554D01*
X002239Y008496D02*
X000325Y008496D01*
X001340Y007326D02*
X001400Y007326D01*
X001590Y007326D02*
X012350Y007326D01*
X012292Y007267D02*
X001648Y007267D01*
X001665Y007209D02*
X012275Y007209D01*
X012275Y007150D02*
X001665Y007150D01*
X001666Y007092D02*
X001647Y007092D01*
X001824Y007092D02*
X001916Y007092D01*
X002074Y007092D02*
X012293Y007092D01*
X012352Y007033D02*
X002132Y007033D01*
X002165Y006975D02*
X006624Y006975D01*
X006566Y006916D02*
X002165Y006916D01*
X002163Y006858D02*
X006550Y006858D01*
X006550Y006799D02*
X002104Y006799D01*
X001886Y006799D02*
X001854Y006799D01*
X001636Y006799D02*
X001604Y006799D01*
X001386Y006799D02*
X001354Y006799D01*
X000325Y005629D02*
X012979Y005629D01*
X012925Y005571D02*
X000325Y005571D01*
X000325Y004927D02*
X004177Y004927D01*
X004125Y004869D02*
X000325Y004869D01*
X000325Y004810D02*
X004125Y004810D01*
X004125Y004752D02*
X000325Y004752D01*
X000325Y004342D02*
X005017Y004342D01*
X004975Y004300D02*
X004975Y004160D01*
X005075Y004060D01*
X005215Y004060D01*
X005315Y004160D01*
X005315Y004300D01*
X005215Y004400D01*
X005075Y004400D01*
X004975Y004300D01*
X004975Y004284D02*
X000325Y004284D01*
X000325Y004225D02*
X004975Y004225D01*
X004975Y004167D02*
X000325Y004167D01*
X000325Y004108D02*
X005027Y004108D01*
X005075Y003900D02*
X004975Y003800D01*
X004975Y003660D01*
X005075Y003560D01*
X005215Y003560D01*
X005315Y003660D01*
X005315Y003800D01*
X005215Y003900D01*
X005075Y003900D01*
X005049Y003874D02*
X000325Y003874D01*
X000325Y003816D02*
X004990Y003816D01*
X004975Y003757D02*
X000325Y003757D01*
X000325Y003699D02*
X004975Y003699D01*
X004995Y003640D02*
X000325Y003640D01*
X000325Y003582D02*
X005053Y003582D01*
X005237Y003582D02*
X005553Y003582D01*
X005575Y003560D02*
X005715Y003560D01*
X005815Y003660D01*
X005815Y003800D01*
X005715Y003900D01*
X005575Y003900D01*
X005475Y003800D01*
X005475Y003660D01*
X005575Y003560D01*
X005495Y003640D02*
X005295Y003640D01*
X005315Y003699D02*
X005475Y003699D01*
X005475Y003757D02*
X005315Y003757D01*
X005300Y003816D02*
X005490Y003816D01*
X005549Y003874D02*
X005241Y003874D01*
X005263Y004108D02*
X005527Y004108D01*
X005475Y004167D02*
X005315Y004167D01*
X005315Y004225D02*
X005475Y004225D01*
X005475Y004284D02*
X005315Y004284D01*
X005273Y004342D02*
X005517Y004342D01*
X005815Y004225D02*
X006400Y004225D01*
X006341Y004167D02*
X005815Y004167D01*
X005763Y004108D02*
X006325Y004108D01*
X006325Y004050D02*
X000325Y004050D01*
X000325Y003991D02*
X006344Y003991D01*
X006402Y003933D02*
X000325Y003933D01*
X000325Y003172D02*
X003997Y003172D01*
X003938Y003114D02*
X000326Y003114D01*
X000329Y003055D02*
X001530Y003055D01*
X001475Y002997D02*
X000332Y002997D01*
X000334Y002938D02*
X001475Y002938D01*
X001475Y002880D02*
X000337Y002880D01*
X000345Y002821D02*
X001514Y002821D01*
X001572Y002763D02*
X000357Y002763D01*
X000392Y002587D02*
X006775Y002587D01*
X006775Y002529D02*
X000403Y002529D01*
X000415Y002470D02*
X006775Y002470D01*
X006823Y002412D02*
X000427Y002412D01*
X000438Y002353D02*
X001802Y002353D01*
X001661Y002295D02*
X000453Y002295D01*
X000478Y002236D02*
X001574Y002236D01*
X001516Y002178D02*
X000502Y002178D01*
X000526Y002119D02*
X001457Y002119D01*
X001422Y002061D02*
X000550Y002061D01*
X000575Y002002D02*
X001398Y002002D01*
X001373Y001944D02*
X000599Y001944D01*
X000623Y001885D02*
X001349Y001885D01*
X001344Y001827D02*
X000647Y001827D01*
X000680Y001768D02*
X001344Y001768D01*
X001344Y001710D02*
X000719Y001710D01*
X000758Y001651D02*
X001344Y001651D01*
X001358Y001593D02*
X000797Y001593D01*
X000836Y001534D02*
X001382Y001534D01*
X001406Y001476D02*
X000875Y001476D01*
X000914Y001417D02*
X001430Y001417D01*
X001477Y001359D02*
X000953Y001359D01*
X001006Y001300D02*
X001536Y001300D01*
X001594Y001242D02*
X001065Y001242D01*
X001123Y001183D02*
X001710Y001183D01*
X001533Y000832D02*
X018698Y000832D01*
X018785Y000891D02*
X001445Y000891D01*
X001358Y000949D02*
X018844Y000949D01*
X018903Y001008D02*
X001299Y001008D01*
X001620Y000774D02*
X018609Y000774D01*
X018521Y000715D02*
X001708Y000715D01*
X001795Y000657D02*
X018433Y000657D01*
X018333Y000598D02*
X001924Y000598D01*
X002065Y000540D02*
X018190Y000540D01*
X018048Y000481D02*
X002207Y000481D01*
X002371Y000423D02*
X017905Y000423D01*
X017616Y000364D02*
X002665Y000364D01*
X002218Y001183D02*
X017872Y001183D01*
X017757Y001242D02*
X002333Y001242D01*
X002392Y001300D02*
X017698Y001300D01*
X017071Y000310D02*
X017071Y000310D01*
X015033Y002002D02*
X013132Y002002D01*
X013190Y002061D02*
X015025Y002061D01*
X015025Y002119D02*
X013190Y002119D01*
X013333Y002178D02*
X015052Y002178D01*
X014915Y002810D02*
X014775Y002810D01*
X014675Y002910D01*
X014675Y003050D01*
X014775Y003150D01*
X014915Y003150D01*
X015015Y003050D01*
X015015Y002910D01*
X014915Y002810D01*
X014926Y002821D02*
X015364Y002821D01*
X015375Y002810D02*
X015515Y002810D01*
X015615Y002910D01*
X015615Y003050D01*
X015515Y003150D01*
X015375Y003150D01*
X015275Y003050D01*
X015275Y002910D01*
X015375Y002810D01*
X015305Y002880D02*
X014985Y002880D01*
X015015Y002938D02*
X015275Y002938D01*
X015275Y002997D02*
X015015Y002997D01*
X015010Y003055D02*
X015280Y003055D01*
X015338Y003114D02*
X014952Y003114D01*
X014738Y003114D02*
X014352Y003114D01*
X014315Y003150D02*
X014175Y003150D01*
X014075Y003050D01*
X014075Y002910D01*
X014175Y002810D01*
X014315Y002810D01*
X014415Y002910D01*
X014415Y003050D01*
X014315Y003150D01*
X014410Y003055D02*
X014680Y003055D01*
X014675Y002997D02*
X014415Y002997D01*
X014415Y002938D02*
X014675Y002938D01*
X014705Y002880D02*
X014385Y002880D01*
X014326Y002821D02*
X014496Y002821D01*
X014694Y002821D02*
X014764Y002821D01*
X014164Y002821D02*
X013726Y002821D01*
X013715Y002810D02*
X013815Y002910D01*
X013815Y003050D01*
X013715Y003150D01*
X013575Y003150D01*
X013475Y003050D01*
X013475Y002910D01*
X013575Y002810D01*
X013715Y002810D01*
X013785Y002880D02*
X014105Y002880D01*
X014075Y002938D02*
X013815Y002938D01*
X013815Y002997D02*
X014075Y002997D01*
X014080Y003055D02*
X013810Y003055D01*
X013752Y003114D02*
X014138Y003114D01*
X013538Y003114D02*
X013152Y003114D01*
X013115Y003150D02*
X012975Y003150D01*
X012875Y003050D01*
X012875Y002910D01*
X012975Y002810D01*
X013115Y002810D01*
X013215Y002910D01*
X013215Y003050D01*
X013115Y003150D01*
X013210Y003055D02*
X013480Y003055D01*
X013475Y002997D02*
X013215Y002997D01*
X013215Y002938D02*
X013475Y002938D01*
X013505Y002880D02*
X013185Y002880D01*
X013126Y002821D02*
X013564Y002821D01*
X012964Y002821D02*
X012576Y002821D01*
X012635Y002880D02*
X012905Y002880D01*
X012875Y002938D02*
X012665Y002938D01*
X012665Y002997D02*
X012875Y002997D01*
X012880Y003055D02*
X012660Y003055D01*
X012602Y003114D02*
X012938Y003114D01*
X012293Y004869D02*
X012049Y004869D01*
X012107Y004927D02*
X012352Y004927D01*
X012568Y005863D02*
X014975Y005863D01*
X014975Y005922D02*
X012615Y005922D01*
X012615Y005980D02*
X014975Y005980D01*
X015013Y006039D02*
X012615Y006039D01*
X012307Y006682D02*
X010362Y006682D01*
X010415Y006741D02*
X012365Y006741D01*
X012523Y007618D02*
X014325Y007618D01*
X014325Y007677D02*
X012582Y007677D01*
X012615Y007735D02*
X014360Y007735D01*
X014418Y007794D02*
X012615Y007794D01*
X012613Y007852D02*
X015452Y007852D01*
X015475Y007875D02*
X015375Y007775D01*
X015375Y007635D01*
X015475Y007535D01*
X015615Y007535D01*
X015715Y007635D01*
X015715Y007775D01*
X015615Y007875D01*
X015475Y007875D01*
X015393Y007794D02*
X014572Y007794D01*
X014630Y007735D02*
X015375Y007735D01*
X015375Y007677D02*
X014665Y007677D01*
X014665Y007618D02*
X015392Y007618D01*
X015450Y007560D02*
X014665Y007560D01*
X014606Y007501D02*
X019735Y007501D01*
X019735Y007560D02*
X018815Y007560D01*
X018765Y007510D02*
X018865Y007610D01*
X018865Y007750D01*
X018765Y007850D01*
X018625Y007850D01*
X018525Y007750D01*
X018525Y007610D01*
X018625Y007510D01*
X018765Y007510D01*
X018865Y007618D02*
X019567Y007618D01*
X019508Y007677D02*
X018865Y007677D01*
X018865Y007735D02*
X019475Y007735D01*
X019475Y007794D02*
X018822Y007794D01*
X018568Y007794D02*
X015697Y007794D01*
X015715Y007735D02*
X018525Y007735D01*
X018525Y007677D02*
X015715Y007677D01*
X015698Y007618D02*
X018525Y007618D01*
X018575Y007560D02*
X015640Y007560D01*
X015638Y007852D02*
X019477Y007852D01*
X019535Y007911D02*
X012555Y007911D01*
X012338Y008847D02*
X011069Y008847D01*
X011010Y008905D02*
X012280Y008905D01*
X012537Y009432D02*
X017153Y009432D01*
X017095Y009490D02*
X012595Y009490D01*
X012615Y009549D02*
X017075Y009549D01*
X017075Y009607D02*
X012615Y009607D01*
X012600Y009666D02*
X017090Y009666D01*
X017149Y009724D02*
X012541Y009724D01*
X013122Y010017D02*
X013568Y010017D01*
X013575Y010010D02*
X013715Y010010D01*
X013815Y010110D01*
X013815Y010250D01*
X013715Y010350D01*
X013575Y010350D01*
X013475Y010250D01*
X013475Y010110D01*
X013575Y010010D01*
X013510Y010075D02*
X013180Y010075D01*
X013215Y010134D02*
X013475Y010134D01*
X013475Y010192D02*
X013215Y010192D01*
X013215Y010251D02*
X013475Y010251D01*
X013534Y010309D02*
X013156Y010309D01*
X013756Y010309D02*
X014134Y010309D01*
X014175Y010350D02*
X014075Y010250D01*
X014075Y010110D01*
X014175Y010010D01*
X014315Y010010D01*
X014415Y010110D01*
X014415Y010250D01*
X014315Y010350D01*
X014175Y010350D01*
X014075Y010251D02*
X013815Y010251D01*
X013815Y010192D02*
X014075Y010192D01*
X014075Y010134D02*
X013815Y010134D01*
X013780Y010075D02*
X014110Y010075D01*
X014168Y010017D02*
X013722Y010017D01*
X014322Y010017D02*
X014768Y010017D01*
X014775Y010010D02*
X014915Y010010D01*
X015015Y010110D01*
X015015Y010250D01*
X014915Y010350D01*
X014775Y010350D01*
X014675Y010250D01*
X014675Y010110D01*
X014775Y010010D01*
X014710Y010075D02*
X014380Y010075D01*
X014415Y010134D02*
X014675Y010134D01*
X014675Y010192D02*
X014415Y010192D01*
X014415Y010251D02*
X014675Y010251D01*
X014734Y010309D02*
X014356Y010309D01*
X014956Y010309D02*
X015334Y010309D01*
X015375Y010350D02*
X015275Y010250D01*
X015275Y010110D01*
X015375Y010010D01*
X015515Y010010D01*
X015615Y010110D01*
X015615Y010250D01*
X015515Y010350D01*
X015375Y010350D01*
X015275Y010251D02*
X015015Y010251D01*
X015015Y010192D02*
X015275Y010192D01*
X015275Y010134D02*
X015015Y010134D01*
X014980Y010075D02*
X015310Y010075D01*
X015368Y010017D02*
X014922Y010017D01*
X015522Y010017D02*
X015968Y010017D01*
X015910Y010075D02*
X015580Y010075D01*
X015615Y010134D02*
X015875Y010134D01*
X015875Y010192D02*
X015615Y010192D01*
X015615Y010251D02*
X015875Y010251D01*
X015934Y010309D02*
X015556Y010309D01*
X017322Y010017D02*
X017768Y010017D01*
X017775Y010010D02*
X017915Y010010D01*
X018015Y010110D01*
X018015Y010250D01*
X017915Y010350D01*
X017775Y010350D01*
X017675Y010250D01*
X017675Y010110D01*
X017775Y010010D01*
X017710Y010075D02*
X017380Y010075D01*
X017415Y010134D02*
X017675Y010134D01*
X017675Y010192D02*
X017415Y010192D01*
X017415Y010251D02*
X017675Y010251D01*
X017734Y010309D02*
X017356Y010309D01*
X017922Y010017D02*
X018368Y010017D01*
X018375Y010010D02*
X018515Y010010D01*
X018615Y010110D01*
X018615Y010250D01*
X018515Y010350D01*
X018375Y010350D01*
X018275Y010250D01*
X018275Y010110D01*
X018375Y010010D01*
X018310Y010075D02*
X017980Y010075D01*
X018015Y010134D02*
X018275Y010134D01*
X018275Y010192D02*
X018015Y010192D01*
X018015Y010251D02*
X018275Y010251D01*
X018334Y010309D02*
X017956Y010309D01*
X018522Y010017D02*
X018968Y010017D01*
X018910Y010075D02*
X018580Y010075D01*
X018615Y010134D02*
X018875Y010134D01*
X018875Y010192D02*
X018615Y010192D01*
X018615Y010251D02*
X018875Y010251D01*
X018934Y010309D02*
X018556Y010309D01*
X019723Y007618D02*
X019735Y007618D01*
X019735Y006390D02*
X016515Y006390D01*
X016515Y006331D02*
X019735Y006331D01*
X019735Y006273D02*
X016515Y006273D01*
X016469Y006214D02*
X019735Y006214D01*
X017298Y005044D02*
X017040Y005044D01*
X016988Y005103D02*
X017241Y005103D01*
X017105Y005805D02*
X016460Y005805D01*
X016515Y005863D02*
X017047Y005863D01*
X017025Y005922D02*
X016515Y005922D01*
X016515Y005980D02*
X017025Y005980D01*
X017038Y006039D02*
X016477Y006039D01*
X016418Y006097D02*
X017097Y006097D01*
X016182Y003933D02*
X015833Y003933D01*
X015891Y003874D02*
X016124Y003874D01*
X016100Y003816D02*
X015915Y003816D01*
X015915Y003757D02*
X016100Y003757D01*
X016111Y003699D02*
X015904Y003699D01*
X015845Y003640D02*
X016170Y003640D01*
X016115Y003150D02*
X015975Y003150D01*
X015875Y003050D01*
X015875Y002910D01*
X015975Y002810D01*
X016115Y002810D01*
X016215Y002910D01*
X016215Y003050D01*
X016115Y003150D01*
X016152Y003114D02*
X016538Y003114D01*
X016575Y003150D02*
X016475Y003050D01*
X016475Y002910D01*
X016575Y002810D01*
X016715Y002810D01*
X016815Y002910D01*
X016815Y003050D01*
X016715Y003150D01*
X016575Y003150D01*
X016480Y003055D02*
X016210Y003055D01*
X016215Y002997D02*
X016475Y002997D01*
X016475Y002938D02*
X016215Y002938D01*
X016185Y002880D02*
X016505Y002880D01*
X016564Y002821D02*
X016126Y002821D01*
X015964Y002821D02*
X015526Y002821D01*
X015585Y002880D02*
X015905Y002880D01*
X015875Y002938D02*
X015615Y002938D01*
X015615Y002997D02*
X015875Y002997D01*
X015880Y003055D02*
X015610Y003055D01*
X015552Y003114D02*
X015938Y003114D01*
X016752Y003114D02*
X017138Y003114D01*
X017080Y003055D02*
X016810Y003055D01*
X016815Y002997D02*
X017075Y002997D01*
X017075Y002938D02*
X016815Y002938D01*
X016785Y002880D02*
X017105Y002880D01*
X017164Y002821D02*
X016726Y002821D01*
X010366Y007794D02*
X008924Y007794D01*
X008982Y007852D02*
X010308Y007852D01*
X010300Y007911D02*
X008990Y007911D01*
X008990Y007969D02*
X010300Y007969D01*
X010327Y008028D02*
X008963Y008028D01*
X008904Y008086D02*
X010386Y008086D01*
X009105Y009081D02*
X008986Y009081D01*
X008927Y009022D02*
X009050Y009022D01*
X008465Y007000D02*
X008325Y007000D01*
X008225Y006900D01*
X008225Y006760D01*
X008325Y006660D01*
X008465Y006660D01*
X008565Y006760D01*
X008565Y006900D01*
X008465Y007000D01*
X008491Y006975D02*
X010174Y006975D01*
X010116Y006916D02*
X008549Y006916D01*
X008565Y006858D02*
X010075Y006858D01*
X010075Y006799D02*
X009016Y006799D01*
X008874Y006799D02*
X008565Y006799D01*
X008546Y006741D02*
X008815Y006741D01*
X008775Y006682D02*
X008487Y006682D01*
X008303Y006682D02*
X007762Y006682D01*
X007765Y006685D02*
X007665Y006585D01*
X007525Y006585D01*
X007425Y006685D01*
X007425Y006825D01*
X007525Y006925D01*
X007665Y006925D01*
X007765Y006825D01*
X007765Y006685D01*
X007765Y006741D02*
X008244Y006741D01*
X008225Y006799D02*
X007765Y006799D01*
X007733Y006858D02*
X008225Y006858D01*
X008241Y006916D02*
X007674Y006916D01*
X007516Y006916D02*
X006874Y006916D01*
X006890Y006858D02*
X007457Y006858D01*
X007425Y006799D02*
X006890Y006799D01*
X006871Y006741D02*
X007425Y006741D01*
X007428Y006682D02*
X006812Y006682D01*
X006816Y006975D02*
X008299Y006975D01*
X008775Y006624D02*
X007704Y006624D01*
X007486Y006624D02*
X004892Y006624D01*
X004915Y006565D02*
X008775Y006565D01*
X009169Y005220D02*
X006571Y005220D01*
X006629Y005161D02*
X009111Y005161D01*
X009075Y005103D02*
X006665Y005103D01*
X006665Y005044D02*
X009075Y005044D01*
X009075Y004986D02*
X006665Y004986D01*
X006607Y004927D02*
X006927Y004927D01*
X007163Y004927D02*
X009133Y004927D01*
X009625Y004869D02*
X007215Y004869D01*
X007215Y004810D02*
X009625Y004810D01*
X009625Y004752D02*
X007215Y004752D01*
X007173Y004693D02*
X009667Y004693D01*
X006424Y003874D02*
X005741Y003874D01*
X005800Y003816D02*
X006365Y003816D01*
X006325Y003757D02*
X005815Y003757D01*
X005815Y003699D02*
X006325Y003699D01*
X006325Y003640D02*
X005795Y003640D01*
X005737Y003582D02*
X006378Y003582D01*
X004005Y002880D02*
X001815Y002880D01*
X001815Y002938D02*
X003947Y002938D01*
X003925Y002997D02*
X001815Y002997D01*
X001760Y003055D02*
X003925Y003055D01*
X013101Y011596D02*
X013289Y011596D01*
X013230Y011655D02*
X013160Y011655D01*
X013165Y011713D02*
X013225Y011713D01*
X013225Y011772D02*
X013165Y011772D01*
X013135Y011830D02*
X013255Y011830D01*
X013313Y011889D02*
X013077Y011889D01*
X016804Y015438D02*
X016804Y015438D01*
X007392Y013117D02*
X006198Y013117D01*
X006257Y013059D02*
X007333Y013059D01*
X007325Y013000D02*
X006265Y013000D01*
X006265Y012942D02*
X007325Y012942D01*
X007352Y012883D02*
X006238Y012883D01*
X006180Y012825D02*
X007410Y012825D01*
M02*
