%
M48
M72
T01C0.0100
T02C0.0394
T03C0.0880
%
T01
X1645Y2930
X2345Y3030
X4095Y3030
X5145Y3730
X5145Y4230
X5645Y4230
X5645Y3730
X6495Y3705
X6495Y4080
X6495Y4480
X7045Y4805
X6495Y5055
X6570Y5930
X6720Y6830
X7595Y6755
X8395Y6830
X8945Y6630
X9620Y6430
X10245Y6805
X10470Y7930
X10920Y8755
X10795Y9605
X9145Y9580
X8845Y9180
X9220Y8955
X8820Y7930
X7570Y8980
X7495Y9555
X7520Y10155
X9120Y9955
X7170Y7930
X4745Y6530
X4295Y4805
X2570Y6455
X2220Y6455
X1995Y6930
X1745Y6930
X1495Y6930
X1495Y7180
X1245Y7180
X1245Y6930
X735Y6405
X505Y6405
X1095Y4730
X2345Y8230
X2345Y8630
X2445Y11730
X4545Y13330
X6095Y12980
X7495Y12980
X11695Y12830
X11945Y12830
X11945Y12580
X11695Y12580
X11695Y12330
X11695Y12080
X12995Y11730
X13395Y11730
X14045Y11830
X14295Y11830
X14545Y11830
X14795Y11830
X15045Y11830
X14295Y12680
X14205Y13355
X14435Y13355
X16320Y11355
X16320Y10755
X16920Y11355
X17520Y11355
X18120Y11355
X18720Y11355
X18720Y10755
X18445Y10180
X17845Y10180
X17245Y10180
X16645Y10180
X16045Y10180
X15445Y10180
X14845Y10180
X14245Y10180
X13645Y10180
X13045Y10180
X12445Y10180
X12445Y9580
X12445Y8980
X12445Y8380
X12445Y7780
X12445Y7180
X12445Y6580
X12445Y5980
X13095Y5505
X13695Y5505
X14195Y5480
X15145Y5530
X15545Y5530
X15945Y5530
X16345Y5530
X16345Y5930
X16345Y6330
X15945Y6330
X15945Y5930
X15545Y5930
X15545Y6330
X15145Y6330
X15145Y5930
X15145Y6730
X15545Y6730
X15945Y6730
X16345Y6730
X16870Y7255
X17170Y7105
X17620Y7830
X18695Y7680
X19645Y7780
X19645Y7180
X19645Y6580
X19645Y5980
X19645Y5380
X19645Y4780
X19645Y4180
X19645Y3580
X19645Y2980
X19045Y2980
X18445Y2980
X17845Y2980
X17245Y2980
X16645Y2980
X16045Y2980
X15445Y2980
X14845Y2980
X14595Y2680
X14245Y2980
X13645Y2980
X13045Y2980
X12495Y2980
X11995Y3280
X12445Y3580
X11995Y3705
X11995Y4080
X12445Y4180
X11995Y4480
X12445Y4780
X11970Y5030
X12445Y5380
X13320Y4630
X13745Y4630
X14195Y4630
X14495Y4380
X15320Y4405
X15520Y3930
X15745Y3780
X16270Y3780
X16570Y3980
X16470Y4330
X16570Y4655
X16870Y4980
X17411Y5171
X17545Y5555
X17195Y5605
X17195Y5955
X17395Y4405
X15445Y2080
X15195Y2080
X15195Y1780
X15195Y1480
X13220Y2305
X13020Y2130
X9795Y4805
X9245Y5055
X9245Y4480
X9245Y4080
X9245Y3705
X9245Y3330
X6945Y2530
X6495Y3330
X7795Y1430
X9245Y5680
X11620Y6330
X13295Y6280
X13545Y6480
X13795Y6630
X14045Y6780
X14245Y6980
X14245Y7280
X14495Y7630
X15545Y7705
X15745Y9055
X17245Y9580
X17745Y9055
X19045Y10180
X19645Y10180
X19645Y9580
X19645Y8980
X19645Y8380
X14095Y9030
T02
X10245Y10893
X9245Y10893
X8245Y10893
X7245Y10893
X6245Y10893
X5245Y10893
X5245Y11893
X6245Y11893
X7245Y11893
X8245Y11893
X9245Y11893
X10245Y11893
T03
X1964Y1749
X1964Y13911
X18126Y13911
X18126Y1749
M30
