G75*
%MOIN*%
%OFA0B0*%
%FSLAX24Y24*%
%IPPOS*%
%LPD*%
%AMOC8*
5,1,8,0,0,1.08239X$1,22.5*
%
%ADD10R,0.0591X0.0591*%
%ADD11C,0.0591*%
%ADD12R,0.0394X0.0787*%
%ADD13C,0.0180*%
%ADD14C,0.0060*%
%ADD15C,0.0100*%
%ADD16C,0.0080*%
%ADD17C,0.0200*%
%ADD18C,0.0050*%
D10*
X005245Y010893D03*
D11*
X006245Y010893D03*
X007245Y010893D03*
X008245Y010893D03*
X009245Y010893D03*
X010245Y010893D03*
X010245Y011893D03*
X009245Y011893D03*
X008245Y011893D03*
X007245Y011893D03*
X006245Y011893D03*
X005245Y011893D03*
D12*
X005049Y012980D03*
X005541Y012980D03*
X006499Y012980D03*
X006991Y012980D03*
X007999Y012980D03*
X008491Y012980D03*
D13*
X007495Y012980D03*
X006095Y012980D03*
X004545Y013330D03*
X002445Y011730D03*
X002345Y008630D03*
X002345Y008230D03*
X001495Y007180D03*
X001495Y006930D03*
X001245Y006930D03*
X001245Y007180D03*
X001745Y006930D03*
X001995Y006930D03*
X002220Y006455D03*
X002570Y006455D03*
X000735Y006405D03*
X000505Y006405D03*
X001095Y004730D03*
X001645Y002930D03*
X002345Y003030D03*
X004095Y003030D03*
X005145Y003730D03*
X005145Y004230D03*
X005645Y004230D03*
X005645Y003730D03*
X006495Y003705D03*
X006495Y004080D03*
X006495Y004480D03*
X007045Y004805D03*
X006495Y005055D03*
X006570Y005930D03*
X006720Y006830D03*
X007595Y006755D03*
X008395Y006830D03*
X008945Y006630D03*
X009620Y006430D03*
X010245Y006805D03*
X010470Y007930D03*
X010920Y008755D03*
X010795Y009605D03*
X009145Y009580D03*
X008845Y009180D03*
X009220Y008955D03*
X008820Y007930D03*
X007570Y008980D03*
X007495Y009555D03*
X007520Y010155D03*
X009120Y009955D03*
X007170Y007930D03*
X004745Y006530D03*
X004295Y004805D03*
X006495Y003330D03*
X006945Y002530D03*
X007795Y001430D03*
X009245Y003330D03*
X009245Y003705D03*
X009245Y004080D03*
X009245Y004480D03*
X009245Y005055D03*
X009795Y004805D03*
X009245Y005680D03*
X011620Y006330D03*
X012445Y006580D03*
X012445Y007180D03*
X012445Y007780D03*
X012445Y008380D03*
X012445Y008980D03*
X012445Y009580D03*
X012445Y010180D03*
X013045Y010180D03*
X013645Y010180D03*
X014245Y010180D03*
X014845Y010180D03*
X015445Y010180D03*
X016045Y010180D03*
X016645Y010180D03*
X017245Y010180D03*
X017845Y010180D03*
X018445Y010180D03*
X019045Y010180D03*
X019645Y010180D03*
X019645Y009580D03*
X019645Y008980D03*
X019645Y008380D03*
X019645Y007780D03*
X019645Y007180D03*
X019645Y006580D03*
X019645Y005980D03*
X019645Y005380D03*
X019645Y004780D03*
X019645Y004180D03*
X019645Y003580D03*
X019645Y002980D03*
X019045Y002980D03*
X018445Y002980D03*
X017845Y002980D03*
X017245Y002980D03*
X016645Y002980D03*
X016045Y002980D03*
X015445Y002980D03*
X014845Y002980D03*
X014595Y002680D03*
X014245Y002980D03*
X013645Y002980D03*
X013045Y002980D03*
X012495Y002980D03*
X011995Y003280D03*
X012445Y003580D03*
X011995Y003705D03*
X011995Y004080D03*
X012445Y004180D03*
X011995Y004480D03*
X012445Y004780D03*
X011970Y005030D03*
X012445Y005380D03*
X013095Y005505D03*
X013695Y005505D03*
X014195Y005480D03*
X015145Y005530D03*
X015545Y005530D03*
X015945Y005530D03*
X016345Y005530D03*
X016345Y005930D03*
X016345Y006330D03*
X015945Y006330D03*
X015945Y005930D03*
X015545Y005930D03*
X015545Y006330D03*
X015145Y006330D03*
X015145Y005930D03*
X015145Y006730D03*
X015545Y006730D03*
X015945Y006730D03*
X016345Y006730D03*
X016870Y007255D03*
X017170Y007105D03*
X017620Y007830D03*
X018695Y007680D03*
X017745Y009055D03*
X017245Y009580D03*
X015745Y009055D03*
X015545Y007705D03*
X014495Y007630D03*
X014245Y007280D03*
X014245Y006980D03*
X014045Y006780D03*
X013795Y006630D03*
X013545Y006480D03*
X013295Y006280D03*
X012445Y005980D03*
X013320Y004630D03*
X013745Y004630D03*
X014195Y004630D03*
X014495Y004380D03*
X015320Y004405D03*
X015520Y003930D03*
X015745Y003780D03*
X016270Y003780D03*
X016570Y003980D03*
X016470Y004330D03*
X016570Y004655D03*
X016870Y004980D03*
X017411Y005171D03*
X017545Y005555D03*
X017195Y005605D03*
X017195Y005955D03*
X017395Y004405D03*
X015445Y002080D03*
X015195Y002080D03*
X015195Y001780D03*
X015195Y001480D03*
X013220Y002305D03*
X013020Y002130D03*
X014095Y009030D03*
X016320Y010755D03*
X016320Y011355D03*
X016920Y011355D03*
X017520Y011355D03*
X018120Y011355D03*
X018720Y011355D03*
X018720Y010755D03*
X015045Y011830D03*
X014795Y011830D03*
X014545Y011830D03*
X014295Y011830D03*
X014045Y011830D03*
X013395Y011730D03*
X012995Y011730D03*
X011945Y012580D03*
X011695Y012580D03*
X011695Y012330D03*
X011695Y012080D03*
X011695Y012830D03*
X011945Y012830D03*
X014205Y013355D03*
X014435Y013355D03*
X014295Y012680D03*
D14*
X004639Y001066D02*
X001240Y001066D01*
X001182Y001125D02*
X004581Y001125D01*
X004522Y001183D02*
X002218Y001183D01*
X002315Y001223D02*
X002490Y001398D01*
X002584Y001626D01*
X002584Y001872D01*
X002490Y002100D01*
X002315Y002275D01*
X002087Y002369D01*
X001841Y002369D01*
X001613Y002275D01*
X001438Y002100D01*
X001344Y001872D01*
X001344Y001626D01*
X001438Y001398D01*
X001613Y001223D01*
X001841Y001129D01*
X002087Y001129D01*
X002315Y001223D01*
X002333Y001242D02*
X004464Y001242D01*
X004405Y001300D02*
X002392Y001300D01*
X002450Y001359D02*
X004347Y001359D01*
X004288Y001417D02*
X002498Y001417D01*
X002522Y001476D02*
X004230Y001476D01*
X004171Y001534D02*
X002546Y001534D01*
X002570Y001593D02*
X004113Y001593D01*
X004054Y001651D02*
X002584Y001651D01*
X002584Y001710D02*
X003996Y001710D01*
X003937Y001768D02*
X002584Y001768D01*
X002584Y001827D02*
X003879Y001827D01*
X003820Y001885D02*
X002579Y001885D01*
X002554Y001944D02*
X003762Y001944D01*
X003703Y002002D02*
X002530Y002002D01*
X002506Y002061D02*
X003645Y002061D01*
X003586Y002119D02*
X002471Y002119D01*
X002412Y002178D02*
X003528Y002178D01*
X003469Y002236D02*
X002354Y002236D01*
X002267Y002295D02*
X003411Y002295D01*
X003352Y002353D02*
X002126Y002353D01*
X001802Y002353D02*
X000438Y002353D01*
X000446Y002311D02*
X000339Y002854D01*
X000325Y003130D01*
X000325Y012552D01*
X000325Y012553D01*
X000325Y012627D01*
X000325Y012627D01*
X000337Y012901D01*
X000440Y013439D01*
X000646Y013946D01*
X000947Y014403D01*
X001332Y014793D01*
X001785Y015100D01*
X002289Y015313D01*
X002825Y015423D01*
X003099Y015438D01*
X016804Y015438D01*
X016878Y015438D01*
X016879Y015438D01*
X017157Y015427D01*
X017703Y015322D01*
X018218Y015114D01*
X018682Y014808D01*
X019078Y014418D01*
X019390Y013959D01*
X019607Y013447D01*
X019719Y012902D01*
X019735Y012625D01*
X019735Y002881D01*
X019722Y002628D01*
X019621Y002132D01*
X019426Y001666D01*
X019143Y001246D01*
X018785Y000890D01*
X018363Y000610D01*
X017895Y000418D01*
X017399Y000322D01*
X017146Y000310D01*
X017145Y000310D01*
X017071Y000310D01*
X003145Y000310D01*
X002869Y000324D01*
X002326Y000431D01*
X001816Y000643D01*
X001356Y000950D01*
X000965Y001341D01*
X000658Y001801D01*
X000446Y002311D01*
X000453Y002295D02*
X001661Y002295D01*
X001574Y002236D02*
X000478Y002236D01*
X000502Y002178D02*
X001516Y002178D01*
X001457Y002119D02*
X000526Y002119D01*
X000550Y002061D02*
X001422Y002061D01*
X001398Y002002D02*
X000575Y002002D01*
X000599Y001944D02*
X001373Y001944D01*
X001349Y001885D02*
X000623Y001885D01*
X000647Y001827D02*
X001344Y001827D01*
X001344Y001768D02*
X000680Y001768D01*
X000719Y001710D02*
X001344Y001710D01*
X001344Y001651D02*
X000758Y001651D01*
X000797Y001593D02*
X001358Y001593D01*
X001382Y001534D02*
X000836Y001534D01*
X000875Y001476D02*
X001406Y001476D01*
X001430Y001417D02*
X000914Y001417D01*
X000953Y001359D02*
X001477Y001359D01*
X001536Y001300D02*
X001006Y001300D01*
X001065Y001242D02*
X001594Y001242D01*
X001710Y001183D02*
X001123Y001183D01*
X001299Y001008D02*
X004698Y001008D01*
X004756Y000949D02*
X001358Y000949D01*
X001445Y000891D02*
X004815Y000891D01*
X004825Y000880D02*
X004895Y000810D01*
X016220Y000810D01*
X018340Y002930D01*
X018340Y005505D01*
X018270Y005575D01*
X017945Y005900D01*
X017365Y005900D01*
X017365Y006025D01*
X017265Y006125D01*
X017125Y006125D01*
X017025Y006025D01*
X017025Y005955D01*
X016895Y005825D01*
X016825Y005755D01*
X016825Y005430D01*
X016880Y005375D01*
X014330Y005375D01*
X014365Y005410D01*
X014365Y005550D01*
X014315Y005600D01*
X014315Y006080D01*
X015395Y007160D01*
X015695Y007160D01*
X015895Y007360D01*
X015965Y007430D01*
X015965Y008580D01*
X014675Y009870D01*
X014675Y010434D01*
X014599Y010510D01*
X014599Y010510D01*
X014075Y011034D01*
X013999Y011110D01*
X012449Y011110D01*
X011709Y011850D01*
X012049Y011850D01*
X012125Y011926D01*
X012125Y012984D01*
X012049Y013060D01*
X011541Y013060D01*
X011465Y012984D01*
X011465Y012094D01*
X009775Y013784D01*
X009699Y013860D01*
X004391Y013860D01*
X002431Y011900D01*
X002375Y011900D01*
X002275Y011800D01*
X002275Y011660D01*
X002375Y011560D01*
X002515Y011560D01*
X002615Y011660D01*
X002615Y011716D01*
X004499Y013600D01*
X009591Y013600D01*
X012341Y010850D01*
X013891Y010850D01*
X014415Y010326D01*
X014415Y009776D01*
X014491Y009700D01*
X014505Y009700D01*
X015725Y008480D01*
X015725Y007530D01*
X015595Y007400D01*
X015410Y007400D01*
X015545Y007535D01*
X015615Y007535D01*
X015715Y007635D01*
X015715Y007775D01*
X015615Y007875D01*
X015475Y007875D01*
X015375Y007775D01*
X015375Y007705D01*
X013770Y006100D01*
X013520Y006100D01*
X013450Y006030D01*
X013095Y005675D01*
X013025Y005675D01*
X012925Y005575D01*
X012925Y005435D01*
X012985Y005375D01*
X012720Y005375D01*
X012650Y005305D01*
X012495Y005150D01*
X012390Y005150D01*
X012387Y005153D01*
X012341Y005150D01*
X012295Y005150D01*
X012292Y005147D01*
X012287Y005146D01*
X012257Y005112D01*
X012225Y005080D01*
X012225Y005075D01*
X012140Y004978D01*
X012140Y005100D01*
X012115Y005125D01*
X012115Y005180D01*
X012395Y005460D01*
X012645Y005460D01*
X013295Y006110D01*
X013365Y006110D01*
X013465Y006210D01*
X013465Y006320D01*
X013475Y006310D01*
X013615Y006310D01*
X013715Y006410D01*
X013715Y006470D01*
X013725Y006460D01*
X013865Y006460D01*
X013965Y006560D01*
X013965Y006620D01*
X013975Y006610D01*
X014115Y006610D01*
X014215Y006710D01*
X014215Y006810D01*
X014315Y006810D01*
X014415Y006910D01*
X014415Y007050D01*
X014335Y007130D01*
X014415Y007210D01*
X014415Y007350D01*
X014365Y007400D01*
X014365Y007520D01*
X014425Y007460D01*
X014565Y007460D01*
X014665Y007560D01*
X014665Y007700D01*
X014615Y007750D01*
X014615Y008180D01*
X014545Y008250D01*
X012815Y009980D01*
X012815Y010380D01*
X012714Y010481D01*
X012714Y010482D01*
X012679Y010516D01*
X012645Y010550D01*
X012644Y010550D01*
X011167Y011978D01*
X011132Y012013D01*
X011131Y012013D01*
X011130Y012013D01*
X011081Y012013D01*
X010601Y012013D01*
X010563Y012105D01*
X010458Y012211D01*
X010320Y012268D01*
X010170Y012268D01*
X010032Y012211D01*
X009927Y012105D01*
X009870Y011967D01*
X009870Y011818D01*
X009927Y011680D01*
X010032Y011574D01*
X010170Y011517D01*
X010320Y011517D01*
X010458Y011574D01*
X010563Y011680D01*
X010601Y011773D01*
X011034Y011773D01*
X012511Y010344D01*
X012575Y010280D01*
X012575Y009951D01*
X011602Y010942D01*
X011568Y010977D01*
X011533Y011012D01*
X011533Y011012D01*
X011532Y011013D01*
X011483Y011013D01*
X011434Y011013D01*
X011433Y011013D01*
X010601Y011013D01*
X010563Y011105D01*
X010458Y011211D01*
X010320Y011268D01*
X010170Y011268D01*
X010032Y011211D01*
X009927Y011105D01*
X009870Y010967D01*
X009870Y010818D01*
X009927Y010680D01*
X010032Y010574D01*
X010170Y010517D01*
X010320Y010517D01*
X010458Y010574D01*
X010563Y010680D01*
X010601Y010773D01*
X011432Y010773D01*
X012682Y009500D01*
X012245Y009500D01*
X011245Y010500D01*
X010095Y010500D01*
X009865Y010730D01*
X009865Y011442D01*
X009795Y011513D01*
X009582Y011725D01*
X009620Y011818D01*
X009620Y011967D01*
X009563Y012105D01*
X009458Y012211D01*
X009320Y012268D01*
X009170Y012268D01*
X009032Y012211D01*
X008927Y012105D01*
X008875Y011980D01*
X008875Y012184D01*
X008799Y012260D01*
X008621Y012438D01*
X008621Y012506D01*
X008721Y012506D01*
X008768Y012553D01*
X008768Y013407D01*
X008721Y013454D01*
X008261Y013454D01*
X008245Y013438D01*
X008229Y013454D01*
X007769Y013454D01*
X007722Y013407D01*
X007722Y013110D01*
X007605Y013110D01*
X007565Y013150D01*
X007425Y013150D01*
X007325Y013050D01*
X007325Y012910D01*
X007425Y012810D01*
X007565Y012810D01*
X007605Y012850D01*
X007722Y012850D01*
X007722Y012553D01*
X007769Y012506D01*
X008229Y012506D01*
X008245Y012522D01*
X008261Y012506D01*
X008361Y012506D01*
X008361Y012330D01*
X008615Y012076D01*
X008615Y011980D01*
X008563Y012105D01*
X008458Y012211D01*
X008320Y012268D01*
X008170Y012268D01*
X008032Y012211D01*
X007927Y012105D01*
X007870Y011967D01*
X007870Y011818D01*
X007927Y011680D01*
X008032Y011574D01*
X008170Y011517D01*
X008320Y011517D01*
X008458Y011574D01*
X008563Y011680D01*
X008615Y011805D01*
X008615Y011446D01*
X008402Y011234D01*
X008320Y011268D01*
X008170Y011268D01*
X008032Y011211D01*
X007927Y011105D01*
X007870Y010967D01*
X007870Y010818D01*
X007927Y010680D01*
X008032Y010574D01*
X008170Y010517D01*
X008320Y010517D01*
X008458Y010574D01*
X008563Y010680D01*
X008620Y010818D01*
X008620Y010967D01*
X008586Y011050D01*
X008875Y011339D01*
X008875Y011805D01*
X008927Y011680D01*
X009032Y011574D01*
X009170Y011517D01*
X009320Y011517D01*
X009412Y011556D01*
X009625Y011343D01*
X009625Y010682D01*
X009582Y010725D01*
X009620Y010818D01*
X009620Y010967D01*
X009563Y011105D01*
X009458Y011211D01*
X009320Y011268D01*
X009170Y011268D01*
X009032Y011211D01*
X008927Y011105D01*
X008870Y010967D01*
X008870Y010818D01*
X008927Y010680D01*
X009032Y010574D01*
X009170Y010517D01*
X009320Y010517D01*
X009412Y010556D01*
X009838Y010130D01*
X009908Y010060D01*
X011095Y010060D01*
X011975Y009180D01*
X012045Y009110D01*
X012544Y009110D01*
X013625Y008029D01*
X013625Y007030D01*
X013855Y006800D01*
X013795Y006800D01*
X013745Y006850D01*
X012945Y006850D01*
X012875Y006780D01*
X012395Y006300D01*
X012195Y006300D01*
X012125Y006230D01*
X012125Y006230D01*
X012095Y006200D01*
X012025Y006130D01*
X012025Y005880D01*
X011595Y005450D01*
X008920Y005450D01*
X008850Y005380D01*
X008645Y005175D01*
X006615Y005175D01*
X006565Y005225D01*
X006425Y005225D01*
X006325Y005125D01*
X006325Y004985D01*
X006385Y004925D01*
X004415Y004925D01*
X004365Y004975D01*
X004225Y004975D01*
X004125Y004875D01*
X004125Y004735D01*
X004225Y004635D01*
X004365Y004635D01*
X004415Y004685D01*
X006925Y004685D01*
X006975Y004635D01*
X007115Y004635D01*
X007165Y004685D01*
X009675Y004685D01*
X009725Y004635D01*
X009865Y004635D01*
X009965Y004735D01*
X009965Y004875D01*
X009905Y004935D01*
X011670Y004935D01*
X011800Y005065D01*
X011800Y004960D01*
X011900Y004860D01*
X012037Y004860D01*
X011907Y004712D01*
X011875Y004680D01*
X011875Y004675D01*
X011872Y004672D01*
X011875Y004626D01*
X011875Y004600D01*
X011875Y004600D01*
X009365Y004600D01*
X009315Y004650D01*
X009175Y004650D01*
X009125Y004600D01*
X006615Y004600D01*
X006565Y004650D01*
X006425Y004650D01*
X006325Y004550D01*
X006325Y004410D01*
X006425Y004310D01*
X006565Y004310D01*
X006615Y004360D01*
X009125Y004360D01*
X009175Y004310D01*
X009315Y004310D01*
X009365Y004360D01*
X011875Y004360D01*
X011925Y004310D01*
X012055Y004310D01*
X011995Y004250D01*
X011925Y004250D01*
X011875Y004200D01*
X009365Y004200D01*
X009315Y004250D01*
X009175Y004250D01*
X009125Y004200D01*
X006615Y004200D01*
X006565Y004250D01*
X006425Y004250D01*
X006325Y004150D01*
X006325Y004010D01*
X006425Y003910D01*
X006565Y003910D01*
X006615Y003960D01*
X009125Y003960D01*
X009175Y003910D01*
X009315Y003910D01*
X009365Y003960D01*
X011875Y003960D01*
X011925Y003910D01*
X012065Y003910D01*
X012165Y004010D01*
X012165Y004080D01*
X012345Y004260D01*
X012445Y004260D01*
X012575Y004390D01*
X012575Y004130D01*
X012345Y003900D01*
X012045Y003900D01*
X012020Y003875D01*
X011925Y003875D01*
X011875Y003825D01*
X009365Y003825D01*
X009315Y003875D01*
X009175Y003875D01*
X009125Y003825D01*
X006615Y003825D01*
X006565Y003875D01*
X006425Y003875D01*
X006325Y003775D01*
X006325Y003635D01*
X006425Y003535D01*
X006565Y003535D01*
X006615Y003585D01*
X009125Y003585D01*
X009175Y003535D01*
X009315Y003535D01*
X009365Y003585D01*
X011875Y003585D01*
X011925Y003535D01*
X012065Y003535D01*
X012165Y003635D01*
X012165Y003660D01*
X012445Y003660D01*
X012745Y003960D01*
X012815Y004030D01*
X012815Y004380D01*
X013220Y004785D01*
X013235Y004785D01*
X013150Y004700D01*
X013150Y004560D01*
X013200Y004510D01*
X013200Y004156D01*
X012494Y003450D01*
X012069Y003450D01*
X012067Y003448D01*
X012065Y003450D01*
X011925Y003450D01*
X011825Y003350D01*
X011825Y003210D01*
X011925Y003110D01*
X012005Y003110D01*
X011945Y003050D01*
X009695Y003050D01*
X009415Y003330D01*
X009415Y003400D01*
X009315Y003500D01*
X009175Y003500D01*
X009075Y003400D01*
X009075Y003260D01*
X009175Y003160D01*
X009245Y003160D01*
X009555Y002850D01*
X007595Y002850D01*
X007065Y003380D01*
X006995Y003450D01*
X006615Y003450D01*
X006565Y003500D01*
X006425Y003500D01*
X006325Y003400D01*
X006325Y003260D01*
X006425Y003160D01*
X006565Y003160D01*
X006615Y003210D01*
X006895Y003210D01*
X007495Y002610D01*
X012609Y002610D01*
X012620Y002603D01*
X012657Y002610D01*
X012695Y002610D01*
X012704Y002619D01*
X012717Y002622D01*
X012738Y002654D01*
X012765Y002680D01*
X012765Y002694D01*
X012838Y002804D01*
X012865Y002830D01*
X012865Y002844D01*
X012872Y002855D01*
X012865Y002892D01*
X012865Y002980D01*
X014315Y004430D01*
X014315Y004510D01*
X014365Y004560D01*
X014365Y004700D01*
X014280Y004785D01*
X016270Y004785D01*
X016400Y004655D01*
X016400Y004585D01*
X016485Y004500D01*
X016400Y004500D01*
X016300Y004400D01*
X016300Y004330D01*
X016220Y004250D01*
X015405Y004250D01*
X015490Y004335D01*
X015490Y004475D01*
X015390Y004575D01*
X015250Y004575D01*
X015200Y004525D01*
X014945Y004525D01*
X014875Y004455D01*
X014570Y004150D01*
X014245Y004150D01*
X014175Y004080D01*
X013175Y003080D01*
X013175Y002755D01*
X012900Y002480D01*
X012900Y002250D01*
X012850Y002200D01*
X012850Y002060D01*
X012950Y001960D01*
X013090Y001960D01*
X013190Y002060D01*
X013190Y002135D01*
X013290Y002135D01*
X013340Y002185D01*
X013670Y002185D01*
X013995Y002510D01*
X014065Y002580D01*
X014065Y002980D01*
X015095Y004010D01*
X015360Y004010D01*
X015350Y004000D01*
X015350Y003860D01*
X015450Y003760D01*
X015555Y003760D01*
X015075Y003280D01*
X015075Y002880D01*
X014995Y002800D01*
X014715Y002800D01*
X014665Y002850D01*
X014525Y002850D01*
X014425Y002750D01*
X014425Y002610D01*
X014525Y002510D01*
X014665Y002510D01*
X014715Y002560D01*
X015095Y002560D01*
X015315Y002780D01*
X015315Y003180D01*
X015745Y003610D01*
X015815Y003610D01*
X015875Y003670D01*
X015875Y003380D01*
X015525Y003030D01*
X015525Y002680D01*
X015075Y002230D01*
X015075Y002200D01*
X015025Y002150D01*
X015025Y002010D01*
X015105Y001930D01*
X015025Y001850D01*
X015025Y001710D01*
X015105Y001630D01*
X015025Y001550D01*
X015025Y001410D01*
X015125Y001310D01*
X015265Y001310D01*
X015315Y001360D01*
X015520Y001360D01*
X016565Y002405D01*
X016565Y003530D01*
X016690Y003655D01*
X016690Y003860D01*
X016740Y003910D01*
X016740Y004050D01*
X016640Y004150D01*
X016500Y004150D01*
X016400Y004050D01*
X016400Y003910D01*
X016450Y003860D01*
X016450Y003755D01*
X016440Y003745D01*
X016440Y003850D01*
X016340Y003950D01*
X016200Y003950D01*
X016115Y003865D01*
X016115Y003930D01*
X016035Y004010D01*
X016320Y004010D01*
X016470Y004160D01*
X016540Y004160D01*
X016640Y004260D01*
X016640Y004400D01*
X016555Y004485D01*
X016640Y004485D01*
X016740Y004585D01*
X016740Y004725D01*
X016640Y004825D01*
X016570Y004825D01*
X016435Y004960D01*
X016700Y004960D01*
X016700Y004910D01*
X016800Y004810D01*
X016940Y004810D01*
X017040Y004910D01*
X017040Y005050D01*
X017039Y005051D01*
X017291Y005051D01*
X017341Y005001D01*
X017482Y005001D01*
X017581Y005101D01*
X017581Y005199D01*
X017875Y004905D01*
X017875Y003680D01*
X017543Y003348D01*
X017540Y003348D01*
X017508Y003313D01*
X017475Y003280D01*
X017475Y003277D01*
X017473Y003274D01*
X017475Y003227D01*
X017475Y003180D01*
X017477Y003178D01*
X017498Y002727D01*
X016020Y001250D01*
X005070Y001250D01*
X002490Y003830D01*
X002490Y006205D01*
X002570Y006285D01*
X002640Y006285D01*
X002740Y006385D01*
X002740Y006525D01*
X002640Y006625D01*
X002500Y006625D01*
X002400Y006525D01*
X002400Y006455D01*
X002390Y006445D01*
X002390Y006525D01*
X002290Y006625D01*
X002150Y006625D01*
X002050Y006525D01*
X002050Y006385D01*
X002100Y006335D01*
X002100Y003605D01*
X004825Y000880D01*
X004873Y000832D02*
X001533Y000832D01*
X001620Y000774D02*
X018609Y000774D01*
X018698Y000832D02*
X016242Y000832D01*
X016300Y000891D02*
X018785Y000891D01*
X018844Y000949D02*
X016359Y000949D01*
X016417Y001008D02*
X018903Y001008D01*
X018962Y001066D02*
X016476Y001066D01*
X016534Y001125D02*
X019021Y001125D01*
X019080Y001183D02*
X018380Y001183D01*
X018477Y001223D02*
X018652Y001398D01*
X018746Y001626D01*
X018746Y001872D01*
X018652Y002100D01*
X018477Y002275D01*
X018249Y002369D01*
X018003Y002369D01*
X017775Y002275D01*
X017600Y002100D01*
X017506Y001872D01*
X017506Y001626D01*
X017600Y001398D01*
X017775Y001223D01*
X018003Y001129D01*
X018249Y001129D01*
X018477Y001223D01*
X018496Y001242D02*
X019139Y001242D01*
X019180Y001300D02*
X018554Y001300D01*
X018613Y001359D02*
X019219Y001359D01*
X019259Y001417D02*
X018660Y001417D01*
X018684Y001476D02*
X019298Y001476D01*
X019337Y001534D02*
X018708Y001534D01*
X018732Y001593D02*
X019377Y001593D01*
X019416Y001651D02*
X018746Y001651D01*
X018746Y001710D02*
X019444Y001710D01*
X019469Y001768D02*
X018746Y001768D01*
X018746Y001827D02*
X019493Y001827D01*
X019518Y001885D02*
X018741Y001885D01*
X018717Y001944D02*
X019542Y001944D01*
X019567Y002002D02*
X018692Y002002D01*
X018668Y002061D02*
X019591Y002061D01*
X019616Y002119D02*
X018633Y002119D01*
X018574Y002178D02*
X019630Y002178D01*
X019642Y002236D02*
X018516Y002236D01*
X018429Y002295D02*
X019654Y002295D01*
X019666Y002353D02*
X018288Y002353D01*
X017964Y002353D02*
X017763Y002353D01*
X017821Y002412D02*
X019678Y002412D01*
X019690Y002470D02*
X017880Y002470D01*
X017938Y002529D02*
X019702Y002529D01*
X019713Y002587D02*
X017997Y002587D01*
X018055Y002646D02*
X019723Y002646D01*
X019726Y002704D02*
X018114Y002704D01*
X018172Y002763D02*
X019729Y002763D01*
X019732Y002821D02*
X018231Y002821D01*
X018289Y002880D02*
X019735Y002880D01*
X019735Y002938D02*
X018340Y002938D01*
X018340Y002997D02*
X019735Y002997D01*
X019735Y003055D02*
X018340Y003055D01*
X018340Y003114D02*
X019735Y003114D01*
X019735Y003172D02*
X018340Y003172D01*
X018340Y003231D02*
X019735Y003231D01*
X019735Y003289D02*
X018340Y003289D01*
X018340Y003348D02*
X019735Y003348D01*
X019735Y003406D02*
X018340Y003406D01*
X018340Y003465D02*
X019735Y003465D01*
X019735Y003523D02*
X018340Y003523D01*
X018340Y003582D02*
X019735Y003582D01*
X019735Y003640D02*
X018340Y003640D01*
X018340Y003699D02*
X019735Y003699D01*
X019735Y003757D02*
X018340Y003757D01*
X018340Y003816D02*
X019735Y003816D01*
X019735Y003874D02*
X018340Y003874D01*
X018340Y003933D02*
X019735Y003933D01*
X019735Y003991D02*
X018340Y003991D01*
X018340Y004050D02*
X019735Y004050D01*
X019735Y004108D02*
X018340Y004108D01*
X018340Y004167D02*
X019735Y004167D01*
X019735Y004225D02*
X018340Y004225D01*
X018340Y004284D02*
X019735Y004284D01*
X019735Y004342D02*
X018340Y004342D01*
X018340Y004401D02*
X019735Y004401D01*
X019735Y004459D02*
X018340Y004459D01*
X018340Y004518D02*
X019735Y004518D01*
X019735Y004576D02*
X018340Y004576D01*
X018340Y004635D02*
X019735Y004635D01*
X019735Y004693D02*
X018340Y004693D01*
X018340Y004752D02*
X019735Y004752D01*
X019735Y004810D02*
X018340Y004810D01*
X018340Y004869D02*
X019735Y004869D01*
X019735Y004927D02*
X018340Y004927D01*
X018340Y004986D02*
X019735Y004986D01*
X019735Y005044D02*
X018340Y005044D01*
X018340Y005103D02*
X019735Y005103D01*
X019735Y005161D02*
X018340Y005161D01*
X018340Y005220D02*
X019735Y005220D01*
X019735Y005278D02*
X018340Y005278D01*
X018340Y005337D02*
X019735Y005337D01*
X019735Y005395D02*
X018340Y005395D01*
X018340Y005454D02*
X019735Y005454D01*
X019735Y005512D02*
X018333Y005512D01*
X018274Y005571D02*
X019735Y005571D01*
X019735Y005629D02*
X018216Y005629D01*
X018157Y005688D02*
X019735Y005688D01*
X019735Y005746D02*
X018099Y005746D01*
X018040Y005805D02*
X019735Y005805D01*
X019735Y005863D02*
X017982Y005863D01*
X017365Y005922D02*
X019735Y005922D01*
X019735Y005980D02*
X017365Y005980D01*
X017352Y006039D02*
X019735Y006039D01*
X019735Y006097D02*
X017293Y006097D01*
X017097Y006097D02*
X014332Y006097D01*
X014315Y006039D02*
X017038Y006039D01*
X017025Y005980D02*
X014315Y005980D01*
X014315Y005922D02*
X016992Y005922D01*
X016933Y005863D02*
X014315Y005863D01*
X014315Y005805D02*
X016875Y005805D01*
X016825Y005746D02*
X014315Y005746D01*
X014315Y005688D02*
X016825Y005688D01*
X016825Y005629D02*
X014315Y005629D01*
X014345Y005571D02*
X016825Y005571D01*
X016825Y005512D02*
X014365Y005512D01*
X014365Y005454D02*
X016825Y005454D01*
X016860Y005395D02*
X014350Y005395D01*
X014314Y004752D02*
X016304Y004752D01*
X016362Y004693D02*
X014365Y004693D01*
X014365Y004635D02*
X016400Y004635D01*
X016409Y004576D02*
X014365Y004576D01*
X014392Y004518D02*
X014323Y004518D01*
X014315Y004459D02*
X014334Y004459D01*
X014325Y004450D02*
X014325Y004310D01*
X014425Y004210D01*
X014565Y004210D01*
X014665Y004310D01*
X014665Y004450D01*
X014565Y004550D01*
X014425Y004550D01*
X014325Y004450D01*
X014325Y004401D02*
X014285Y004401D01*
X014325Y004342D02*
X014227Y004342D01*
X014168Y004284D02*
X014351Y004284D01*
X014410Y004225D02*
X014110Y004225D01*
X014051Y004167D02*
X014587Y004167D01*
X014580Y004225D02*
X014645Y004225D01*
X014639Y004284D02*
X014704Y004284D01*
X014665Y004342D02*
X014762Y004342D01*
X014821Y004401D02*
X014665Y004401D01*
X014656Y004459D02*
X014879Y004459D01*
X014938Y004518D02*
X014598Y004518D01*
X014203Y004108D02*
X013993Y004108D01*
X013934Y004050D02*
X014145Y004050D01*
X014086Y003991D02*
X013876Y003991D01*
X013817Y003933D02*
X014028Y003933D01*
X013969Y003874D02*
X013759Y003874D01*
X013700Y003816D02*
X013911Y003816D01*
X013852Y003757D02*
X013642Y003757D01*
X013583Y003699D02*
X013794Y003699D01*
X013735Y003640D02*
X013525Y003640D01*
X013466Y003582D02*
X013677Y003582D01*
X013618Y003523D02*
X013408Y003523D01*
X013349Y003465D02*
X013560Y003465D01*
X013501Y003406D02*
X013291Y003406D01*
X013232Y003348D02*
X013443Y003348D01*
X013384Y003289D02*
X013174Y003289D01*
X013115Y003231D02*
X013326Y003231D01*
X013267Y003172D02*
X013057Y003172D01*
X012998Y003114D02*
X013209Y003114D01*
X013175Y003055D02*
X012940Y003055D01*
X012881Y002997D02*
X013175Y002997D01*
X013175Y002938D02*
X012865Y002938D01*
X012867Y002880D02*
X013175Y002880D01*
X013175Y002821D02*
X012856Y002821D01*
X012811Y002763D02*
X013175Y002763D01*
X013124Y002704D02*
X012772Y002704D01*
X012733Y002646D02*
X013066Y002646D01*
X013007Y002587D02*
X007115Y002587D01*
X007115Y002600D02*
X007015Y002700D01*
X006875Y002700D01*
X006825Y002650D01*
X004645Y002650D01*
X004265Y003030D01*
X004265Y003100D01*
X004165Y003200D01*
X004025Y003200D01*
X003925Y003100D01*
X003925Y002960D01*
X004025Y002860D01*
X004095Y002860D01*
X004475Y002480D01*
X004545Y002410D01*
X006825Y002410D01*
X006875Y002360D01*
X007015Y002360D01*
X007115Y002460D01*
X007115Y002600D01*
X007070Y002646D02*
X007460Y002646D01*
X007401Y002704D02*
X004591Y002704D01*
X004532Y002763D02*
X007343Y002763D01*
X007284Y002821D02*
X004474Y002821D01*
X004415Y002880D02*
X007226Y002880D01*
X007167Y002938D02*
X004357Y002938D01*
X004298Y002997D02*
X007109Y002997D01*
X007050Y003055D02*
X004265Y003055D01*
X004252Y003114D02*
X006992Y003114D01*
X006933Y003172D02*
X006577Y003172D01*
X006413Y003172D02*
X004193Y003172D01*
X003997Y003172D02*
X003148Y003172D01*
X003206Y003114D02*
X003938Y003114D01*
X003925Y003055D02*
X003265Y003055D01*
X003323Y002997D02*
X003925Y002997D01*
X003947Y002938D02*
X003382Y002938D01*
X003440Y002880D02*
X004005Y002880D01*
X004134Y002821D02*
X003499Y002821D01*
X003557Y002763D02*
X004193Y002763D01*
X004251Y002704D02*
X003616Y002704D01*
X003674Y002646D02*
X004310Y002646D01*
X004368Y002587D02*
X003733Y002587D01*
X003791Y002529D02*
X004427Y002529D01*
X004485Y002470D02*
X003850Y002470D01*
X003908Y002412D02*
X004544Y002412D01*
X004201Y002119D02*
X012850Y002119D01*
X012850Y002061D02*
X004259Y002061D01*
X004318Y002002D02*
X012908Y002002D01*
X012850Y002178D02*
X004142Y002178D01*
X004084Y002236D02*
X012886Y002236D01*
X012900Y002295D02*
X004025Y002295D01*
X003967Y002353D02*
X012900Y002353D01*
X012900Y002412D02*
X007067Y002412D01*
X007115Y002470D02*
X012900Y002470D01*
X012949Y002529D02*
X007115Y002529D01*
X007507Y002938D02*
X009467Y002938D01*
X009409Y002997D02*
X007448Y002997D01*
X007390Y003055D02*
X009350Y003055D01*
X009292Y003114D02*
X007331Y003114D01*
X007273Y003172D02*
X009163Y003172D01*
X009104Y003231D02*
X007214Y003231D01*
X007156Y003289D02*
X009075Y003289D01*
X009075Y003348D02*
X007097Y003348D01*
X007039Y003406D02*
X009081Y003406D01*
X009139Y003465D02*
X006601Y003465D01*
X006612Y003582D02*
X009128Y003582D01*
X009362Y003582D02*
X011878Y003582D01*
X011881Y003406D02*
X009409Y003406D01*
X009415Y003348D02*
X011825Y003348D01*
X011825Y003289D02*
X009456Y003289D01*
X009514Y003231D02*
X011825Y003231D01*
X011863Y003172D02*
X009573Y003172D01*
X009631Y003114D02*
X011921Y003114D01*
X011950Y003055D02*
X009690Y003055D01*
X009526Y002880D02*
X007565Y002880D01*
X006354Y003231D02*
X003089Y003231D01*
X003031Y003289D02*
X006325Y003289D01*
X006325Y003348D02*
X002972Y003348D01*
X002914Y003406D02*
X006331Y003406D01*
X006389Y003465D02*
X002855Y003465D01*
X002797Y003523D02*
X012567Y003523D01*
X012625Y003582D02*
X012112Y003582D01*
X012165Y003640D02*
X012684Y003640D01*
X012742Y003699D02*
X012483Y003699D01*
X012542Y003757D02*
X012801Y003757D01*
X012859Y003816D02*
X012600Y003816D01*
X012659Y003874D02*
X012918Y003874D01*
X012976Y003933D02*
X012717Y003933D01*
X012776Y003991D02*
X013035Y003991D01*
X013093Y004050D02*
X012815Y004050D01*
X012815Y004108D02*
X013152Y004108D01*
X013200Y004167D02*
X012815Y004167D01*
X012815Y004225D02*
X013200Y004225D01*
X013200Y004284D02*
X012815Y004284D01*
X012815Y004342D02*
X013200Y004342D01*
X013200Y004401D02*
X012835Y004401D01*
X012894Y004459D02*
X013200Y004459D01*
X013192Y004518D02*
X012952Y004518D01*
X013011Y004576D02*
X013150Y004576D01*
X013150Y004635D02*
X013069Y004635D01*
X013128Y004693D02*
X013150Y004693D01*
X013186Y004752D02*
X013201Y004752D01*
X012889Y005044D02*
X012729Y005044D01*
X012787Y005103D02*
X012948Y005103D01*
X012975Y005130D02*
X012345Y004500D01*
X012245Y004500D01*
X012175Y004430D01*
X012165Y004420D01*
X012165Y004550D01*
X012122Y004593D01*
X012399Y004910D01*
X012595Y004910D01*
X012820Y005135D01*
X012980Y005135D01*
X012975Y005130D01*
X012831Y004986D02*
X012670Y004986D01*
X012612Y004927D02*
X012772Y004927D01*
X012714Y004869D02*
X012363Y004869D01*
X012312Y004810D02*
X012655Y004810D01*
X012597Y004752D02*
X012261Y004752D01*
X012210Y004693D02*
X012538Y004693D01*
X012480Y004635D02*
X012158Y004635D01*
X012139Y004576D02*
X012421Y004576D01*
X012363Y004518D02*
X012165Y004518D01*
X012165Y004459D02*
X012204Y004459D01*
X012029Y004284D02*
X002490Y004284D01*
X002490Y004342D02*
X006393Y004342D01*
X006334Y004401D02*
X002490Y004401D01*
X002490Y004459D02*
X006325Y004459D01*
X006325Y004518D02*
X002490Y004518D01*
X002490Y004576D02*
X006351Y004576D01*
X006409Y004635D02*
X002490Y004635D01*
X002490Y004693D02*
X004167Y004693D01*
X004125Y004752D02*
X002490Y004752D01*
X002490Y004810D02*
X004125Y004810D01*
X004125Y004869D02*
X002490Y004869D01*
X002490Y004927D02*
X004177Y004927D01*
X004413Y004927D02*
X006383Y004927D01*
X006325Y004986D02*
X002490Y004986D01*
X002490Y005044D02*
X006325Y005044D01*
X006325Y005103D02*
X002490Y005103D01*
X002490Y005161D02*
X006361Y005161D01*
X006419Y005220D02*
X002490Y005220D01*
X002490Y005278D02*
X008748Y005278D01*
X008690Y005220D02*
X006571Y005220D01*
X005870Y005750D02*
X006270Y006150D01*
X009170Y006150D01*
X009265Y006055D01*
X009370Y005950D01*
X010020Y005950D01*
X010125Y006055D01*
X010125Y006140D01*
X010295Y006310D01*
X010365Y006380D01*
X010365Y006685D01*
X010415Y006735D01*
X010415Y006875D01*
X010315Y006975D01*
X010175Y006975D01*
X010075Y006875D01*
X010075Y006735D01*
X010125Y006685D01*
X010125Y006480D01*
X009955Y006310D01*
X009740Y006310D01*
X009790Y006360D01*
X009790Y006500D01*
X009740Y006550D01*
X009740Y007030D01*
X010470Y007760D01*
X010540Y007760D01*
X010640Y007860D01*
X010640Y008000D01*
X010540Y008100D01*
X010400Y008100D01*
X010300Y008000D01*
X010300Y007930D01*
X009570Y007200D01*
X009500Y007130D01*
X009500Y006550D01*
X009450Y006500D01*
X009450Y006380D01*
X009320Y006510D01*
X008515Y006510D01*
X008515Y006710D01*
X008565Y006760D01*
X008565Y006900D01*
X008465Y007000D01*
X008325Y007000D01*
X008225Y006900D01*
X008225Y006760D01*
X008275Y006710D01*
X008275Y006510D01*
X006840Y006510D01*
X006840Y006710D01*
X006890Y006760D01*
X006890Y006900D01*
X006790Y007000D01*
X006650Y007000D01*
X006550Y006900D01*
X006550Y006760D01*
X006600Y006710D01*
X006600Y006510D01*
X006120Y006510D01*
X006015Y006405D01*
X005720Y006110D01*
X003670Y006110D01*
X002670Y007110D01*
X002225Y007110D01*
X002225Y007284D01*
X002149Y007360D01*
X001525Y007360D01*
X001525Y011155D01*
X004463Y014093D01*
X011827Y014093D01*
X013858Y012063D01*
X013800Y012005D01*
X013800Y011655D01*
X013870Y011585D01*
X015220Y011585D01*
X015290Y011655D01*
X015290Y012005D01*
X015220Y012075D01*
X014225Y012075D01*
X014225Y012205D01*
X014120Y012310D01*
X011976Y014453D01*
X004314Y014453D01*
X004208Y014348D01*
X001270Y011410D01*
X001165Y011305D01*
X001165Y007360D01*
X001091Y007360D01*
X001075Y007344D01*
X001075Y011376D01*
X004349Y014650D01*
X012116Y014650D01*
X014125Y012641D01*
X014125Y012610D01*
X014225Y012510D01*
X014365Y012510D01*
X014465Y012610D01*
X014465Y012750D01*
X014365Y012850D01*
X014284Y012850D01*
X012224Y014910D01*
X004241Y014910D01*
X000891Y011560D01*
X000815Y011484D01*
X000815Y006676D01*
X001515Y005976D01*
X001515Y003040D01*
X001475Y003000D01*
X001475Y002860D01*
X001575Y002760D01*
X001715Y002760D01*
X001815Y002860D01*
X001815Y003000D01*
X001775Y003040D01*
X001775Y006084D01*
X001699Y006160D01*
X001159Y006700D01*
X001199Y006700D01*
X002149Y006700D01*
X002199Y006750D01*
X002520Y006750D01*
X003415Y005855D01*
X003520Y005750D01*
X005870Y005750D01*
X005924Y005805D02*
X006455Y005805D01*
X006500Y005760D02*
X006640Y005760D01*
X006740Y005860D01*
X006740Y006000D01*
X006640Y006100D01*
X006500Y006100D01*
X006400Y006000D01*
X006400Y005860D01*
X006500Y005760D01*
X006400Y005863D02*
X005983Y005863D01*
X006041Y005922D02*
X006400Y005922D01*
X006400Y005980D02*
X006100Y005980D01*
X006158Y006039D02*
X006438Y006039D01*
X006497Y006097D02*
X006217Y006097D01*
X005941Y006331D02*
X003449Y006331D01*
X003507Y006273D02*
X005883Y006273D01*
X005824Y006214D02*
X003566Y006214D01*
X003624Y006156D02*
X005766Y006156D01*
X006000Y006390D02*
X004845Y006390D01*
X004815Y006360D02*
X004915Y006460D01*
X004915Y006600D01*
X004875Y006640D01*
X004875Y006701D01*
X005974Y007800D01*
X007060Y007800D01*
X007100Y007760D01*
X007240Y007760D01*
X007340Y007860D01*
X007340Y008000D01*
X007240Y008100D01*
X007100Y008100D01*
X007060Y008060D01*
X005866Y008060D01*
X005790Y007984D01*
X004615Y006809D01*
X004615Y006640D01*
X004575Y006600D01*
X004575Y006460D01*
X004675Y006360D01*
X004815Y006360D01*
X004903Y006448D02*
X006058Y006448D01*
X006117Y006507D02*
X004915Y006507D01*
X004915Y006565D02*
X006600Y006565D01*
X006600Y006624D02*
X004892Y006624D01*
X004875Y006682D02*
X006600Y006682D01*
X006569Y006741D02*
X004914Y006741D01*
X004973Y006799D02*
X006550Y006799D01*
X006550Y006858D02*
X005031Y006858D01*
X005090Y006916D02*
X006566Y006916D01*
X006624Y006975D02*
X005148Y006975D01*
X005207Y007033D02*
X007465Y007033D01*
X007465Y007087D02*
X007465Y006865D01*
X007425Y006825D01*
X007425Y006685D01*
X007525Y006585D01*
X007665Y006585D01*
X007765Y006685D01*
X007765Y006825D01*
X007725Y006865D01*
X007725Y006980D01*
X008544Y007799D01*
X008711Y007799D01*
X008750Y007760D01*
X008890Y007760D01*
X008990Y007860D01*
X008990Y008000D01*
X008890Y008100D01*
X008750Y008100D01*
X008708Y008059D01*
X008436Y008059D01*
X007465Y007087D01*
X007469Y007092D02*
X005265Y007092D01*
X005324Y007150D02*
X007528Y007150D01*
X007586Y007209D02*
X005382Y007209D01*
X005441Y007267D02*
X007645Y007267D01*
X007703Y007326D02*
X005499Y007326D01*
X005558Y007384D02*
X007762Y007384D01*
X007820Y007443D02*
X005616Y007443D01*
X005675Y007501D02*
X007879Y007501D01*
X007937Y007560D02*
X005733Y007560D01*
X005792Y007618D02*
X007996Y007618D01*
X008054Y007677D02*
X005850Y007677D01*
X005909Y007735D02*
X008113Y007735D01*
X008171Y007794D02*
X007274Y007794D01*
X007332Y007852D02*
X008230Y007852D01*
X008288Y007911D02*
X007340Y007911D01*
X007340Y007969D02*
X008347Y007969D01*
X008405Y008028D02*
X007313Y008028D01*
X007254Y008086D02*
X008736Y008086D01*
X008904Y008086D02*
X010386Y008086D01*
X010327Y008028D02*
X008963Y008028D01*
X008990Y007969D02*
X010300Y007969D01*
X010281Y007911D02*
X008990Y007911D01*
X008982Y007852D02*
X010222Y007852D01*
X010164Y007794D02*
X008924Y007794D01*
X008716Y007794D02*
X008539Y007794D01*
X008480Y007735D02*
X010105Y007735D01*
X010047Y007677D02*
X008422Y007677D01*
X008363Y007618D02*
X009988Y007618D01*
X009930Y007560D02*
X008305Y007560D01*
X008246Y007501D02*
X009871Y007501D01*
X009813Y007443D02*
X008188Y007443D01*
X008129Y007384D02*
X009754Y007384D01*
X009696Y007326D02*
X008071Y007326D01*
X008012Y007267D02*
X009637Y007267D01*
X009579Y007209D02*
X007954Y007209D01*
X007895Y007150D02*
X009520Y007150D01*
X009500Y007092D02*
X007837Y007092D01*
X007778Y007033D02*
X009500Y007033D01*
X009500Y006975D02*
X008491Y006975D01*
X008549Y006916D02*
X009500Y006916D01*
X009500Y006858D02*
X008565Y006858D01*
X008565Y006799D02*
X009500Y006799D01*
X009500Y006741D02*
X008546Y006741D01*
X008515Y006682D02*
X009500Y006682D01*
X009500Y006624D02*
X008515Y006624D01*
X008515Y006565D02*
X009500Y006565D01*
X009456Y006507D02*
X009323Y006507D01*
X009382Y006448D02*
X009450Y006448D01*
X009440Y006390D02*
X009450Y006390D01*
X009223Y006097D02*
X006643Y006097D01*
X006702Y006039D02*
X009282Y006039D01*
X009340Y005980D02*
X006740Y005980D01*
X006740Y005922D02*
X012025Y005922D01*
X012025Y005980D02*
X010050Y005980D01*
X010108Y006039D02*
X012025Y006039D01*
X012025Y006097D02*
X010125Y006097D01*
X010140Y006156D02*
X012051Y006156D01*
X012095Y006200D02*
X012095Y006200D01*
X012109Y006214D02*
X011744Y006214D01*
X011790Y006260D02*
X011690Y006160D01*
X011550Y006160D01*
X011450Y006260D01*
X011450Y006400D01*
X011550Y006500D01*
X011690Y006500D01*
X011790Y006400D01*
X011790Y006260D01*
X011790Y006273D02*
X012168Y006273D01*
X012426Y006331D02*
X011790Y006331D01*
X011790Y006390D02*
X012485Y006390D01*
X012543Y006448D02*
X011742Y006448D01*
X011498Y006448D02*
X010365Y006448D01*
X010365Y006390D02*
X011450Y006390D01*
X011450Y006331D02*
X010316Y006331D01*
X010257Y006273D02*
X011450Y006273D01*
X011496Y006214D02*
X010199Y006214D01*
X010035Y006390D02*
X009790Y006390D01*
X009790Y006448D02*
X010093Y006448D01*
X010125Y006507D02*
X009784Y006507D01*
X009740Y006565D02*
X010125Y006565D01*
X010125Y006624D02*
X009740Y006624D01*
X009740Y006682D02*
X010125Y006682D01*
X010075Y006741D02*
X009740Y006741D01*
X009740Y006799D02*
X010075Y006799D01*
X010075Y006858D02*
X009740Y006858D01*
X009740Y006916D02*
X010116Y006916D01*
X010174Y006975D02*
X009740Y006975D01*
X009743Y007033D02*
X013625Y007033D01*
X013625Y007092D02*
X009801Y007092D01*
X009860Y007150D02*
X013625Y007150D01*
X013625Y007209D02*
X009918Y007209D01*
X009977Y007267D02*
X013625Y007267D01*
X013625Y007326D02*
X010035Y007326D01*
X010094Y007384D02*
X013625Y007384D01*
X013625Y007443D02*
X010152Y007443D01*
X010211Y007501D02*
X013625Y007501D01*
X013625Y007560D02*
X010269Y007560D01*
X010328Y007618D02*
X013625Y007618D01*
X013625Y007677D02*
X010386Y007677D01*
X010445Y007735D02*
X013625Y007735D01*
X013625Y007794D02*
X010574Y007794D01*
X010632Y007852D02*
X013625Y007852D01*
X013625Y007911D02*
X010640Y007911D01*
X010640Y007969D02*
X013625Y007969D01*
X013625Y008028D02*
X010613Y008028D01*
X010554Y008086D02*
X013568Y008086D01*
X013510Y008145D02*
X001525Y008145D01*
X001525Y008203D02*
X013451Y008203D01*
X013393Y008262D02*
X001525Y008262D01*
X001525Y008320D02*
X013334Y008320D01*
X013276Y008379D02*
X001525Y008379D01*
X001525Y008437D02*
X013217Y008437D01*
X013159Y008496D02*
X001525Y008496D01*
X001525Y008554D02*
X013100Y008554D01*
X013042Y008613D02*
X011018Y008613D01*
X010990Y008585D02*
X011090Y008685D01*
X011090Y008825D01*
X010990Y008925D01*
X010920Y008925D01*
X010770Y009075D01*
X009340Y009075D01*
X009290Y009125D01*
X009150Y009125D01*
X009050Y009025D01*
X009050Y008885D01*
X009150Y008785D01*
X009290Y008785D01*
X009340Y008835D01*
X010670Y008835D01*
X010750Y008755D01*
X010750Y008685D01*
X010850Y008585D01*
X010990Y008585D01*
X011076Y008671D02*
X012983Y008671D01*
X012925Y008730D02*
X011090Y008730D01*
X011090Y008788D02*
X012866Y008788D01*
X012808Y008847D02*
X011069Y008847D01*
X011010Y008905D02*
X012749Y008905D01*
X012691Y008964D02*
X010881Y008964D01*
X010823Y009022D02*
X012632Y009022D01*
X012574Y009081D02*
X009335Y009081D01*
X009105Y009081D02*
X008986Y009081D01*
X009015Y009110D02*
X009015Y009250D01*
X008915Y009350D01*
X008775Y009350D01*
X008675Y009250D01*
X008675Y009180D01*
X008595Y009100D01*
X007690Y009100D01*
X007640Y009150D01*
X007500Y009150D01*
X007400Y009050D01*
X007400Y008910D01*
X007500Y008810D01*
X007640Y008810D01*
X007690Y008860D01*
X008695Y008860D01*
X008845Y009010D01*
X008915Y009010D01*
X009015Y009110D01*
X009015Y009139D02*
X012016Y009139D01*
X011958Y009198D02*
X009015Y009198D01*
X009009Y009256D02*
X011899Y009256D01*
X011841Y009315D02*
X008951Y009315D01*
X009053Y009432D02*
X007612Y009432D01*
X007565Y009385D02*
X007665Y009485D01*
X007665Y009625D01*
X007565Y009725D01*
X007425Y009725D01*
X007325Y009625D01*
X007325Y009485D01*
X007425Y009385D01*
X007565Y009385D01*
X007665Y009490D02*
X008995Y009490D01*
X008975Y009510D02*
X009075Y009410D01*
X009215Y009410D01*
X009315Y009510D01*
X009315Y009650D01*
X009215Y009750D01*
X009075Y009750D01*
X008975Y009650D01*
X008975Y009510D01*
X008975Y009549D02*
X007665Y009549D01*
X007665Y009607D02*
X008975Y009607D01*
X008990Y009666D02*
X007625Y009666D01*
X007566Y009724D02*
X009049Y009724D01*
X009241Y009724D02*
X010674Y009724D01*
X010625Y009675D02*
X010625Y009535D01*
X010725Y009435D01*
X010865Y009435D01*
X010965Y009535D01*
X010965Y009675D01*
X010865Y009775D01*
X010725Y009775D01*
X010625Y009675D01*
X010625Y009666D02*
X009300Y009666D01*
X009315Y009607D02*
X010625Y009607D01*
X010625Y009549D02*
X009315Y009549D01*
X009295Y009490D02*
X010670Y009490D01*
X010920Y009490D02*
X011665Y009490D01*
X011607Y009549D02*
X010965Y009549D01*
X010965Y009607D02*
X011548Y009607D01*
X011490Y009666D02*
X010965Y009666D01*
X010916Y009724D02*
X011431Y009724D01*
X011373Y009783D02*
X001525Y009783D01*
X001525Y009841D02*
X011314Y009841D01*
X011256Y009900D02*
X001525Y009900D01*
X001525Y009958D02*
X011197Y009958D01*
X011139Y010017D02*
X001525Y010017D01*
X001525Y010075D02*
X009893Y010075D01*
X009834Y010134D02*
X001525Y010134D01*
X001525Y010192D02*
X009776Y010192D01*
X009717Y010251D02*
X001525Y010251D01*
X001525Y010309D02*
X009659Y010309D01*
X009600Y010368D02*
X001525Y010368D01*
X001525Y010426D02*
X009542Y010426D01*
X009483Y010485D02*
X005605Y010485D01*
X005590Y010476D02*
X005620Y010493D01*
X005644Y010518D01*
X005661Y010547D01*
X005670Y010580D01*
X005670Y010863D01*
X005275Y010863D01*
X005275Y010923D01*
X005215Y010923D01*
X005215Y011318D01*
X004933Y011318D01*
X004900Y011309D01*
X004870Y011292D01*
X004846Y011268D01*
X004829Y011238D01*
X004820Y011205D01*
X004820Y010923D01*
X005215Y010923D01*
X005215Y010863D01*
X004820Y010863D01*
X004820Y010580D01*
X004829Y010547D01*
X004846Y010518D01*
X004870Y010493D01*
X004900Y010476D01*
X004933Y010467D01*
X005215Y010467D01*
X005215Y010863D01*
X005275Y010863D01*
X005275Y010467D01*
X005557Y010467D01*
X005590Y010476D01*
X005659Y010543D02*
X006108Y010543D01*
X006170Y010517D02*
X006320Y010517D01*
X006458Y010574D01*
X006563Y010680D01*
X006620Y010818D01*
X006620Y010967D01*
X006563Y011105D01*
X006458Y011211D01*
X006320Y011268D01*
X006170Y011268D01*
X006088Y011234D01*
X005875Y011446D01*
X005875Y011805D01*
X005927Y011680D01*
X006032Y011574D01*
X006170Y011517D01*
X006320Y011517D01*
X006458Y011574D01*
X006563Y011680D01*
X006615Y011805D01*
X006615Y011339D01*
X006904Y011050D01*
X006870Y010967D01*
X006870Y010818D01*
X006927Y010680D01*
X007032Y010574D01*
X007170Y010517D01*
X007320Y010517D01*
X007458Y010574D01*
X007563Y010680D01*
X007620Y010818D01*
X007620Y010967D01*
X007563Y011105D01*
X007458Y011211D01*
X007320Y011268D01*
X007170Y011268D01*
X007088Y011234D01*
X006875Y011446D01*
X006875Y011805D01*
X006927Y011680D01*
X007032Y011574D01*
X007170Y011517D01*
X007320Y011517D01*
X007458Y011574D01*
X007563Y011680D01*
X007620Y011818D01*
X007620Y011967D01*
X007563Y012105D01*
X007458Y012211D01*
X007320Y012268D01*
X007170Y012268D01*
X007032Y012211D01*
X006927Y012105D01*
X006875Y011980D01*
X006875Y012126D01*
X007121Y012372D01*
X007121Y012506D01*
X007221Y012506D01*
X007268Y012553D01*
X007268Y013407D01*
X007221Y013454D01*
X006761Y013454D01*
X006745Y013438D01*
X006729Y013454D01*
X006269Y013454D01*
X006222Y013407D01*
X006222Y013110D01*
X006205Y013110D01*
X006165Y013150D01*
X006025Y013150D01*
X005925Y013050D01*
X005925Y012910D01*
X006025Y012810D01*
X006165Y012810D01*
X006205Y012850D01*
X006222Y012850D01*
X006222Y012553D01*
X006269Y012506D01*
X006729Y012506D01*
X006745Y012522D01*
X006761Y012506D01*
X006861Y012506D01*
X006861Y012480D01*
X006691Y012310D01*
X006615Y012234D01*
X006615Y011980D01*
X006563Y012105D01*
X006458Y012211D01*
X006320Y012268D01*
X006170Y012268D01*
X006032Y012211D01*
X005927Y012105D01*
X005875Y011980D01*
X005875Y012284D01*
X005799Y012360D01*
X005671Y012488D01*
X005671Y012506D01*
X005771Y012506D01*
X005818Y012553D01*
X005818Y013407D01*
X005771Y013454D01*
X005311Y013454D01*
X005295Y013438D01*
X005279Y013454D01*
X004819Y013454D01*
X004772Y013407D01*
X004772Y013137D01*
X004682Y013227D01*
X004715Y013260D01*
X004715Y013400D01*
X004615Y013500D01*
X004475Y013500D01*
X004375Y013400D01*
X004375Y013260D01*
X004415Y013220D01*
X004415Y013126D01*
X004491Y013050D01*
X004691Y012850D01*
X004772Y012850D01*
X004772Y012553D01*
X004819Y012506D01*
X005279Y012506D01*
X005295Y012522D01*
X005311Y012506D01*
X005411Y012506D01*
X005411Y012380D01*
X005615Y012176D01*
X005615Y011980D01*
X005563Y012105D01*
X005458Y012211D01*
X005320Y012268D01*
X005170Y012268D01*
X005032Y012211D01*
X004927Y012105D01*
X004870Y011967D01*
X004870Y011818D01*
X004927Y011680D01*
X005032Y011574D01*
X005170Y011517D01*
X005320Y011517D01*
X005458Y011574D01*
X005563Y011680D01*
X005615Y011805D01*
X005615Y011339D01*
X005904Y011050D01*
X005870Y010967D01*
X005870Y010818D01*
X005927Y010680D01*
X006032Y010574D01*
X006170Y010517D01*
X006005Y010602D02*
X005670Y010602D01*
X005670Y010660D02*
X005947Y010660D01*
X005911Y010719D02*
X005670Y010719D01*
X005670Y010777D02*
X005887Y010777D01*
X005870Y010836D02*
X005670Y010836D01*
X005670Y010923D02*
X005670Y011205D01*
X005661Y011238D01*
X005644Y011268D01*
X005620Y011292D01*
X005590Y011309D01*
X005557Y011318D01*
X005275Y011318D01*
X005275Y010923D01*
X005670Y010923D01*
X005670Y010953D02*
X005870Y010953D01*
X005870Y010894D02*
X005275Y010894D01*
X005275Y010836D02*
X005215Y010836D01*
X005215Y010894D02*
X001525Y010894D01*
X001525Y010836D02*
X004820Y010836D01*
X004820Y010777D02*
X001525Y010777D01*
X001525Y010719D02*
X004820Y010719D01*
X004820Y010660D02*
X001525Y010660D01*
X001525Y010602D02*
X004820Y010602D01*
X004831Y010543D02*
X001525Y010543D01*
X001525Y010485D02*
X004885Y010485D01*
X005215Y010485D02*
X005275Y010485D01*
X005275Y010543D02*
X005215Y010543D01*
X005215Y010602D02*
X005275Y010602D01*
X005275Y010660D02*
X005215Y010660D01*
X005215Y010719D02*
X005275Y010719D01*
X005275Y010777D02*
X005215Y010777D01*
X005215Y010953D02*
X005275Y010953D01*
X005275Y011011D02*
X005215Y011011D01*
X005215Y011070D02*
X005275Y011070D01*
X005275Y011128D02*
X005215Y011128D01*
X005215Y011187D02*
X005275Y011187D01*
X005275Y011245D02*
X005215Y011245D01*
X005215Y011304D02*
X005275Y011304D01*
X005600Y011304D02*
X005650Y011304D01*
X005657Y011245D02*
X005709Y011245D01*
X005670Y011187D02*
X005767Y011187D01*
X005826Y011128D02*
X005670Y011128D01*
X005670Y011070D02*
X005884Y011070D01*
X005888Y011011D02*
X005670Y011011D01*
X006018Y011304D02*
X006650Y011304D01*
X006615Y011362D02*
X005959Y011362D01*
X005901Y011421D02*
X006615Y011421D01*
X006615Y011479D02*
X005875Y011479D01*
X005875Y011538D02*
X006122Y011538D01*
X006011Y011596D02*
X005875Y011596D01*
X005875Y011655D02*
X005952Y011655D01*
X005913Y011713D02*
X005875Y011713D01*
X005875Y011772D02*
X005889Y011772D01*
X005875Y012006D02*
X005886Y012006D01*
X005875Y012064D02*
X005910Y012064D01*
X005875Y012123D02*
X005944Y012123D01*
X006003Y012181D02*
X005875Y012181D01*
X005875Y012240D02*
X006102Y012240D01*
X005861Y012298D02*
X006679Y012298D01*
X006621Y012240D02*
X006388Y012240D01*
X006487Y012181D02*
X006615Y012181D01*
X006615Y012123D02*
X006546Y012123D01*
X006580Y012064D02*
X006615Y012064D01*
X006615Y012006D02*
X006604Y012006D01*
X006601Y011772D02*
X006615Y011772D01*
X006615Y011713D02*
X006577Y011713D01*
X006538Y011655D02*
X006615Y011655D01*
X006615Y011596D02*
X006479Y011596D01*
X006368Y011538D02*
X006615Y011538D01*
X006875Y011538D02*
X007122Y011538D01*
X007011Y011596D02*
X006875Y011596D01*
X006875Y011655D02*
X006952Y011655D01*
X006913Y011713D02*
X006875Y011713D01*
X006875Y011772D02*
X006889Y011772D01*
X006875Y012006D02*
X006886Y012006D01*
X006875Y012064D02*
X006910Y012064D01*
X006875Y012123D02*
X006944Y012123D01*
X006930Y012181D02*
X007003Y012181D01*
X006988Y012240D02*
X007102Y012240D01*
X007047Y012298D02*
X008393Y012298D01*
X008388Y012240D02*
X008452Y012240D01*
X008487Y012181D02*
X008510Y012181D01*
X008546Y012123D02*
X008569Y012123D01*
X008580Y012064D02*
X008615Y012064D01*
X008615Y012006D02*
X008604Y012006D01*
X008819Y012240D02*
X009102Y012240D01*
X009003Y012181D02*
X008875Y012181D01*
X008875Y012123D02*
X008944Y012123D01*
X008910Y012064D02*
X008875Y012064D01*
X008875Y012006D02*
X008886Y012006D01*
X008761Y012298D02*
X010893Y012298D01*
X010835Y012357D02*
X008702Y012357D01*
X008644Y012415D02*
X010776Y012415D01*
X010718Y012474D02*
X008621Y012474D01*
X008747Y012532D02*
X010659Y012532D01*
X010601Y012591D02*
X008768Y012591D01*
X008768Y012649D02*
X010542Y012649D01*
X010484Y012708D02*
X008768Y012708D01*
X008768Y012766D02*
X010425Y012766D01*
X010367Y012825D02*
X008768Y012825D01*
X008768Y012883D02*
X010308Y012883D01*
X010250Y012942D02*
X008768Y012942D01*
X008768Y013000D02*
X010191Y013000D01*
X010133Y013059D02*
X008768Y013059D01*
X008768Y013117D02*
X010074Y013117D01*
X010016Y013176D02*
X008768Y013176D01*
X008768Y013234D02*
X009957Y013234D01*
X009899Y013293D02*
X008768Y013293D01*
X008768Y013351D02*
X009840Y013351D01*
X009782Y013410D02*
X008765Y013410D01*
X009606Y013585D02*
X004484Y013585D01*
X004425Y013527D02*
X009665Y013527D01*
X009723Y013468D02*
X004647Y013468D01*
X004706Y013410D02*
X004775Y013410D01*
X004772Y013351D02*
X004715Y013351D01*
X004715Y013293D02*
X004772Y013293D01*
X004772Y013234D02*
X004689Y013234D01*
X004733Y013176D02*
X004772Y013176D01*
X004541Y013000D02*
X003899Y013000D01*
X003957Y013059D02*
X004483Y013059D01*
X004424Y013117D02*
X004016Y013117D01*
X004074Y013176D02*
X004415Y013176D01*
X004401Y013234D02*
X004133Y013234D01*
X004191Y013293D02*
X004375Y013293D01*
X004375Y013351D02*
X004250Y013351D01*
X004308Y013410D02*
X004384Y013410D01*
X004367Y013468D02*
X004443Y013468D01*
X004233Y013702D02*
X004072Y013702D01*
X004130Y013761D02*
X004292Y013761D01*
X004350Y013819D02*
X004189Y013819D01*
X004247Y013878D02*
X012043Y013878D01*
X011984Y013936D02*
X004306Y013936D01*
X004364Y013995D02*
X011926Y013995D01*
X011867Y014053D02*
X004423Y014053D01*
X004089Y014229D02*
X003927Y014229D01*
X003986Y014287D02*
X004148Y014287D01*
X004206Y014346D02*
X004044Y014346D01*
X004103Y014404D02*
X004265Y014404D01*
X004161Y014463D02*
X012304Y014463D01*
X012245Y014521D02*
X004220Y014521D01*
X004278Y014580D02*
X012187Y014580D01*
X012128Y014638D02*
X004337Y014638D01*
X004145Y014814D02*
X002284Y014814D01*
X002345Y014843D02*
X002857Y014960D01*
X003120Y014975D01*
X013570Y014975D01*
X013686Y014964D01*
X013901Y014875D01*
X014065Y014711D01*
X014154Y014496D01*
X014165Y014380D01*
X014165Y013525D01*
X014135Y013525D01*
X014035Y013425D01*
X014035Y013285D01*
X014135Y013185D01*
X014275Y013185D01*
X014320Y013230D01*
X014365Y013185D01*
X014505Y013185D01*
X014605Y013285D01*
X014605Y013425D01*
X014505Y013525D01*
X014475Y013525D01*
X014475Y014523D01*
X014386Y014796D01*
X014218Y015028D01*
X013986Y015196D01*
X013713Y015285D01*
X002821Y015285D01*
X002238Y015152D01*
X002238Y015152D01*
X001699Y014892D01*
X001699Y014892D01*
X001231Y014519D01*
X000858Y014051D01*
X000598Y013512D01*
X000465Y012929D01*
X000465Y006575D01*
X000435Y006575D01*
X000335Y006475D01*
X000335Y006335D01*
X000435Y006235D01*
X000575Y006235D01*
X000620Y006280D01*
X000665Y006235D01*
X000805Y006235D01*
X000905Y006335D01*
X000905Y006475D01*
X000805Y006575D01*
X000775Y006575D01*
X000775Y012630D01*
X000790Y012893D01*
X000907Y013405D01*
X001134Y013878D01*
X001435Y014255D01*
X001344Y014034D01*
X001344Y013788D01*
X001438Y013560D01*
X001613Y013385D01*
X001841Y013291D01*
X002087Y013291D01*
X002315Y013385D01*
X002490Y013560D01*
X002584Y013788D01*
X002584Y014034D01*
X002490Y014262D01*
X002315Y014437D01*
X002087Y014531D01*
X001841Y014531D01*
X001686Y014467D01*
X001872Y014616D01*
X002345Y014843D01*
X002471Y014872D02*
X004203Y014872D01*
X004086Y014755D02*
X002162Y014755D01*
X002041Y014697D02*
X004028Y014697D01*
X003969Y014638D02*
X001919Y014638D01*
X001827Y014580D02*
X003911Y014580D01*
X003852Y014521D02*
X002111Y014521D01*
X002253Y014463D02*
X003794Y014463D01*
X003735Y014404D02*
X002348Y014404D01*
X002406Y014346D02*
X003677Y014346D01*
X003618Y014287D02*
X002465Y014287D01*
X002503Y014229D02*
X003560Y014229D01*
X003501Y014170D02*
X002528Y014170D01*
X002552Y014112D02*
X003443Y014112D01*
X003384Y014053D02*
X002576Y014053D01*
X002584Y013995D02*
X003326Y013995D01*
X003267Y013936D02*
X002584Y013936D01*
X002584Y013878D02*
X003209Y013878D01*
X003150Y013819D02*
X002584Y013819D01*
X002573Y013761D02*
X003092Y013761D01*
X003033Y013702D02*
X002548Y013702D01*
X002524Y013644D02*
X002975Y013644D01*
X002916Y013585D02*
X002500Y013585D01*
X002456Y013527D02*
X002858Y013527D01*
X002799Y013468D02*
X002398Y013468D01*
X002339Y013410D02*
X002741Y013410D01*
X002682Y013351D02*
X002232Y013351D01*
X002091Y013293D02*
X002624Y013293D01*
X002565Y013234D02*
X000868Y013234D01*
X000881Y013293D02*
X001837Y013293D01*
X001696Y013351D02*
X000894Y013351D01*
X000909Y013410D02*
X001589Y013410D01*
X001530Y013468D02*
X000937Y013468D01*
X000965Y013527D02*
X001472Y013527D01*
X001428Y013585D02*
X000994Y013585D01*
X001022Y013644D02*
X001404Y013644D01*
X001379Y013702D02*
X001050Y013702D01*
X001078Y013761D02*
X001355Y013761D01*
X001344Y013819D02*
X001106Y013819D01*
X001134Y013878D02*
X001344Y013878D01*
X001344Y013936D02*
X001181Y013936D01*
X001228Y013995D02*
X001344Y013995D01*
X001352Y014053D02*
X001274Y014053D01*
X001321Y014112D02*
X001376Y014112D01*
X001368Y014170D02*
X001400Y014170D01*
X001414Y014229D02*
X001424Y014229D01*
X001186Y014463D02*
X001006Y014463D01*
X001064Y014521D02*
X001233Y014521D01*
X001231Y014519D02*
X001231Y014519D01*
X001231Y014519D01*
X001306Y014580D02*
X001121Y014580D01*
X001179Y014638D02*
X001380Y014638D01*
X001453Y014697D02*
X001237Y014697D01*
X001295Y014755D02*
X001526Y014755D01*
X001600Y014814D02*
X001363Y014814D01*
X001449Y014872D02*
X001673Y014872D01*
X001778Y014931D02*
X001535Y014931D01*
X001621Y014989D02*
X001899Y014989D01*
X002021Y015048D02*
X001708Y015048D01*
X001800Y015106D02*
X002142Y015106D01*
X002077Y015223D02*
X002549Y015223D01*
X002423Y015340D02*
X017610Y015340D01*
X017803Y015282D02*
X013724Y015282D01*
X013904Y015223D02*
X017947Y015223D01*
X018092Y015165D02*
X014030Y015165D01*
X013986Y015196D02*
X013986Y015196D01*
X014110Y015106D02*
X018229Y015106D01*
X018318Y015048D02*
X014191Y015048D01*
X014218Y015028D02*
X014218Y015028D01*
X014218Y015028D01*
X014246Y014989D02*
X018407Y014989D01*
X018496Y014931D02*
X014289Y014931D01*
X014331Y014872D02*
X018585Y014872D01*
X018674Y014814D02*
X014374Y014814D01*
X014386Y014796D02*
X014386Y014796D01*
X014400Y014755D02*
X018736Y014755D01*
X018795Y014697D02*
X014419Y014697D01*
X014438Y014638D02*
X018855Y014638D01*
X018914Y014580D02*
X014457Y014580D01*
X014475Y014521D02*
X017979Y014521D01*
X018003Y014531D02*
X017775Y014437D01*
X017600Y014262D01*
X017506Y014034D01*
X017506Y013788D01*
X017600Y013560D01*
X017775Y013385D01*
X018003Y013291D01*
X018249Y013291D01*
X018477Y013385D01*
X018652Y013560D01*
X018746Y013788D01*
X018746Y014034D01*
X018652Y014262D01*
X018477Y014437D01*
X018249Y014531D01*
X018003Y014531D01*
X017837Y014463D02*
X014475Y014463D01*
X014475Y014404D02*
X017742Y014404D01*
X017684Y014346D02*
X014475Y014346D01*
X014475Y014287D02*
X017625Y014287D01*
X017587Y014229D02*
X014475Y014229D01*
X014475Y014170D02*
X017562Y014170D01*
X017538Y014112D02*
X014475Y014112D01*
X014475Y014053D02*
X017514Y014053D01*
X017506Y013995D02*
X014475Y013995D01*
X014475Y013936D02*
X017506Y013936D01*
X017506Y013878D02*
X014475Y013878D01*
X014475Y013819D02*
X017506Y013819D01*
X017517Y013761D02*
X014475Y013761D01*
X014475Y013702D02*
X017542Y013702D01*
X017566Y013644D02*
X014475Y013644D01*
X014475Y013585D02*
X017590Y013585D01*
X017634Y013527D02*
X014475Y013527D01*
X014562Y013468D02*
X017692Y013468D01*
X017751Y013410D02*
X014605Y013410D01*
X014605Y013351D02*
X017858Y013351D01*
X017999Y013293D02*
X014605Y013293D01*
X014554Y013234D02*
X019651Y013234D01*
X019663Y013176D02*
X013958Y013176D01*
X013900Y013234D02*
X014086Y013234D01*
X014035Y013293D02*
X013841Y013293D01*
X013783Y013351D02*
X014035Y013351D01*
X014035Y013410D02*
X013724Y013410D01*
X013666Y013468D02*
X014078Y013468D01*
X014165Y013527D02*
X013607Y013527D01*
X013549Y013585D02*
X014165Y013585D01*
X014165Y013644D02*
X013490Y013644D01*
X013432Y013702D02*
X014165Y013702D01*
X014165Y013761D02*
X013373Y013761D01*
X013315Y013819D02*
X014165Y013819D01*
X014165Y013878D02*
X013256Y013878D01*
X013198Y013936D02*
X014165Y013936D01*
X014165Y013995D02*
X013139Y013995D01*
X013081Y014053D02*
X014165Y014053D01*
X014165Y014112D02*
X013022Y014112D01*
X012964Y014170D02*
X014165Y014170D01*
X014165Y014229D02*
X012905Y014229D01*
X012847Y014287D02*
X014165Y014287D01*
X014165Y014346D02*
X012788Y014346D01*
X012730Y014404D02*
X014163Y014404D01*
X014157Y014463D02*
X012671Y014463D01*
X012613Y014521D02*
X014143Y014521D01*
X014119Y014580D02*
X012554Y014580D01*
X012496Y014638D02*
X014095Y014638D01*
X014071Y014697D02*
X012437Y014697D01*
X012379Y014755D02*
X014020Y014755D01*
X013962Y014814D02*
X012320Y014814D01*
X012262Y014872D02*
X013903Y014872D01*
X013766Y014931D02*
X002727Y014931D01*
X002806Y015282D02*
X002216Y015282D01*
X002293Y015165D02*
X001938Y015165D01*
X001816Y014521D02*
X001754Y014521D01*
X001139Y014404D02*
X000948Y014404D01*
X000909Y014346D02*
X001092Y014346D01*
X001046Y014287D02*
X000871Y014287D01*
X000832Y014229D02*
X000999Y014229D01*
X000952Y014170D02*
X000794Y014170D01*
X000755Y014112D02*
X000906Y014112D01*
X000859Y014053D02*
X000717Y014053D01*
X000678Y013995D02*
X000830Y013995D01*
X000858Y014051D02*
X000858Y014051D01*
X000802Y013936D02*
X000642Y013936D01*
X000618Y013878D02*
X000774Y013878D01*
X000746Y013819D02*
X000594Y013819D01*
X000571Y013761D02*
X000718Y013761D01*
X000689Y013702D02*
X000547Y013702D01*
X000523Y013644D02*
X000661Y013644D01*
X000633Y013585D02*
X000499Y013585D01*
X000476Y013527D02*
X000605Y013527D01*
X000598Y013512D02*
X000598Y013512D01*
X000588Y013468D02*
X000452Y013468D01*
X000434Y013410D02*
X000575Y013410D01*
X000561Y013351D02*
X000423Y013351D01*
X000412Y013293D02*
X000548Y013293D01*
X000535Y013234D02*
X000401Y013234D01*
X000389Y013176D02*
X000521Y013176D01*
X000508Y013117D02*
X000378Y013117D01*
X000367Y013059D02*
X000495Y013059D01*
X000481Y013000D02*
X000356Y013000D01*
X000344Y012942D02*
X000468Y012942D01*
X000465Y012883D02*
X000336Y012883D01*
X000333Y012825D02*
X000465Y012825D01*
X000465Y012766D02*
X000331Y012766D01*
X000328Y012708D02*
X000465Y012708D01*
X000465Y012649D02*
X000326Y012649D01*
X000325Y012591D02*
X000465Y012591D01*
X000465Y012532D02*
X000325Y012532D01*
X000325Y012474D02*
X000465Y012474D01*
X000465Y012415D02*
X000325Y012415D01*
X000325Y012357D02*
X000465Y012357D01*
X000465Y012298D02*
X000325Y012298D01*
X000325Y012240D02*
X000465Y012240D01*
X000465Y012181D02*
X000325Y012181D01*
X000325Y012123D02*
X000465Y012123D01*
X000465Y012064D02*
X000325Y012064D01*
X000325Y012006D02*
X000465Y012006D01*
X000465Y011947D02*
X000325Y011947D01*
X000325Y011889D02*
X000465Y011889D01*
X000465Y011830D02*
X000325Y011830D01*
X000325Y011772D02*
X000465Y011772D01*
X000465Y011713D02*
X000325Y011713D01*
X000325Y011655D02*
X000465Y011655D01*
X000465Y011596D02*
X000325Y011596D01*
X000325Y011538D02*
X000465Y011538D01*
X000465Y011479D02*
X000325Y011479D01*
X000325Y011421D02*
X000465Y011421D01*
X000465Y011362D02*
X000325Y011362D01*
X000325Y011304D02*
X000465Y011304D01*
X000465Y011245D02*
X000325Y011245D01*
X000325Y011187D02*
X000465Y011187D01*
X000465Y011128D02*
X000325Y011128D01*
X000325Y011070D02*
X000465Y011070D01*
X000465Y011011D02*
X000325Y011011D01*
X000325Y010953D02*
X000465Y010953D01*
X000465Y010894D02*
X000325Y010894D01*
X000325Y010836D02*
X000465Y010836D01*
X000465Y010777D02*
X000325Y010777D01*
X000325Y010719D02*
X000465Y010719D01*
X000465Y010660D02*
X000325Y010660D01*
X000325Y010602D02*
X000465Y010602D01*
X000465Y010543D02*
X000325Y010543D01*
X000325Y010485D02*
X000465Y010485D01*
X000465Y010426D02*
X000325Y010426D01*
X000325Y010368D02*
X000465Y010368D01*
X000465Y010309D02*
X000325Y010309D01*
X000325Y010251D02*
X000465Y010251D01*
X000465Y010192D02*
X000325Y010192D01*
X000325Y010134D02*
X000465Y010134D01*
X000465Y010075D02*
X000325Y010075D01*
X000325Y010017D02*
X000465Y010017D01*
X000465Y009958D02*
X000325Y009958D01*
X000325Y009900D02*
X000465Y009900D01*
X000465Y009841D02*
X000325Y009841D01*
X000325Y009783D02*
X000465Y009783D01*
X000465Y009724D02*
X000325Y009724D01*
X000325Y009666D02*
X000465Y009666D01*
X000465Y009607D02*
X000325Y009607D01*
X000325Y009549D02*
X000465Y009549D01*
X000465Y009490D02*
X000325Y009490D01*
X000325Y009432D02*
X000465Y009432D01*
X000465Y009373D02*
X000325Y009373D01*
X000325Y009315D02*
X000465Y009315D01*
X000465Y009256D02*
X000325Y009256D01*
X000325Y009198D02*
X000465Y009198D01*
X000465Y009139D02*
X000325Y009139D01*
X000325Y009081D02*
X000465Y009081D01*
X000465Y009022D02*
X000325Y009022D01*
X000325Y008964D02*
X000465Y008964D01*
X000465Y008905D02*
X000325Y008905D01*
X000325Y008847D02*
X000465Y008847D01*
X000465Y008788D02*
X000325Y008788D01*
X000325Y008730D02*
X000465Y008730D01*
X000465Y008671D02*
X000325Y008671D01*
X000325Y008613D02*
X000465Y008613D01*
X000465Y008554D02*
X000325Y008554D01*
X000325Y008496D02*
X000465Y008496D01*
X000465Y008437D02*
X000325Y008437D01*
X000325Y008379D02*
X000465Y008379D01*
X000465Y008320D02*
X000325Y008320D01*
X000325Y008262D02*
X000465Y008262D01*
X000465Y008203D02*
X000325Y008203D01*
X000325Y008145D02*
X000465Y008145D01*
X000465Y008086D02*
X000325Y008086D01*
X000325Y008028D02*
X000465Y008028D01*
X000465Y007969D02*
X000325Y007969D01*
X000325Y007911D02*
X000465Y007911D01*
X000465Y007852D02*
X000325Y007852D01*
X000325Y007794D02*
X000465Y007794D01*
X000465Y007735D02*
X000325Y007735D01*
X000325Y007677D02*
X000465Y007677D01*
X000465Y007618D02*
X000325Y007618D01*
X000325Y007560D02*
X000465Y007560D01*
X000465Y007501D02*
X000325Y007501D01*
X000325Y007443D02*
X000465Y007443D01*
X000465Y007384D02*
X000325Y007384D01*
X000325Y007326D02*
X000465Y007326D01*
X000465Y007267D02*
X000325Y007267D01*
X000325Y007209D02*
X000465Y007209D01*
X000465Y007150D02*
X000325Y007150D01*
X000325Y007092D02*
X000465Y007092D01*
X000465Y007033D02*
X000325Y007033D01*
X000325Y006975D02*
X000465Y006975D01*
X000465Y006916D02*
X000325Y006916D01*
X000325Y006858D02*
X000465Y006858D01*
X000465Y006799D02*
X000325Y006799D01*
X000325Y006741D02*
X000465Y006741D01*
X000465Y006682D02*
X000325Y006682D01*
X000325Y006624D02*
X000465Y006624D01*
X000425Y006565D02*
X000325Y006565D01*
X000325Y006507D02*
X000366Y006507D01*
X000335Y006448D02*
X000325Y006448D01*
X000325Y006390D02*
X000335Y006390D01*
X000325Y006331D02*
X000339Y006331D01*
X000325Y006273D02*
X000397Y006273D01*
X000325Y006214D02*
X001277Y006214D01*
X001219Y006273D02*
X000843Y006273D01*
X000901Y006331D02*
X001160Y006331D01*
X001102Y006390D02*
X000905Y006390D01*
X000905Y006448D02*
X001043Y006448D01*
X000985Y006507D02*
X000874Y006507D01*
X000926Y006565D02*
X000815Y006565D01*
X000775Y006624D02*
X000868Y006624D01*
X000815Y006682D02*
X000775Y006682D01*
X000775Y006741D02*
X000815Y006741D01*
X000815Y006799D02*
X000775Y006799D01*
X000775Y006858D02*
X000815Y006858D01*
X000815Y006916D02*
X000775Y006916D01*
X000775Y006975D02*
X000815Y006975D01*
X000815Y007033D02*
X000775Y007033D01*
X000775Y007092D02*
X000815Y007092D01*
X000815Y007150D02*
X000775Y007150D01*
X000775Y007209D02*
X000815Y007209D01*
X000815Y007267D02*
X000775Y007267D01*
X000775Y007326D02*
X000815Y007326D01*
X000815Y007384D02*
X000775Y007384D01*
X000775Y007443D02*
X000815Y007443D01*
X000815Y007501D02*
X000775Y007501D01*
X000775Y007560D02*
X000815Y007560D01*
X000815Y007618D02*
X000775Y007618D01*
X000775Y007677D02*
X000815Y007677D01*
X000815Y007735D02*
X000775Y007735D01*
X000775Y007794D02*
X000815Y007794D01*
X000815Y007852D02*
X000775Y007852D01*
X000775Y007911D02*
X000815Y007911D01*
X000815Y007969D02*
X000775Y007969D01*
X000775Y008028D02*
X000815Y008028D01*
X000815Y008086D02*
X000775Y008086D01*
X000775Y008145D02*
X000815Y008145D01*
X000815Y008203D02*
X000775Y008203D01*
X000775Y008262D02*
X000815Y008262D01*
X000815Y008320D02*
X000775Y008320D01*
X000775Y008379D02*
X000815Y008379D01*
X000815Y008437D02*
X000775Y008437D01*
X000775Y008496D02*
X000815Y008496D01*
X000815Y008554D02*
X000775Y008554D01*
X000775Y008613D02*
X000815Y008613D01*
X000815Y008671D02*
X000775Y008671D01*
X000775Y008730D02*
X000815Y008730D01*
X000815Y008788D02*
X000775Y008788D01*
X000775Y008847D02*
X000815Y008847D01*
X000815Y008905D02*
X000775Y008905D01*
X000775Y008964D02*
X000815Y008964D01*
X000815Y009022D02*
X000775Y009022D01*
X000775Y009081D02*
X000815Y009081D01*
X000815Y009139D02*
X000775Y009139D01*
X000775Y009198D02*
X000815Y009198D01*
X000815Y009256D02*
X000775Y009256D01*
X000775Y009315D02*
X000815Y009315D01*
X000815Y009373D02*
X000775Y009373D01*
X000775Y009432D02*
X000815Y009432D01*
X000815Y009490D02*
X000775Y009490D01*
X000775Y009549D02*
X000815Y009549D01*
X000815Y009607D02*
X000775Y009607D01*
X000775Y009666D02*
X000815Y009666D01*
X000815Y009724D02*
X000775Y009724D01*
X000775Y009783D02*
X000815Y009783D01*
X000815Y009841D02*
X000775Y009841D01*
X000775Y009900D02*
X000815Y009900D01*
X000815Y009958D02*
X000775Y009958D01*
X000775Y010017D02*
X000815Y010017D01*
X000815Y010075D02*
X000775Y010075D01*
X000775Y010134D02*
X000815Y010134D01*
X000815Y010192D02*
X000775Y010192D01*
X000775Y010251D02*
X000815Y010251D01*
X000815Y010309D02*
X000775Y010309D01*
X000775Y010368D02*
X000815Y010368D01*
X000815Y010426D02*
X000775Y010426D01*
X000775Y010485D02*
X000815Y010485D01*
X000815Y010543D02*
X000775Y010543D01*
X000775Y010602D02*
X000815Y010602D01*
X000815Y010660D02*
X000775Y010660D01*
X000775Y010719D02*
X000815Y010719D01*
X000815Y010777D02*
X000775Y010777D01*
X000775Y010836D02*
X000815Y010836D01*
X000815Y010894D02*
X000775Y010894D01*
X000775Y010953D02*
X000815Y010953D01*
X000815Y011011D02*
X000775Y011011D01*
X000775Y011070D02*
X000815Y011070D01*
X000815Y011128D02*
X000775Y011128D01*
X000775Y011187D02*
X000815Y011187D01*
X000815Y011245D02*
X000775Y011245D01*
X000775Y011304D02*
X000815Y011304D01*
X000815Y011362D02*
X000775Y011362D01*
X000775Y011421D02*
X000815Y011421D01*
X000815Y011479D02*
X000775Y011479D01*
X000775Y011538D02*
X000869Y011538D01*
X000891Y011560D02*
X000891Y011560D01*
X000927Y011596D02*
X000775Y011596D01*
X000775Y011655D02*
X000986Y011655D01*
X001044Y011713D02*
X000775Y011713D01*
X000775Y011772D02*
X001103Y011772D01*
X001161Y011830D02*
X000775Y011830D01*
X000775Y011889D02*
X001220Y011889D01*
X001278Y011947D02*
X000775Y011947D01*
X000775Y012006D02*
X001337Y012006D01*
X001395Y012064D02*
X000775Y012064D01*
X000775Y012123D02*
X001454Y012123D01*
X001512Y012181D02*
X000775Y012181D01*
X000775Y012240D02*
X001571Y012240D01*
X001629Y012298D02*
X000775Y012298D01*
X000775Y012357D02*
X001688Y012357D01*
X001746Y012415D02*
X000775Y012415D01*
X000775Y012474D02*
X001805Y012474D01*
X001863Y012532D02*
X000775Y012532D01*
X000775Y012591D02*
X001922Y012591D01*
X001980Y012649D02*
X000776Y012649D01*
X000779Y012708D02*
X002039Y012708D01*
X002097Y012766D02*
X000783Y012766D01*
X000786Y012825D02*
X002156Y012825D01*
X002214Y012883D02*
X000789Y012883D01*
X000801Y012942D02*
X002273Y012942D01*
X002331Y013000D02*
X000814Y013000D01*
X000828Y013059D02*
X002390Y013059D01*
X002448Y013117D02*
X000841Y013117D01*
X000854Y013176D02*
X002507Y013176D01*
X002699Y013000D02*
X002860Y013000D01*
X002802Y012942D02*
X002640Y012942D01*
X002582Y012883D02*
X002743Y012883D01*
X002685Y012825D02*
X002523Y012825D01*
X002465Y012766D02*
X002626Y012766D01*
X002568Y012708D02*
X002406Y012708D01*
X002348Y012649D02*
X002509Y012649D01*
X002451Y012591D02*
X002289Y012591D01*
X002231Y012532D02*
X002392Y012532D01*
X002334Y012474D02*
X002172Y012474D01*
X002114Y012415D02*
X002275Y012415D01*
X002217Y012357D02*
X002055Y012357D01*
X001997Y012298D02*
X002158Y012298D01*
X002100Y012240D02*
X001938Y012240D01*
X001880Y012181D02*
X002041Y012181D01*
X001983Y012123D02*
X001821Y012123D01*
X001763Y012064D02*
X001924Y012064D01*
X001866Y012006D02*
X001704Y012006D01*
X001646Y011947D02*
X001807Y011947D01*
X001749Y011889D02*
X001587Y011889D01*
X001529Y011830D02*
X001690Y011830D01*
X001632Y011772D02*
X001470Y011772D01*
X001412Y011713D02*
X001573Y011713D01*
X001515Y011655D02*
X001353Y011655D01*
X001295Y011596D02*
X001456Y011596D01*
X001398Y011538D02*
X001236Y011538D01*
X001178Y011479D02*
X001339Y011479D01*
X001281Y011421D02*
X001119Y011421D01*
X001075Y011362D02*
X001222Y011362D01*
X001165Y011304D02*
X001075Y011304D01*
X001075Y011245D02*
X001165Y011245D01*
X001165Y011187D02*
X001075Y011187D01*
X001075Y011128D02*
X001165Y011128D01*
X001165Y011070D02*
X001075Y011070D01*
X001075Y011011D02*
X001165Y011011D01*
X001165Y010953D02*
X001075Y010953D01*
X001075Y010894D02*
X001165Y010894D01*
X001165Y010836D02*
X001075Y010836D01*
X001075Y010777D02*
X001165Y010777D01*
X001165Y010719D02*
X001075Y010719D01*
X001075Y010660D02*
X001165Y010660D01*
X001165Y010602D02*
X001075Y010602D01*
X001075Y010543D02*
X001165Y010543D01*
X001165Y010485D02*
X001075Y010485D01*
X001075Y010426D02*
X001165Y010426D01*
X001165Y010368D02*
X001075Y010368D01*
X001075Y010309D02*
X001165Y010309D01*
X001165Y010251D02*
X001075Y010251D01*
X001075Y010192D02*
X001165Y010192D01*
X001165Y010134D02*
X001075Y010134D01*
X001075Y010075D02*
X001165Y010075D01*
X001165Y010017D02*
X001075Y010017D01*
X001075Y009958D02*
X001165Y009958D01*
X001165Y009900D02*
X001075Y009900D01*
X001075Y009841D02*
X001165Y009841D01*
X001165Y009783D02*
X001075Y009783D01*
X001075Y009724D02*
X001165Y009724D01*
X001165Y009666D02*
X001075Y009666D01*
X001075Y009607D02*
X001165Y009607D01*
X001165Y009549D02*
X001075Y009549D01*
X001075Y009490D02*
X001165Y009490D01*
X001165Y009432D02*
X001075Y009432D01*
X001075Y009373D02*
X001165Y009373D01*
X001165Y009315D02*
X001075Y009315D01*
X001075Y009256D02*
X001165Y009256D01*
X001165Y009198D02*
X001075Y009198D01*
X001075Y009139D02*
X001165Y009139D01*
X001165Y009081D02*
X001075Y009081D01*
X001075Y009022D02*
X001165Y009022D01*
X001165Y008964D02*
X001075Y008964D01*
X001075Y008905D02*
X001165Y008905D01*
X001165Y008847D02*
X001075Y008847D01*
X001075Y008788D02*
X001165Y008788D01*
X001165Y008730D02*
X001075Y008730D01*
X001075Y008671D02*
X001165Y008671D01*
X001165Y008613D02*
X001075Y008613D01*
X001075Y008554D02*
X001165Y008554D01*
X001165Y008496D02*
X001075Y008496D01*
X001075Y008437D02*
X001165Y008437D01*
X001165Y008379D02*
X001075Y008379D01*
X001075Y008320D02*
X001165Y008320D01*
X001165Y008262D02*
X001075Y008262D01*
X001075Y008203D02*
X001165Y008203D01*
X001165Y008145D02*
X001075Y008145D01*
X001075Y008086D02*
X001165Y008086D01*
X001165Y008028D02*
X001075Y008028D01*
X001075Y007969D02*
X001165Y007969D01*
X001165Y007911D02*
X001075Y007911D01*
X001075Y007852D02*
X001165Y007852D01*
X001165Y007794D02*
X001075Y007794D01*
X001075Y007735D02*
X001165Y007735D01*
X001165Y007677D02*
X001075Y007677D01*
X001075Y007618D02*
X001165Y007618D01*
X001165Y007560D02*
X001075Y007560D01*
X001075Y007501D02*
X001165Y007501D01*
X001165Y007443D02*
X001075Y007443D01*
X001075Y007384D02*
X001165Y007384D01*
X001525Y007384D02*
X005190Y007384D01*
X005132Y007326D02*
X002183Y007326D01*
X002225Y007267D02*
X005073Y007267D01*
X005015Y007209D02*
X002225Y007209D01*
X002225Y007150D02*
X004956Y007150D01*
X004898Y007092D02*
X002688Y007092D01*
X002747Y007033D02*
X004839Y007033D01*
X004781Y006975D02*
X002805Y006975D01*
X002864Y006916D02*
X004722Y006916D01*
X004664Y006858D02*
X002922Y006858D01*
X002981Y006799D02*
X004615Y006799D01*
X004615Y006741D02*
X003039Y006741D01*
X003098Y006682D02*
X004615Y006682D01*
X004598Y006624D02*
X003156Y006624D01*
X003215Y006565D02*
X004575Y006565D01*
X004575Y006507D02*
X003273Y006507D01*
X003332Y006448D02*
X004587Y006448D01*
X004645Y006390D02*
X003390Y006390D01*
X003115Y006156D02*
X002490Y006156D01*
X002499Y006214D02*
X003056Y006214D01*
X002998Y006273D02*
X002557Y006273D01*
X002686Y006331D02*
X002939Y006331D01*
X002881Y006390D02*
X002740Y006390D01*
X002740Y006448D02*
X002822Y006448D01*
X002764Y006507D02*
X002740Y006507D01*
X002705Y006565D02*
X002700Y006565D01*
X002647Y006624D02*
X002642Y006624D01*
X002588Y006682D02*
X001177Y006682D01*
X001235Y006624D02*
X002148Y006624D01*
X002090Y006565D02*
X001294Y006565D01*
X001352Y006507D02*
X002050Y006507D01*
X002050Y006448D02*
X001411Y006448D01*
X001469Y006390D02*
X002050Y006390D01*
X002100Y006331D02*
X001528Y006331D01*
X001586Y006273D02*
X002100Y006273D01*
X002100Y006214D02*
X001645Y006214D01*
X001703Y006156D02*
X002100Y006156D01*
X002100Y006097D02*
X001762Y006097D01*
X001775Y006039D02*
X002100Y006039D01*
X002100Y005980D02*
X001775Y005980D01*
X001775Y005922D02*
X002100Y005922D01*
X002100Y005863D02*
X001775Y005863D01*
X001775Y005805D02*
X002100Y005805D01*
X002100Y005746D02*
X001775Y005746D01*
X001775Y005688D02*
X002100Y005688D01*
X002100Y005629D02*
X001775Y005629D01*
X001775Y005571D02*
X002100Y005571D01*
X002100Y005512D02*
X001775Y005512D01*
X001775Y005454D02*
X002100Y005454D01*
X002100Y005395D02*
X001775Y005395D01*
X001775Y005337D02*
X002100Y005337D01*
X002100Y005278D02*
X001775Y005278D01*
X001775Y005220D02*
X002100Y005220D01*
X002100Y005161D02*
X001775Y005161D01*
X001775Y005103D02*
X002100Y005103D01*
X002100Y005044D02*
X001775Y005044D01*
X001775Y004986D02*
X002100Y004986D01*
X002100Y004927D02*
X001775Y004927D01*
X001775Y004869D02*
X002100Y004869D01*
X002100Y004810D02*
X001775Y004810D01*
X001775Y004752D02*
X002100Y004752D01*
X002100Y004693D02*
X001775Y004693D01*
X001775Y004635D02*
X002100Y004635D01*
X002100Y004576D02*
X001775Y004576D01*
X001775Y004518D02*
X002100Y004518D01*
X002100Y004459D02*
X001775Y004459D01*
X001775Y004401D02*
X002100Y004401D01*
X002100Y004342D02*
X001775Y004342D01*
X001775Y004284D02*
X002100Y004284D01*
X002100Y004225D02*
X001775Y004225D01*
X001775Y004167D02*
X002100Y004167D01*
X002100Y004108D02*
X001775Y004108D01*
X001775Y004050D02*
X002100Y004050D01*
X002100Y003991D02*
X001775Y003991D01*
X001775Y003933D02*
X002100Y003933D01*
X002100Y003874D02*
X001775Y003874D01*
X001775Y003816D02*
X002100Y003816D01*
X002100Y003757D02*
X001775Y003757D01*
X001775Y003699D02*
X002100Y003699D01*
X002100Y003640D02*
X001775Y003640D01*
X001775Y003582D02*
X002124Y003582D01*
X002182Y003523D02*
X001775Y003523D01*
X001775Y003465D02*
X002241Y003465D01*
X002299Y003406D02*
X001775Y003406D01*
X001775Y003348D02*
X002358Y003348D01*
X002416Y003289D02*
X001775Y003289D01*
X001775Y003231D02*
X002475Y003231D01*
X002443Y003172D02*
X002533Y003172D01*
X002502Y003114D02*
X002592Y003114D01*
X002515Y003100D02*
X002415Y003200D01*
X002275Y003200D01*
X002175Y003100D01*
X002175Y002960D01*
X002275Y002860D01*
X002415Y002860D01*
X002515Y002960D01*
X002515Y003100D01*
X002515Y003055D02*
X002650Y003055D01*
X002709Y002997D02*
X002515Y002997D01*
X002493Y002938D02*
X002767Y002938D01*
X002826Y002880D02*
X002435Y002880D01*
X002255Y002880D02*
X001815Y002880D01*
X001815Y002938D02*
X002197Y002938D01*
X002175Y002997D02*
X001815Y002997D01*
X001775Y003055D02*
X002175Y003055D01*
X002188Y003114D02*
X001775Y003114D01*
X001775Y003172D02*
X002247Y003172D01*
X001776Y002821D02*
X002884Y002821D01*
X002943Y002763D02*
X001718Y002763D01*
X001572Y002763D02*
X000357Y002763D01*
X000345Y002821D02*
X001514Y002821D01*
X001475Y002880D02*
X000337Y002880D01*
X000334Y002938D02*
X001475Y002938D01*
X001475Y002997D02*
X000332Y002997D01*
X000329Y003055D02*
X001515Y003055D01*
X001515Y003114D02*
X000326Y003114D01*
X000325Y003172D02*
X001515Y003172D01*
X001515Y003231D02*
X000325Y003231D01*
X000325Y003289D02*
X001515Y003289D01*
X001515Y003348D02*
X000325Y003348D01*
X000325Y003406D02*
X001515Y003406D01*
X001515Y003465D02*
X000325Y003465D01*
X000325Y003523D02*
X001515Y003523D01*
X001515Y003582D02*
X000325Y003582D01*
X000325Y003640D02*
X001515Y003640D01*
X001515Y003699D02*
X000325Y003699D01*
X000325Y003757D02*
X001515Y003757D01*
X001515Y003816D02*
X000325Y003816D01*
X000325Y003874D02*
X001515Y003874D01*
X001515Y003933D02*
X000325Y003933D01*
X000325Y003991D02*
X001515Y003991D01*
X001515Y004050D02*
X000325Y004050D01*
X000325Y004108D02*
X001515Y004108D01*
X001515Y004167D02*
X000325Y004167D01*
X000325Y004225D02*
X001515Y004225D01*
X001515Y004284D02*
X000325Y004284D01*
X000325Y004342D02*
X001515Y004342D01*
X001515Y004401D02*
X000325Y004401D01*
X000325Y004459D02*
X001515Y004459D01*
X001515Y004518D02*
X000325Y004518D01*
X000325Y004576D02*
X001009Y004576D01*
X001025Y004560D02*
X001165Y004560D01*
X001265Y004660D01*
X001265Y004800D01*
X001165Y004900D01*
X001025Y004900D01*
X000925Y004800D01*
X000925Y004660D01*
X001025Y004560D01*
X000950Y004635D02*
X000325Y004635D01*
X000325Y004693D02*
X000925Y004693D01*
X000925Y004752D02*
X000325Y004752D01*
X000325Y004810D02*
X000935Y004810D01*
X000993Y004869D02*
X000325Y004869D01*
X000325Y004927D02*
X001515Y004927D01*
X001515Y004869D02*
X001197Y004869D01*
X001255Y004810D02*
X001515Y004810D01*
X001515Y004752D02*
X001265Y004752D01*
X001265Y004693D02*
X001515Y004693D01*
X001515Y004635D02*
X001240Y004635D01*
X001181Y004576D02*
X001515Y004576D01*
X001515Y004986D02*
X000325Y004986D01*
X000325Y005044D02*
X001515Y005044D01*
X001515Y005103D02*
X000325Y005103D01*
X000325Y005161D02*
X001515Y005161D01*
X001515Y005220D02*
X000325Y005220D01*
X000325Y005278D02*
X001515Y005278D01*
X001515Y005337D02*
X000325Y005337D01*
X000325Y005395D02*
X001515Y005395D01*
X001515Y005454D02*
X000325Y005454D01*
X000325Y005512D02*
X001515Y005512D01*
X001515Y005571D02*
X000325Y005571D01*
X000325Y005629D02*
X001515Y005629D01*
X001515Y005688D02*
X000325Y005688D01*
X000325Y005746D02*
X001515Y005746D01*
X001515Y005805D02*
X000325Y005805D01*
X000325Y005863D02*
X001515Y005863D01*
X001515Y005922D02*
X000325Y005922D01*
X000325Y005980D02*
X001511Y005980D01*
X001453Y006039D02*
X000325Y006039D01*
X000325Y006097D02*
X001394Y006097D01*
X001336Y006156D02*
X000325Y006156D01*
X000613Y006273D02*
X000627Y006273D01*
X001525Y007443D02*
X005249Y007443D01*
X005307Y007501D02*
X001525Y007501D01*
X001525Y007560D02*
X005366Y007560D01*
X005424Y007618D02*
X001525Y007618D01*
X001525Y007677D02*
X005483Y007677D01*
X005541Y007735D02*
X001525Y007735D01*
X001525Y007794D02*
X005600Y007794D01*
X005658Y007852D02*
X001525Y007852D01*
X001525Y007911D02*
X005717Y007911D01*
X005775Y007969D02*
X001525Y007969D01*
X001525Y008028D02*
X005834Y008028D01*
X005967Y007794D02*
X007066Y007794D01*
X007086Y008086D02*
X001525Y008086D01*
X001525Y008613D02*
X010822Y008613D01*
X010764Y008671D02*
X001525Y008671D01*
X001525Y008730D02*
X010750Y008730D01*
X010717Y008788D02*
X009293Y008788D01*
X009147Y008788D02*
X001525Y008788D01*
X001525Y008847D02*
X007463Y008847D01*
X007405Y008905D02*
X001525Y008905D01*
X001525Y008964D02*
X007400Y008964D01*
X007400Y009022D02*
X001525Y009022D01*
X001525Y009081D02*
X007430Y009081D01*
X007489Y009139D02*
X001525Y009139D01*
X001525Y009198D02*
X008675Y009198D01*
X008681Y009256D02*
X001525Y009256D01*
X001525Y009315D02*
X008739Y009315D01*
X008634Y009139D02*
X007651Y009139D01*
X007378Y009432D02*
X001525Y009432D01*
X001525Y009490D02*
X007325Y009490D01*
X007325Y009549D02*
X001525Y009549D01*
X001525Y009607D02*
X007325Y009607D01*
X007365Y009666D02*
X001525Y009666D01*
X001525Y009724D02*
X007424Y009724D01*
X007382Y010543D02*
X008108Y010543D01*
X008005Y010602D02*
X007485Y010602D01*
X007543Y010660D02*
X007947Y010660D01*
X007911Y010719D02*
X007579Y010719D01*
X007603Y010777D02*
X007887Y010777D01*
X007870Y010836D02*
X007620Y010836D01*
X007620Y010894D02*
X007870Y010894D01*
X007870Y010953D02*
X007620Y010953D01*
X007602Y011011D02*
X007888Y011011D01*
X007912Y011070D02*
X007578Y011070D01*
X007540Y011128D02*
X007950Y011128D01*
X008008Y011187D02*
X007482Y011187D01*
X007375Y011245D02*
X008115Y011245D01*
X008375Y011245D02*
X008414Y011245D01*
X008472Y011304D02*
X007018Y011304D01*
X006959Y011362D02*
X008531Y011362D01*
X008589Y011421D02*
X006901Y011421D01*
X006875Y011479D02*
X008615Y011479D01*
X008615Y011538D02*
X008368Y011538D01*
X008479Y011596D02*
X008615Y011596D01*
X008615Y011655D02*
X008538Y011655D01*
X008577Y011713D02*
X008615Y011713D01*
X008615Y011772D02*
X008601Y011772D01*
X008875Y011772D02*
X008889Y011772D01*
X008875Y011713D02*
X008913Y011713D01*
X008875Y011655D02*
X008952Y011655D01*
X009011Y011596D02*
X008875Y011596D01*
X008875Y011538D02*
X009122Y011538D01*
X009368Y011538D02*
X009430Y011538D01*
X009489Y011479D02*
X008875Y011479D01*
X008875Y011421D02*
X009547Y011421D01*
X009606Y011362D02*
X008875Y011362D01*
X008840Y011304D02*
X009625Y011304D01*
X009625Y011245D02*
X009375Y011245D01*
X009482Y011187D02*
X009625Y011187D01*
X009625Y011128D02*
X009540Y011128D01*
X009578Y011070D02*
X009625Y011070D01*
X009625Y011011D02*
X009602Y011011D01*
X009620Y010953D02*
X009625Y010953D01*
X009620Y010894D02*
X009625Y010894D01*
X009620Y010836D02*
X009625Y010836D01*
X009625Y010777D02*
X009603Y010777D01*
X009589Y010719D02*
X009625Y010719D01*
X009865Y010777D02*
X009887Y010777D01*
X009876Y010719D02*
X009911Y010719D01*
X009935Y010660D02*
X009947Y010660D01*
X009993Y010602D02*
X010005Y010602D01*
X010052Y010543D02*
X010108Y010543D01*
X010382Y010543D02*
X011658Y010543D01*
X011715Y010485D02*
X011260Y010485D01*
X011319Y010426D02*
X011772Y010426D01*
X011830Y010368D02*
X011377Y010368D01*
X011436Y010309D02*
X011887Y010309D01*
X011945Y010251D02*
X011494Y010251D01*
X011553Y010192D02*
X012002Y010192D01*
X012060Y010134D02*
X011611Y010134D01*
X011670Y010075D02*
X012117Y010075D01*
X012175Y010017D02*
X011728Y010017D01*
X011787Y009958D02*
X012232Y009958D01*
X012290Y009900D02*
X011845Y009900D01*
X011904Y009841D02*
X012347Y009841D01*
X012405Y009783D02*
X011962Y009783D01*
X012021Y009724D02*
X012462Y009724D01*
X012519Y009666D02*
X012079Y009666D01*
X012138Y009607D02*
X012577Y009607D01*
X012634Y009549D02*
X012196Y009549D01*
X011782Y009373D02*
X001525Y009373D01*
X001525Y010953D02*
X004820Y010953D01*
X004820Y011011D02*
X001525Y011011D01*
X001525Y011070D02*
X004820Y011070D01*
X004820Y011128D02*
X001525Y011128D01*
X001556Y011187D02*
X004820Y011187D01*
X004833Y011245D02*
X001615Y011245D01*
X001673Y011304D02*
X004890Y011304D01*
X005011Y011596D02*
X002551Y011596D01*
X002610Y011655D02*
X004952Y011655D01*
X004913Y011713D02*
X002615Y011713D01*
X002670Y011772D02*
X004889Y011772D01*
X004870Y011830D02*
X002729Y011830D01*
X002787Y011889D02*
X004870Y011889D01*
X004870Y011947D02*
X002846Y011947D01*
X002904Y012006D02*
X004886Y012006D01*
X004910Y012064D02*
X002963Y012064D01*
X003021Y012123D02*
X004944Y012123D01*
X005003Y012181D02*
X003080Y012181D01*
X003138Y012240D02*
X005102Y012240D01*
X005388Y012240D02*
X005552Y012240D01*
X005493Y012298D02*
X003197Y012298D01*
X003255Y012357D02*
X005435Y012357D01*
X005411Y012415D02*
X003314Y012415D01*
X003372Y012474D02*
X005411Y012474D01*
X005487Y012181D02*
X005610Y012181D01*
X005615Y012123D02*
X005546Y012123D01*
X005580Y012064D02*
X005615Y012064D01*
X005615Y012006D02*
X005604Y012006D01*
X005601Y011772D02*
X005615Y011772D01*
X005615Y011713D02*
X005577Y011713D01*
X005538Y011655D02*
X005615Y011655D01*
X005615Y011596D02*
X005479Y011596D01*
X005368Y011538D02*
X005615Y011538D01*
X005615Y011479D02*
X001849Y011479D01*
X001907Y011538D02*
X005122Y011538D01*
X005615Y011421D02*
X001790Y011421D01*
X001732Y011362D02*
X005615Y011362D01*
X006076Y011245D02*
X006115Y011245D01*
X006375Y011245D02*
X006709Y011245D01*
X006767Y011187D02*
X006482Y011187D01*
X006540Y011128D02*
X006826Y011128D01*
X006884Y011070D02*
X006578Y011070D01*
X006602Y011011D02*
X006888Y011011D01*
X006870Y010953D02*
X006620Y010953D01*
X006620Y010894D02*
X006870Y010894D01*
X006870Y010836D02*
X006620Y010836D01*
X006603Y010777D02*
X006887Y010777D01*
X006911Y010719D02*
X006579Y010719D01*
X006543Y010660D02*
X006947Y010660D01*
X007005Y010602D02*
X006485Y010602D01*
X006382Y010543D02*
X007108Y010543D01*
X007076Y011245D02*
X007115Y011245D01*
X007368Y011538D02*
X008122Y011538D01*
X008011Y011596D02*
X007479Y011596D01*
X007538Y011655D02*
X007952Y011655D01*
X007913Y011713D02*
X007577Y011713D01*
X007601Y011772D02*
X007889Y011772D01*
X007870Y011830D02*
X007620Y011830D01*
X007620Y011889D02*
X007870Y011889D01*
X007870Y011947D02*
X007620Y011947D01*
X007604Y012006D02*
X007886Y012006D01*
X007910Y012064D02*
X007580Y012064D01*
X007546Y012123D02*
X007944Y012123D01*
X008003Y012181D02*
X007487Y012181D01*
X007388Y012240D02*
X008102Y012240D01*
X008361Y012357D02*
X007105Y012357D01*
X007121Y012415D02*
X008361Y012415D01*
X008361Y012474D02*
X007121Y012474D01*
X007247Y012532D02*
X007743Y012532D01*
X007722Y012591D02*
X007268Y012591D01*
X007268Y012649D02*
X007722Y012649D01*
X007722Y012708D02*
X007268Y012708D01*
X007268Y012766D02*
X007722Y012766D01*
X007722Y012825D02*
X007580Y012825D01*
X007410Y012825D02*
X007268Y012825D01*
X007268Y012883D02*
X007352Y012883D01*
X007325Y012942D02*
X007268Y012942D01*
X007268Y013000D02*
X007325Y013000D01*
X007333Y013059D02*
X007268Y013059D01*
X007268Y013117D02*
X007392Y013117D01*
X007268Y013176D02*
X007722Y013176D01*
X007722Y013234D02*
X007268Y013234D01*
X007268Y013293D02*
X007722Y013293D01*
X007722Y013351D02*
X007268Y013351D01*
X007265Y013410D02*
X007725Y013410D01*
X007722Y013117D02*
X007598Y013117D01*
X006855Y012474D02*
X005685Y012474D01*
X005744Y012415D02*
X006796Y012415D01*
X006738Y012357D02*
X005802Y012357D01*
X005797Y012532D02*
X006243Y012532D01*
X006222Y012591D02*
X005818Y012591D01*
X005818Y012649D02*
X006222Y012649D01*
X006222Y012708D02*
X005818Y012708D01*
X005818Y012766D02*
X006222Y012766D01*
X006222Y012825D02*
X006180Y012825D01*
X006010Y012825D02*
X005818Y012825D01*
X005818Y012883D02*
X005952Y012883D01*
X005925Y012942D02*
X005818Y012942D01*
X005818Y013000D02*
X005925Y013000D01*
X005933Y013059D02*
X005818Y013059D01*
X005818Y013117D02*
X005992Y013117D01*
X005818Y013176D02*
X006222Y013176D01*
X006222Y013234D02*
X005818Y013234D01*
X005818Y013293D02*
X006222Y013293D01*
X006222Y013351D02*
X005818Y013351D01*
X005815Y013410D02*
X006225Y013410D01*
X006222Y013117D02*
X006198Y013117D01*
X004772Y012825D02*
X003723Y012825D01*
X003782Y012883D02*
X004658Y012883D01*
X004600Y012942D02*
X003840Y012942D01*
X003665Y012766D02*
X004772Y012766D01*
X004772Y012708D02*
X003606Y012708D01*
X003548Y012649D02*
X004772Y012649D01*
X004772Y012591D02*
X003489Y012591D01*
X003431Y012532D02*
X004793Y012532D01*
X003941Y013410D02*
X003779Y013410D01*
X003838Y013468D02*
X003999Y013468D01*
X004058Y013527D02*
X003896Y013527D01*
X003955Y013585D02*
X004116Y013585D01*
X004175Y013644D02*
X004013Y013644D01*
X003738Y013878D02*
X003576Y013878D01*
X003635Y013936D02*
X003796Y013936D01*
X003855Y013995D02*
X003693Y013995D01*
X003752Y014053D02*
X003914Y014053D01*
X003972Y014112D02*
X003810Y014112D01*
X003869Y014170D02*
X004031Y014170D01*
X003679Y013819D02*
X003518Y013819D01*
X003459Y013761D02*
X003621Y013761D01*
X003562Y013702D02*
X003401Y013702D01*
X003342Y013644D02*
X003504Y013644D01*
X003445Y013585D02*
X003284Y013585D01*
X003225Y013527D02*
X003387Y013527D01*
X003328Y013468D02*
X003167Y013468D01*
X003108Y013410D02*
X003270Y013410D01*
X003211Y013351D02*
X003050Y013351D01*
X002991Y013293D02*
X003153Y013293D01*
X003094Y013234D02*
X002933Y013234D01*
X002874Y013176D02*
X003036Y013176D01*
X002977Y013117D02*
X002816Y013117D01*
X002757Y013059D02*
X002919Y013059D01*
X003194Y012825D02*
X003356Y012825D01*
X003414Y012883D02*
X003253Y012883D01*
X003311Y012942D02*
X003473Y012942D01*
X003531Y013000D02*
X003370Y013000D01*
X003428Y013059D02*
X003590Y013059D01*
X003648Y013117D02*
X003487Y013117D01*
X003545Y013176D02*
X003707Y013176D01*
X003765Y013234D02*
X003604Y013234D01*
X003662Y013293D02*
X003824Y013293D01*
X003882Y013351D02*
X003721Y013351D01*
X003297Y012766D02*
X003136Y012766D01*
X003077Y012708D02*
X003239Y012708D01*
X003180Y012649D02*
X003019Y012649D01*
X002960Y012591D02*
X003122Y012591D01*
X003063Y012532D02*
X002902Y012532D01*
X002843Y012474D02*
X003005Y012474D01*
X002946Y012415D02*
X002785Y012415D01*
X002726Y012357D02*
X002888Y012357D01*
X002829Y012298D02*
X002668Y012298D01*
X002609Y012240D02*
X002771Y012240D01*
X002712Y012181D02*
X002551Y012181D01*
X002492Y012123D02*
X002654Y012123D01*
X002595Y012064D02*
X002434Y012064D01*
X002375Y012006D02*
X002537Y012006D01*
X002478Y011947D02*
X002317Y011947D01*
X002363Y011889D02*
X002258Y011889D01*
X002305Y011830D02*
X002200Y011830D01*
X002141Y011772D02*
X002275Y011772D01*
X002275Y011713D02*
X002083Y011713D01*
X002024Y011655D02*
X002280Y011655D01*
X002339Y011596D02*
X001966Y011596D01*
X002707Y015399D02*
X017304Y015399D01*
X016804Y015438D02*
X016804Y015438D01*
X018274Y014521D02*
X018974Y014521D01*
X019033Y014463D02*
X018415Y014463D01*
X018510Y014404D02*
X019088Y014404D01*
X019127Y014346D02*
X018568Y014346D01*
X018627Y014287D02*
X019167Y014287D01*
X019207Y014229D02*
X018666Y014229D01*
X018690Y014170D02*
X019247Y014170D01*
X019286Y014112D02*
X018714Y014112D01*
X018738Y014053D02*
X019326Y014053D01*
X019366Y013995D02*
X018746Y013995D01*
X018746Y013936D02*
X019400Y013936D01*
X019424Y013878D02*
X018746Y013878D01*
X018746Y013819D02*
X019449Y013819D01*
X019474Y013761D02*
X018735Y013761D01*
X018711Y013702D02*
X019499Y013702D01*
X019523Y013644D02*
X018686Y013644D01*
X018662Y013585D02*
X019548Y013585D01*
X019573Y013527D02*
X018618Y013527D01*
X018560Y013468D02*
X019598Y013468D01*
X019614Y013410D02*
X018501Y013410D01*
X018394Y013351D02*
X019627Y013351D01*
X019639Y013293D02*
X018253Y013293D01*
X019675Y013117D02*
X014017Y013117D01*
X014075Y013059D02*
X019687Y013059D01*
X019699Y013000D02*
X014134Y013000D01*
X014192Y012942D02*
X019711Y012942D01*
X019720Y012883D02*
X014251Y012883D01*
X014391Y012825D02*
X019724Y012825D01*
X019727Y012766D02*
X014449Y012766D01*
X014465Y012708D02*
X019730Y012708D01*
X019734Y012649D02*
X014465Y012649D01*
X014446Y012591D02*
X019735Y012591D01*
X019735Y012532D02*
X014387Y012532D01*
X014203Y012532D02*
X013898Y012532D01*
X013956Y012474D02*
X019735Y012474D01*
X019735Y012415D02*
X014015Y012415D01*
X014073Y012357D02*
X019735Y012357D01*
X019735Y012298D02*
X014132Y012298D01*
X014190Y012240D02*
X019735Y012240D01*
X019735Y012181D02*
X014225Y012181D01*
X014225Y012123D02*
X019735Y012123D01*
X019735Y012064D02*
X015231Y012064D01*
X015289Y012006D02*
X019735Y012006D01*
X019735Y011947D02*
X015290Y011947D01*
X015290Y011889D02*
X019735Y011889D01*
X019735Y011830D02*
X015290Y011830D01*
X015290Y011772D02*
X019735Y011772D01*
X019735Y011713D02*
X015290Y011713D01*
X015289Y011655D02*
X019735Y011655D01*
X019735Y011596D02*
X015231Y011596D01*
X014390Y010719D02*
X016690Y010719D01*
X016690Y010777D02*
X014332Y010777D01*
X014273Y010836D02*
X016690Y010836D01*
X016690Y010894D02*
X014215Y010894D01*
X014156Y010953D02*
X016690Y010953D01*
X016690Y011011D02*
X014098Y011011D01*
X014075Y011034D02*
X014075Y011034D01*
X014039Y011070D02*
X016690Y011070D01*
X016690Y011107D02*
X016690Y010453D01*
X016690Y010407D01*
X016722Y010375D01*
X018318Y010375D01*
X018350Y010407D01*
X018350Y011153D01*
X018318Y011185D01*
X016722Y011185D01*
X016690Y011153D01*
X016690Y011107D01*
X016690Y011128D02*
X012431Y011128D01*
X012372Y011187D02*
X019735Y011187D01*
X019735Y011245D02*
X012314Y011245D01*
X012255Y011304D02*
X019735Y011304D01*
X019735Y011362D02*
X012197Y011362D01*
X012138Y011421D02*
X019735Y011421D01*
X019735Y011479D02*
X012080Y011479D01*
X012021Y011538D02*
X019735Y011538D01*
X019735Y011128D02*
X018350Y011128D01*
X018350Y011070D02*
X019735Y011070D01*
X019735Y011011D02*
X018350Y011011D01*
X018350Y010953D02*
X019735Y010953D01*
X019735Y010894D02*
X018350Y010894D01*
X018350Y010836D02*
X019735Y010836D01*
X019735Y010777D02*
X018350Y010777D01*
X018350Y010719D02*
X019735Y010719D01*
X019735Y010660D02*
X018350Y010660D01*
X018350Y010602D02*
X019735Y010602D01*
X019735Y010543D02*
X018350Y010543D01*
X018350Y010485D02*
X019735Y010485D01*
X019735Y010426D02*
X018350Y010426D01*
X019735Y010368D02*
X014675Y010368D01*
X014675Y010426D02*
X016690Y010426D01*
X016690Y010485D02*
X014624Y010485D01*
X014566Y010543D02*
X016690Y010543D01*
X016690Y010602D02*
X014507Y010602D01*
X014449Y010660D02*
X016690Y010660D01*
X015230Y009315D02*
X019735Y009315D01*
X019735Y009373D02*
X015172Y009373D01*
X015113Y009432D02*
X019735Y009432D01*
X019735Y009490D02*
X015055Y009490D01*
X014996Y009549D02*
X019735Y009549D01*
X019735Y009607D02*
X014938Y009607D01*
X014879Y009666D02*
X019735Y009666D01*
X019735Y009724D02*
X014821Y009724D01*
X014762Y009783D02*
X019735Y009783D01*
X019735Y009841D02*
X014704Y009841D01*
X014675Y009900D02*
X019735Y009900D01*
X019735Y009958D02*
X014675Y009958D01*
X014675Y010017D02*
X019735Y010017D01*
X019735Y010075D02*
X014675Y010075D01*
X014675Y010134D02*
X019735Y010134D01*
X019735Y010192D02*
X014675Y010192D01*
X014675Y010251D02*
X019735Y010251D01*
X019735Y010309D02*
X014675Y010309D01*
X014415Y010309D02*
X012815Y010309D01*
X012815Y010251D02*
X014415Y010251D01*
X014415Y010192D02*
X012815Y010192D01*
X012815Y010134D02*
X014415Y010134D01*
X014415Y010075D02*
X012815Y010075D01*
X012815Y010017D02*
X014415Y010017D01*
X014415Y009958D02*
X012837Y009958D01*
X012895Y009900D02*
X014415Y009900D01*
X014415Y009841D02*
X012954Y009841D01*
X013012Y009783D02*
X014415Y009783D01*
X014467Y009724D02*
X013071Y009724D01*
X013129Y009666D02*
X014540Y009666D01*
X014598Y009607D02*
X013188Y009607D01*
X013246Y009549D02*
X014657Y009549D01*
X014715Y009490D02*
X013305Y009490D01*
X013363Y009432D02*
X014774Y009432D01*
X014832Y009373D02*
X013422Y009373D01*
X013480Y009315D02*
X014891Y009315D01*
X014949Y009256D02*
X013539Y009256D01*
X013597Y009198D02*
X014022Y009198D01*
X014025Y009200D02*
X013925Y009100D01*
X013925Y008960D01*
X014025Y008860D01*
X014165Y008860D01*
X014265Y008960D01*
X014265Y009100D01*
X014165Y009200D01*
X014025Y009200D01*
X013964Y009139D02*
X013656Y009139D01*
X013714Y009081D02*
X013925Y009081D01*
X013925Y009022D02*
X013773Y009022D01*
X013831Y008964D02*
X013925Y008964D01*
X013890Y008905D02*
X013980Y008905D01*
X013948Y008847D02*
X015359Y008847D01*
X015300Y008905D02*
X014210Y008905D01*
X014265Y008964D02*
X015242Y008964D01*
X015183Y009022D02*
X014265Y009022D01*
X014265Y009081D02*
X015125Y009081D01*
X015066Y009139D02*
X014226Y009139D01*
X014168Y009198D02*
X015008Y009198D01*
X015289Y009256D02*
X019735Y009256D01*
X019735Y009198D02*
X017843Y009198D01*
X017815Y009225D02*
X017675Y009225D01*
X017575Y009125D01*
X017575Y008985D01*
X017675Y008885D01*
X017745Y008885D01*
X017825Y008805D01*
X017825Y007630D01*
X017645Y007450D01*
X016895Y007450D01*
X016870Y007425D01*
X016800Y007425D01*
X016700Y007325D01*
X016700Y007185D01*
X016800Y007085D01*
X016940Y007085D01*
X017000Y007145D01*
X017000Y007035D01*
X017100Y006935D01*
X017240Y006935D01*
X017290Y006985D01*
X018170Y006985D01*
X018695Y007510D01*
X018765Y007510D01*
X018865Y007610D01*
X018865Y007750D01*
X018765Y007850D01*
X018625Y007850D01*
X018525Y007750D01*
X018525Y007680D01*
X018070Y007225D01*
X017760Y007225D01*
X017995Y007460D01*
X018065Y007530D01*
X018065Y008905D01*
X017915Y009055D01*
X017915Y009125D01*
X017815Y009225D01*
X017901Y009139D02*
X019735Y009139D01*
X019735Y009081D02*
X017915Y009081D01*
X017948Y009022D02*
X019735Y009022D01*
X019735Y008964D02*
X018006Y008964D01*
X018065Y008905D02*
X019735Y008905D01*
X019735Y008847D02*
X018065Y008847D01*
X018065Y008788D02*
X019735Y008788D01*
X019735Y008730D02*
X018065Y008730D01*
X018065Y008671D02*
X019735Y008671D01*
X019735Y008613D02*
X018065Y008613D01*
X018065Y008554D02*
X019735Y008554D01*
X019735Y008496D02*
X018065Y008496D01*
X018065Y008437D02*
X019735Y008437D01*
X019735Y008379D02*
X018065Y008379D01*
X018065Y008320D02*
X019735Y008320D01*
X019735Y008262D02*
X018065Y008262D01*
X018065Y008203D02*
X019735Y008203D01*
X019735Y008145D02*
X018065Y008145D01*
X018065Y008086D02*
X019735Y008086D01*
X019735Y008028D02*
X018065Y008028D01*
X018065Y007969D02*
X019735Y007969D01*
X019735Y007911D02*
X018065Y007911D01*
X018065Y007852D02*
X019735Y007852D01*
X019735Y007794D02*
X018822Y007794D01*
X018865Y007735D02*
X019735Y007735D01*
X019735Y007677D02*
X018865Y007677D01*
X018865Y007618D02*
X019735Y007618D01*
X019735Y007560D02*
X018815Y007560D01*
X018686Y007501D02*
X019735Y007501D01*
X019735Y007443D02*
X018627Y007443D01*
X018569Y007384D02*
X019735Y007384D01*
X019735Y007326D02*
X018510Y007326D01*
X018452Y007267D02*
X019735Y007267D01*
X019735Y007209D02*
X018393Y007209D01*
X018335Y007150D02*
X019735Y007150D01*
X019735Y007092D02*
X018276Y007092D01*
X018218Y007033D02*
X019735Y007033D01*
X019735Y006975D02*
X017280Y006975D01*
X017060Y006975D02*
X015209Y006975D01*
X015268Y007033D02*
X017002Y007033D01*
X017000Y007092D02*
X016947Y007092D01*
X016793Y007092D02*
X015326Y007092D01*
X015385Y007150D02*
X016735Y007150D01*
X016700Y007209D02*
X015743Y007209D01*
X015802Y007267D02*
X016700Y007267D01*
X016700Y007326D02*
X015860Y007326D01*
X015919Y007384D02*
X016759Y007384D01*
X016888Y007443D02*
X015965Y007443D01*
X015965Y007501D02*
X017696Y007501D01*
X017755Y007560D02*
X015965Y007560D01*
X015965Y007618D02*
X017813Y007618D01*
X017825Y007677D02*
X017707Y007677D01*
X017690Y007660D02*
X017790Y007760D01*
X017790Y007900D01*
X017690Y008000D01*
X017550Y008000D01*
X017450Y007900D01*
X017450Y007760D01*
X017550Y007660D01*
X017690Y007660D01*
X017765Y007735D02*
X017825Y007735D01*
X017825Y007794D02*
X017790Y007794D01*
X017790Y007852D02*
X017825Y007852D01*
X017825Y007911D02*
X017780Y007911D01*
X017825Y007969D02*
X017721Y007969D01*
X017825Y008028D02*
X015965Y008028D01*
X015965Y008086D02*
X017825Y008086D01*
X017825Y008145D02*
X015965Y008145D01*
X015965Y008203D02*
X017825Y008203D01*
X017825Y008262D02*
X015965Y008262D01*
X015965Y008320D02*
X017825Y008320D01*
X017825Y008379D02*
X015965Y008379D01*
X015965Y008437D02*
X017825Y008437D01*
X017825Y008496D02*
X015965Y008496D01*
X015965Y008554D02*
X017825Y008554D01*
X017825Y008613D02*
X015932Y008613D01*
X015874Y008671D02*
X017825Y008671D01*
X017825Y008730D02*
X015815Y008730D01*
X015757Y008788D02*
X017825Y008788D01*
X017784Y008847D02*
X015698Y008847D01*
X015675Y008885D02*
X015815Y008885D01*
X015915Y008985D01*
X015915Y009125D01*
X015815Y009225D01*
X015675Y009225D01*
X015575Y009125D01*
X015575Y008985D01*
X015675Y008885D01*
X015655Y008905D02*
X015640Y008905D01*
X015596Y008964D02*
X015581Y008964D01*
X015575Y009022D02*
X015523Y009022D01*
X015575Y009081D02*
X015464Y009081D01*
X015406Y009139D02*
X015589Y009139D01*
X015647Y009198D02*
X015347Y009198D01*
X015843Y009198D02*
X017647Y009198D01*
X017589Y009139D02*
X015901Y009139D01*
X015915Y009081D02*
X017575Y009081D01*
X017575Y009022D02*
X015915Y009022D01*
X015894Y008964D02*
X017596Y008964D01*
X017655Y008905D02*
X015835Y008905D01*
X015534Y008671D02*
X014124Y008671D01*
X014182Y008613D02*
X015593Y008613D01*
X015651Y008554D02*
X014241Y008554D01*
X014299Y008496D02*
X015710Y008496D01*
X015725Y008437D02*
X014358Y008437D01*
X014416Y008379D02*
X015725Y008379D01*
X015725Y008320D02*
X014475Y008320D01*
X014533Y008262D02*
X015725Y008262D01*
X015725Y008203D02*
X014592Y008203D01*
X014615Y008145D02*
X015725Y008145D01*
X015725Y008086D02*
X014615Y008086D01*
X014615Y008028D02*
X015725Y008028D01*
X015725Y007969D02*
X014615Y007969D01*
X014615Y007911D02*
X015725Y007911D01*
X015725Y007852D02*
X015638Y007852D01*
X015697Y007794D02*
X015725Y007794D01*
X015715Y007735D02*
X015725Y007735D01*
X015715Y007677D02*
X015725Y007677D01*
X015725Y007618D02*
X015698Y007618D01*
X015725Y007560D02*
X015640Y007560D01*
X015696Y007501D02*
X015511Y007501D01*
X015452Y007443D02*
X015638Y007443D01*
X015347Y007677D02*
X014665Y007677D01*
X014665Y007618D02*
X015288Y007618D01*
X015230Y007560D02*
X014665Y007560D01*
X014606Y007501D02*
X015171Y007501D01*
X015113Y007443D02*
X014365Y007443D01*
X014365Y007501D02*
X014384Y007501D01*
X014381Y007384D02*
X015054Y007384D01*
X014996Y007326D02*
X014415Y007326D01*
X014415Y007267D02*
X014937Y007267D01*
X014879Y007209D02*
X014414Y007209D01*
X014355Y007150D02*
X014820Y007150D01*
X014762Y007092D02*
X014374Y007092D01*
X014415Y007033D02*
X014703Y007033D01*
X014645Y006975D02*
X014415Y006975D01*
X014415Y006916D02*
X014586Y006916D01*
X014528Y006858D02*
X014363Y006858D01*
X014469Y006799D02*
X014215Y006799D01*
X014215Y006741D02*
X014411Y006741D01*
X014352Y006682D02*
X014187Y006682D01*
X014129Y006624D02*
X014294Y006624D01*
X014235Y006565D02*
X013965Y006565D01*
X013912Y006507D02*
X014177Y006507D01*
X014118Y006448D02*
X013715Y006448D01*
X013695Y006390D02*
X014060Y006390D01*
X014001Y006331D02*
X013636Y006331D01*
X013465Y006273D02*
X013943Y006273D01*
X013884Y006214D02*
X013465Y006214D01*
X013411Y006156D02*
X013826Y006156D01*
X013517Y006097D02*
X013282Y006097D01*
X013223Y006039D02*
X013459Y006039D01*
X013400Y005980D02*
X013165Y005980D01*
X013106Y005922D02*
X013342Y005922D01*
X013283Y005863D02*
X013048Y005863D01*
X012989Y005805D02*
X013225Y005805D01*
X013166Y005746D02*
X012931Y005746D01*
X012872Y005688D02*
X013108Y005688D01*
X012979Y005629D02*
X012814Y005629D01*
X012755Y005571D02*
X012925Y005571D01*
X012925Y005512D02*
X012697Y005512D01*
X012682Y005337D02*
X012271Y005337D01*
X012330Y005395D02*
X012965Y005395D01*
X012925Y005454D02*
X012388Y005454D01*
X012213Y005278D02*
X012623Y005278D01*
X012565Y005220D02*
X012154Y005220D01*
X012115Y005161D02*
X012506Y005161D01*
X012248Y005103D02*
X012138Y005103D01*
X012140Y005044D02*
X012198Y005044D01*
X012147Y004986D02*
X012140Y004986D01*
X011993Y004810D02*
X009965Y004810D01*
X009965Y004752D02*
X011942Y004752D01*
X011888Y004693D02*
X009923Y004693D01*
X009965Y004869D02*
X011891Y004869D01*
X011833Y004927D02*
X009913Y004927D01*
X009331Y004635D02*
X011874Y004635D01*
X011893Y004342D02*
X009347Y004342D01*
X009340Y004225D02*
X011900Y004225D01*
X012193Y004108D02*
X012553Y004108D01*
X012575Y004167D02*
X012251Y004167D01*
X012310Y004225D02*
X012575Y004225D01*
X012575Y004284D02*
X012468Y004284D01*
X012527Y004342D02*
X012575Y004342D01*
X012495Y004050D02*
X012165Y004050D01*
X012146Y003991D02*
X012436Y003991D01*
X012378Y003933D02*
X012088Y003933D01*
X011924Y003874D02*
X009316Y003874D01*
X009338Y003933D02*
X011902Y003933D01*
X012508Y003465D02*
X009351Y003465D01*
X009174Y003874D02*
X006566Y003874D01*
X006588Y003933D02*
X009152Y003933D01*
X009150Y004225D02*
X006590Y004225D01*
X006597Y004342D02*
X009143Y004342D01*
X009159Y004635D02*
X006581Y004635D01*
X006400Y004225D02*
X002490Y004225D01*
X002490Y004167D02*
X006341Y004167D01*
X006325Y004108D02*
X002490Y004108D01*
X002490Y004050D02*
X006325Y004050D01*
X006344Y003991D02*
X002490Y003991D01*
X002490Y003933D02*
X006402Y003933D01*
X006424Y003874D02*
X002490Y003874D01*
X002504Y003816D02*
X006365Y003816D01*
X006325Y003757D02*
X002563Y003757D01*
X002621Y003699D02*
X006325Y003699D01*
X006325Y003640D02*
X002680Y003640D01*
X002738Y003582D02*
X006378Y003582D01*
X004376Y001944D02*
X015091Y001944D01*
X015060Y001885D02*
X004435Y001885D01*
X004493Y001827D02*
X015025Y001827D01*
X015025Y001768D02*
X004552Y001768D01*
X004610Y001710D02*
X015025Y001710D01*
X015084Y001651D02*
X004669Y001651D01*
X004727Y001593D02*
X007717Y001593D01*
X007725Y001600D02*
X007625Y001500D01*
X007625Y001360D01*
X007725Y001260D01*
X007865Y001260D01*
X007965Y001360D01*
X007965Y001500D01*
X007865Y001600D01*
X007725Y001600D01*
X007659Y001534D02*
X004786Y001534D01*
X004844Y001476D02*
X007625Y001476D01*
X007625Y001417D02*
X004903Y001417D01*
X004961Y001359D02*
X007626Y001359D01*
X007685Y001300D02*
X005020Y001300D01*
X003294Y002412D02*
X000427Y002412D01*
X000415Y002470D02*
X003235Y002470D01*
X003177Y002529D02*
X000403Y002529D01*
X000392Y002587D02*
X003118Y002587D01*
X003060Y002646D02*
X000380Y002646D01*
X000368Y002704D02*
X003001Y002704D01*
X001708Y000715D02*
X018521Y000715D01*
X018433Y000657D02*
X001795Y000657D01*
X001924Y000598D02*
X018333Y000598D01*
X018190Y000540D02*
X002065Y000540D01*
X002207Y000481D02*
X018048Y000481D01*
X017905Y000423D02*
X002371Y000423D01*
X002665Y000364D02*
X017616Y000364D01*
X017071Y000310D02*
X017071Y000310D01*
X016593Y001183D02*
X017872Y001183D01*
X017757Y001242D02*
X016651Y001242D01*
X016710Y001300D02*
X017698Y001300D01*
X017640Y001359D02*
X016768Y001359D01*
X016827Y001417D02*
X017592Y001417D01*
X017568Y001476D02*
X016885Y001476D01*
X016944Y001534D02*
X017544Y001534D01*
X017520Y001593D02*
X017002Y001593D01*
X017061Y001651D02*
X017506Y001651D01*
X017506Y001710D02*
X017119Y001710D01*
X017178Y001768D02*
X017506Y001768D01*
X017506Y001827D02*
X017236Y001827D01*
X017295Y001885D02*
X017511Y001885D01*
X017536Y001944D02*
X017353Y001944D01*
X017412Y002002D02*
X017560Y002002D01*
X017584Y002061D02*
X017470Y002061D01*
X017529Y002119D02*
X017619Y002119D01*
X017587Y002178D02*
X017678Y002178D01*
X017646Y002236D02*
X017736Y002236D01*
X017704Y002295D02*
X017823Y002295D01*
X017741Y002670D02*
X017740Y002683D01*
X017740Y002730D01*
X017738Y002732D01*
X017717Y003183D01*
X018100Y003565D01*
X018100Y003030D01*
X017741Y002670D01*
X017740Y002704D02*
X017774Y002704D01*
X017736Y002763D02*
X017833Y002763D01*
X017891Y002821D02*
X017734Y002821D01*
X017731Y002880D02*
X017950Y002880D01*
X018008Y002938D02*
X017728Y002938D01*
X017726Y002997D02*
X018067Y002997D01*
X018100Y003055D02*
X017723Y003055D01*
X017720Y003114D02*
X018100Y003114D01*
X018100Y003172D02*
X017718Y003172D01*
X017765Y003231D02*
X018100Y003231D01*
X018100Y003289D02*
X017824Y003289D01*
X017882Y003348D02*
X018100Y003348D01*
X018100Y003406D02*
X017941Y003406D01*
X017999Y003465D02*
X018100Y003465D01*
X018100Y003523D02*
X018058Y003523D01*
X017835Y003640D02*
X016675Y003640D01*
X016690Y003699D02*
X017875Y003699D01*
X017875Y003757D02*
X016690Y003757D01*
X016690Y003816D02*
X017875Y003816D01*
X017875Y003874D02*
X016704Y003874D01*
X016740Y003933D02*
X017875Y003933D01*
X017875Y003991D02*
X016740Y003991D01*
X016740Y004050D02*
X017875Y004050D01*
X017875Y004108D02*
X016682Y004108D01*
X016605Y004225D02*
X017875Y004225D01*
X017875Y004167D02*
X016547Y004167D01*
X016458Y004108D02*
X016418Y004108D01*
X016400Y004050D02*
X016359Y004050D01*
X016400Y003991D02*
X016054Y003991D01*
X016112Y003933D02*
X016182Y003933D01*
X016124Y003874D02*
X016115Y003874D01*
X016115Y003695D02*
X016115Y003380D01*
X016115Y003280D01*
X015765Y002930D01*
X015765Y002580D01*
X015695Y002510D01*
X015435Y002250D01*
X015515Y002250D01*
X015615Y002150D01*
X015615Y002070D01*
X016150Y002605D01*
X016150Y003660D01*
X016115Y003695D01*
X016115Y003640D02*
X016150Y003640D01*
X016150Y003582D02*
X016115Y003582D01*
X016115Y003523D02*
X016150Y003523D01*
X016150Y003465D02*
X016115Y003465D01*
X016115Y003406D02*
X016150Y003406D01*
X016150Y003348D02*
X016115Y003348D01*
X016115Y003289D02*
X016150Y003289D01*
X016150Y003231D02*
X016065Y003231D01*
X016007Y003172D02*
X016150Y003172D01*
X016150Y003114D02*
X015948Y003114D01*
X015890Y003055D02*
X016150Y003055D01*
X016150Y002997D02*
X015831Y002997D01*
X015773Y002938D02*
X016150Y002938D01*
X016150Y002880D02*
X015765Y002880D01*
X015765Y002821D02*
X016150Y002821D01*
X016150Y002763D02*
X015765Y002763D01*
X015765Y002704D02*
X016150Y002704D01*
X016150Y002646D02*
X015765Y002646D01*
X015765Y002587D02*
X016132Y002587D01*
X016074Y002529D02*
X015713Y002529D01*
X015655Y002470D02*
X016015Y002470D01*
X015957Y002412D02*
X015596Y002412D01*
X015538Y002353D02*
X015898Y002353D01*
X015840Y002295D02*
X015479Y002295D01*
X015529Y002236D02*
X015781Y002236D01*
X015723Y002178D02*
X015588Y002178D01*
X015615Y002119D02*
X015664Y002119D01*
X015986Y001827D02*
X016597Y001827D01*
X016655Y001885D02*
X016045Y001885D01*
X016103Y001944D02*
X016714Y001944D01*
X016772Y002002D02*
X016162Y002002D01*
X016220Y002061D02*
X016831Y002061D01*
X016889Y002119D02*
X016279Y002119D01*
X016337Y002178D02*
X016948Y002178D01*
X017006Y002236D02*
X016396Y002236D01*
X016454Y002295D02*
X017065Y002295D01*
X017123Y002353D02*
X016513Y002353D01*
X016565Y002412D02*
X017182Y002412D01*
X017240Y002470D02*
X016565Y002470D01*
X016565Y002529D02*
X017299Y002529D01*
X017357Y002587D02*
X016565Y002587D01*
X016565Y002646D02*
X017416Y002646D01*
X017474Y002704D02*
X016565Y002704D01*
X016565Y002763D02*
X017496Y002763D01*
X017493Y002821D02*
X016565Y002821D01*
X016565Y002880D02*
X017491Y002880D01*
X017488Y002938D02*
X016565Y002938D01*
X016565Y002997D02*
X017485Y002997D01*
X017483Y003055D02*
X016565Y003055D01*
X016565Y003114D02*
X017480Y003114D01*
X017478Y003172D02*
X016565Y003172D01*
X016565Y003231D02*
X017475Y003231D01*
X017484Y003289D02*
X016565Y003289D01*
X016565Y003348D02*
X017540Y003348D01*
X017601Y003406D02*
X016565Y003406D01*
X016565Y003465D02*
X017660Y003465D01*
X017718Y003523D02*
X016565Y003523D01*
X016616Y003582D02*
X017777Y003582D01*
X017875Y004284D02*
X017514Y004284D01*
X017465Y004235D02*
X017565Y004335D01*
X017565Y004475D01*
X017465Y004575D01*
X017325Y004575D01*
X017225Y004475D01*
X017225Y004335D01*
X017325Y004235D01*
X017465Y004235D01*
X017565Y004342D02*
X017875Y004342D01*
X017875Y004401D02*
X017565Y004401D01*
X017565Y004459D02*
X017875Y004459D01*
X017875Y004518D02*
X017523Y004518D01*
X017267Y004518D02*
X016673Y004518D01*
X016731Y004576D02*
X017875Y004576D01*
X017875Y004635D02*
X016740Y004635D01*
X016740Y004693D02*
X017875Y004693D01*
X017875Y004752D02*
X016714Y004752D01*
X016655Y004810D02*
X016800Y004810D01*
X016741Y004869D02*
X016526Y004869D01*
X016468Y004927D02*
X016700Y004927D01*
X016940Y004810D02*
X017875Y004810D01*
X017875Y004869D02*
X016999Y004869D01*
X017040Y004927D02*
X017853Y004927D01*
X017795Y004986D02*
X017040Y004986D01*
X017040Y005044D02*
X017298Y005044D01*
X017524Y005044D02*
X017736Y005044D01*
X017678Y005103D02*
X017581Y005103D01*
X017581Y005161D02*
X017619Y005161D01*
X017225Y004459D02*
X016581Y004459D01*
X016640Y004401D02*
X017225Y004401D01*
X017225Y004342D02*
X016640Y004342D01*
X016640Y004284D02*
X017276Y004284D01*
X016467Y004518D02*
X015448Y004518D01*
X015490Y004459D02*
X016359Y004459D01*
X016300Y004401D02*
X015490Y004401D01*
X015490Y004342D02*
X016300Y004342D01*
X016254Y004284D02*
X015439Y004284D01*
X015350Y003991D02*
X015076Y003991D01*
X015017Y003933D02*
X015350Y003933D01*
X015350Y003874D02*
X014959Y003874D01*
X014900Y003816D02*
X015394Y003816D01*
X015494Y003699D02*
X014783Y003699D01*
X014842Y003757D02*
X015552Y003757D01*
X015435Y003640D02*
X014725Y003640D01*
X014666Y003582D02*
X015377Y003582D01*
X015318Y003523D02*
X014608Y003523D01*
X014549Y003465D02*
X015260Y003465D01*
X015201Y003406D02*
X014491Y003406D01*
X014432Y003348D02*
X015143Y003348D01*
X015084Y003289D02*
X014374Y003289D01*
X014315Y003231D02*
X015075Y003231D01*
X015075Y003172D02*
X014257Y003172D01*
X014198Y003114D02*
X015075Y003114D01*
X015075Y003055D02*
X014140Y003055D01*
X014081Y002997D02*
X015075Y002997D01*
X015075Y002938D02*
X014065Y002938D01*
X014065Y002880D02*
X015075Y002880D01*
X015016Y002821D02*
X014694Y002821D01*
X014496Y002821D02*
X014065Y002821D01*
X014065Y002763D02*
X014437Y002763D01*
X014425Y002704D02*
X014065Y002704D01*
X014065Y002646D02*
X014425Y002646D01*
X014448Y002587D02*
X014065Y002587D01*
X014013Y002529D02*
X014506Y002529D01*
X014684Y002529D02*
X015374Y002529D01*
X015432Y002587D02*
X015122Y002587D01*
X015180Y002646D02*
X015491Y002646D01*
X015525Y002704D02*
X015239Y002704D01*
X015297Y002763D02*
X015525Y002763D01*
X015525Y002821D02*
X015315Y002821D01*
X015315Y002880D02*
X015525Y002880D01*
X015525Y002938D02*
X015315Y002938D01*
X015315Y002997D02*
X015525Y002997D01*
X015550Y003055D02*
X015315Y003055D01*
X015315Y003114D02*
X015609Y003114D01*
X015667Y003172D02*
X015315Y003172D01*
X015365Y003231D02*
X015726Y003231D01*
X015784Y003289D02*
X015424Y003289D01*
X015482Y003348D02*
X015843Y003348D01*
X015875Y003406D02*
X015541Y003406D01*
X015599Y003465D02*
X015875Y003465D01*
X015875Y003523D02*
X015658Y003523D01*
X015716Y003582D02*
X015875Y003582D01*
X015875Y003640D02*
X015845Y003640D01*
X016358Y003933D02*
X016400Y003933D01*
X016416Y003874D02*
X016436Y003874D01*
X016440Y003816D02*
X016450Y003816D01*
X016440Y003757D02*
X016450Y003757D01*
X015315Y002470D02*
X013955Y002470D01*
X013896Y002412D02*
X015257Y002412D01*
X015198Y002353D02*
X013838Y002353D01*
X013779Y002295D02*
X015140Y002295D01*
X015081Y002236D02*
X013721Y002236D01*
X013570Y002425D02*
X013340Y002425D01*
X013290Y002475D01*
X013235Y002475D01*
X013345Y002585D01*
X013415Y002655D01*
X013415Y002980D01*
X014345Y003910D01*
X014655Y003910D01*
X013825Y003080D01*
X013825Y002980D01*
X013825Y002680D01*
X013570Y002425D01*
X013615Y002470D02*
X013295Y002470D01*
X013288Y002529D02*
X013674Y002529D01*
X013732Y002587D02*
X013347Y002587D01*
X013405Y002646D02*
X013791Y002646D01*
X013825Y002704D02*
X013415Y002704D01*
X013415Y002763D02*
X013825Y002763D01*
X013825Y002821D02*
X013415Y002821D01*
X013415Y002880D02*
X013825Y002880D01*
X013825Y002938D02*
X013415Y002938D01*
X013431Y002997D02*
X013825Y002997D01*
X013825Y003055D02*
X013490Y003055D01*
X013548Y003114D02*
X013859Y003114D01*
X013917Y003172D02*
X013607Y003172D01*
X013665Y003231D02*
X013976Y003231D01*
X014034Y003289D02*
X013724Y003289D01*
X013782Y003348D02*
X014093Y003348D01*
X014151Y003406D02*
X013841Y003406D01*
X013899Y003465D02*
X014210Y003465D01*
X014268Y003523D02*
X013958Y003523D01*
X014016Y003582D02*
X014327Y003582D01*
X014385Y003640D02*
X014075Y003640D01*
X014133Y003699D02*
X014444Y003699D01*
X014502Y003757D02*
X014192Y003757D01*
X014250Y003816D02*
X014561Y003816D01*
X014619Y003874D02*
X014309Y003874D01*
X012625Y003060D02*
X012625Y002916D01*
X012581Y002850D01*
X012085Y002850D01*
X012115Y002880D01*
X012295Y003060D01*
X012625Y003060D01*
X012625Y003055D02*
X012290Y003055D01*
X012231Y002997D02*
X012625Y002997D01*
X012625Y002938D02*
X012173Y002938D01*
X012114Y002880D02*
X012600Y002880D01*
X013190Y002119D02*
X015025Y002119D01*
X015025Y002061D02*
X013190Y002061D01*
X013132Y002002D02*
X015033Y002002D01*
X015052Y002178D02*
X013333Y002178D01*
X015025Y001534D02*
X007931Y001534D01*
X007965Y001476D02*
X015025Y001476D01*
X015025Y001417D02*
X007965Y001417D01*
X007964Y001359D02*
X015076Y001359D01*
X015067Y001593D02*
X007873Y001593D01*
X007905Y001300D02*
X016070Y001300D01*
X016129Y001359D02*
X015314Y001359D01*
X015577Y001417D02*
X016187Y001417D01*
X016246Y001476D02*
X015635Y001476D01*
X015694Y001534D02*
X016304Y001534D01*
X016363Y001593D02*
X015752Y001593D01*
X015811Y001651D02*
X016421Y001651D01*
X016480Y001710D02*
X015869Y001710D01*
X015928Y001768D02*
X016538Y001768D01*
X011800Y004986D02*
X011720Y004986D01*
X011779Y005044D02*
X011800Y005044D01*
X011599Y005454D02*
X002490Y005454D01*
X002490Y005512D02*
X009173Y005512D01*
X009175Y005510D02*
X009315Y005510D01*
X009415Y005610D01*
X009415Y005750D01*
X009315Y005850D01*
X009175Y005850D01*
X009075Y005750D01*
X009075Y005610D01*
X009175Y005510D01*
X009114Y005571D02*
X002490Y005571D01*
X002490Y005629D02*
X009075Y005629D01*
X009075Y005688D02*
X002490Y005688D01*
X002490Y005746D02*
X009075Y005746D01*
X009129Y005805D02*
X006685Y005805D01*
X006740Y005863D02*
X012008Y005863D01*
X011950Y005805D02*
X009361Y005805D01*
X009415Y005746D02*
X011891Y005746D01*
X011833Y005688D02*
X009415Y005688D01*
X009415Y005629D02*
X011774Y005629D01*
X011716Y005571D02*
X009376Y005571D01*
X009317Y005512D02*
X011657Y005512D01*
X012265Y005850D02*
X012265Y006030D01*
X012295Y006060D01*
X012495Y006060D01*
X013045Y006610D01*
X013105Y006610D01*
X013075Y006580D01*
X012775Y006280D01*
X012775Y006180D01*
X012775Y006180D01*
X012445Y005850D01*
X012265Y005850D01*
X012265Y005863D02*
X012458Y005863D01*
X012517Y005922D02*
X012265Y005922D01*
X012265Y005980D02*
X012575Y005980D01*
X012634Y006039D02*
X012273Y006039D01*
X012532Y006097D02*
X012692Y006097D01*
X012751Y006156D02*
X012590Y006156D01*
X012649Y006214D02*
X012775Y006214D01*
X012775Y006273D02*
X012707Y006273D01*
X012766Y006331D02*
X012826Y006331D01*
X012824Y006390D02*
X012885Y006390D01*
X012883Y006448D02*
X012943Y006448D01*
X012941Y006507D02*
X013002Y006507D01*
X013000Y006565D02*
X013060Y006565D01*
X012836Y006741D02*
X010415Y006741D01*
X010415Y006799D02*
X012894Y006799D01*
X012777Y006682D02*
X010365Y006682D01*
X010365Y006624D02*
X012719Y006624D01*
X012660Y006565D02*
X010365Y006565D01*
X010365Y006507D02*
X012602Y006507D01*
X013681Y006975D02*
X010316Y006975D01*
X010374Y006916D02*
X013739Y006916D01*
X013798Y006858D02*
X010415Y006858D01*
X009976Y006331D02*
X009761Y006331D01*
X008865Y005395D02*
X002490Y005395D01*
X002490Y005337D02*
X008807Y005337D01*
X008275Y006565D02*
X006840Y006565D01*
X006840Y006624D02*
X007486Y006624D01*
X007428Y006682D02*
X006840Y006682D01*
X006871Y006741D02*
X007425Y006741D01*
X007425Y006799D02*
X006890Y006799D01*
X006890Y006858D02*
X007457Y006858D01*
X007465Y006916D02*
X006874Y006916D01*
X006816Y006975D02*
X007465Y006975D01*
X007725Y006975D02*
X008299Y006975D01*
X008241Y006916D02*
X007725Y006916D01*
X007733Y006858D02*
X008225Y006858D01*
X008225Y006799D02*
X007765Y006799D01*
X007765Y006741D02*
X008244Y006741D01*
X008275Y006682D02*
X007762Y006682D01*
X007704Y006624D02*
X008275Y006624D01*
X007677Y008847D02*
X009088Y008847D01*
X009050Y008905D02*
X008740Y008905D01*
X008798Y008964D02*
X009050Y008964D01*
X009050Y009022D02*
X008927Y009022D01*
X009237Y009432D02*
X011724Y009432D01*
X012454Y010075D02*
X012575Y010075D01*
X012575Y010017D02*
X012511Y010017D01*
X012569Y009958D02*
X012575Y009958D01*
X012575Y010134D02*
X012396Y010134D01*
X012339Y010192D02*
X012575Y010192D01*
X012575Y010251D02*
X012281Y010251D01*
X012224Y010309D02*
X012546Y010309D01*
X012487Y010368D02*
X012166Y010368D01*
X012109Y010426D02*
X012426Y010426D01*
X012366Y010485D02*
X012051Y010485D01*
X011994Y010543D02*
X012305Y010543D01*
X012245Y010602D02*
X011936Y010602D01*
X011879Y010660D02*
X012184Y010660D01*
X012124Y010719D02*
X011822Y010719D01*
X011764Y010777D02*
X012063Y010777D01*
X012003Y010836D02*
X011707Y010836D01*
X011649Y010894D02*
X011942Y010894D01*
X011882Y010953D02*
X011592Y010953D01*
X011602Y010942D02*
X011602Y010942D01*
X011534Y011011D02*
X011821Y011011D01*
X011761Y011070D02*
X010578Y011070D01*
X010540Y011128D02*
X011700Y011128D01*
X011640Y011187D02*
X010482Y011187D01*
X010375Y011245D02*
X011579Y011245D01*
X011519Y011304D02*
X009865Y011304D01*
X009865Y011362D02*
X011458Y011362D01*
X011398Y011421D02*
X009865Y011421D01*
X009828Y011479D02*
X011337Y011479D01*
X011277Y011538D02*
X010368Y011538D01*
X010479Y011596D02*
X011216Y011596D01*
X011156Y011655D02*
X010538Y011655D01*
X010577Y011713D02*
X011095Y011713D01*
X011035Y011772D02*
X010601Y011772D01*
X010580Y012064D02*
X011127Y012064D01*
X011139Y012006D02*
X011186Y012006D01*
X011199Y011947D02*
X011244Y011947D01*
X011259Y011889D02*
X011303Y011889D01*
X011320Y011830D02*
X011361Y011830D01*
X011380Y011772D02*
X011420Y011772D01*
X011441Y011713D02*
X011478Y011713D01*
X011501Y011655D02*
X011537Y011655D01*
X011562Y011596D02*
X011595Y011596D01*
X011622Y011538D02*
X011654Y011538D01*
X011683Y011479D02*
X011712Y011479D01*
X011743Y011421D02*
X011771Y011421D01*
X011804Y011362D02*
X011829Y011362D01*
X011864Y011304D02*
X011888Y011304D01*
X011925Y011245D02*
X011946Y011245D01*
X011985Y011187D02*
X012005Y011187D01*
X012046Y011128D02*
X012063Y011128D01*
X012106Y011070D02*
X012122Y011070D01*
X012167Y011011D02*
X012180Y011011D01*
X012227Y010953D02*
X012239Y010953D01*
X012288Y010894D02*
X012297Y010894D01*
X012348Y010836D02*
X013906Y010836D01*
X013964Y010777D02*
X012409Y010777D01*
X012469Y010719D02*
X014023Y010719D01*
X014081Y010660D02*
X012530Y010660D01*
X012590Y010602D02*
X014140Y010602D01*
X014198Y010543D02*
X012652Y010543D01*
X012711Y010485D02*
X014257Y010485D01*
X014315Y010426D02*
X012769Y010426D01*
X012815Y010368D02*
X014374Y010368D01*
X013859Y011596D02*
X011963Y011596D01*
X011904Y011655D02*
X013801Y011655D01*
X013800Y011713D02*
X011846Y011713D01*
X011787Y011772D02*
X013800Y011772D01*
X013800Y011830D02*
X011729Y011830D01*
X012087Y011889D02*
X013800Y011889D01*
X013800Y011947D02*
X012125Y011947D01*
X012125Y012006D02*
X013801Y012006D01*
X013856Y012064D02*
X012125Y012064D01*
X012125Y012123D02*
X013798Y012123D01*
X013739Y012181D02*
X012125Y012181D01*
X012125Y012240D02*
X013681Y012240D01*
X013622Y012298D02*
X012125Y012298D01*
X012125Y012357D02*
X013564Y012357D01*
X013505Y012415D02*
X012125Y012415D01*
X012125Y012474D02*
X013447Y012474D01*
X013388Y012532D02*
X012125Y012532D01*
X012125Y012591D02*
X013330Y012591D01*
X013271Y012649D02*
X012125Y012649D01*
X012125Y012708D02*
X013213Y012708D01*
X013154Y012766D02*
X012125Y012766D01*
X012125Y012825D02*
X013096Y012825D01*
X013037Y012883D02*
X012125Y012883D01*
X012125Y012942D02*
X012979Y012942D01*
X012920Y013000D02*
X012109Y013000D01*
X012050Y013059D02*
X012862Y013059D01*
X012803Y013117D02*
X010442Y013117D01*
X010500Y013059D02*
X011540Y013059D01*
X011481Y013000D02*
X010559Y013000D01*
X010617Y012942D02*
X011465Y012942D01*
X011465Y012883D02*
X010676Y012883D01*
X010734Y012825D02*
X011465Y012825D01*
X011465Y012766D02*
X010793Y012766D01*
X010851Y012708D02*
X011465Y012708D01*
X011465Y012649D02*
X010910Y012649D01*
X010968Y012591D02*
X011465Y012591D01*
X011465Y012532D02*
X011027Y012532D01*
X011085Y012474D02*
X011465Y012474D01*
X011465Y012415D02*
X011144Y012415D01*
X011202Y012357D02*
X011465Y012357D01*
X011465Y012298D02*
X011261Y012298D01*
X011319Y012240D02*
X011465Y012240D01*
X011465Y012181D02*
X011378Y012181D01*
X011436Y012123D02*
X011465Y012123D01*
X011069Y012123D02*
X010546Y012123D01*
X010487Y012181D02*
X011010Y012181D01*
X010952Y012240D02*
X010388Y012240D01*
X010102Y012240D02*
X009388Y012240D01*
X009487Y012181D02*
X010003Y012181D01*
X009944Y012123D02*
X009546Y012123D01*
X009580Y012064D02*
X009910Y012064D01*
X009886Y012006D02*
X009604Y012006D01*
X009620Y011947D02*
X009870Y011947D01*
X009870Y011889D02*
X009620Y011889D01*
X009620Y011830D02*
X009870Y011830D01*
X009889Y011772D02*
X009601Y011772D01*
X009594Y011713D02*
X009913Y011713D01*
X009952Y011655D02*
X009653Y011655D01*
X009711Y011596D02*
X010011Y011596D01*
X010122Y011538D02*
X009770Y011538D01*
X009865Y011245D02*
X010115Y011245D01*
X010008Y011187D02*
X009865Y011187D01*
X009865Y011128D02*
X009950Y011128D01*
X009912Y011070D02*
X009865Y011070D01*
X009865Y011011D02*
X009888Y011011D01*
X009870Y010953D02*
X009865Y010953D01*
X009865Y010894D02*
X009870Y010894D01*
X009865Y010836D02*
X009870Y010836D01*
X009425Y010543D02*
X009382Y010543D01*
X009108Y010543D02*
X008382Y010543D01*
X008485Y010602D02*
X009005Y010602D01*
X008947Y010660D02*
X008543Y010660D01*
X008579Y010719D02*
X008911Y010719D01*
X008887Y010777D02*
X008603Y010777D01*
X008620Y010836D02*
X008870Y010836D01*
X008870Y010894D02*
X008620Y010894D01*
X008620Y010953D02*
X008870Y010953D01*
X008888Y011011D02*
X008602Y011011D01*
X008606Y011070D02*
X008912Y011070D01*
X008950Y011128D02*
X008664Y011128D01*
X008723Y011187D02*
X009008Y011187D01*
X009115Y011245D02*
X008781Y011245D01*
X010485Y010602D02*
X011600Y010602D01*
X011543Y010660D02*
X010543Y010660D01*
X010579Y010719D02*
X011485Y010719D01*
X013664Y012766D02*
X014000Y012766D01*
X013942Y012825D02*
X013605Y012825D01*
X013547Y012883D02*
X013883Y012883D01*
X013825Y012942D02*
X013488Y012942D01*
X013430Y013000D02*
X013766Y013000D01*
X013708Y013059D02*
X013371Y013059D01*
X013313Y013117D02*
X013649Y013117D01*
X013591Y013176D02*
X013254Y013176D01*
X013196Y013234D02*
X013532Y013234D01*
X013474Y013293D02*
X013137Y013293D01*
X013079Y013351D02*
X013415Y013351D01*
X013357Y013410D02*
X013020Y013410D01*
X012962Y013468D02*
X013298Y013468D01*
X013240Y013527D02*
X012903Y013527D01*
X012845Y013585D02*
X013181Y013585D01*
X013123Y013644D02*
X012786Y013644D01*
X012728Y013702D02*
X013064Y013702D01*
X013006Y013761D02*
X012669Y013761D01*
X012610Y013819D02*
X012947Y013819D01*
X012889Y013878D02*
X012552Y013878D01*
X012493Y013936D02*
X012830Y013936D01*
X012772Y013995D02*
X012435Y013995D01*
X012376Y014053D02*
X012713Y014053D01*
X012655Y014112D02*
X012318Y014112D01*
X012259Y014170D02*
X012596Y014170D01*
X012538Y014229D02*
X012201Y014229D01*
X012142Y014287D02*
X012479Y014287D01*
X012421Y014346D02*
X012084Y014346D01*
X012025Y014404D02*
X012362Y014404D01*
X012101Y013819D02*
X009740Y013819D01*
X009775Y013784D02*
X009775Y013784D01*
X009798Y013761D02*
X012160Y013761D01*
X012218Y013702D02*
X009857Y013702D01*
X009915Y013644D02*
X012277Y013644D01*
X012335Y013585D02*
X009974Y013585D01*
X010032Y013527D02*
X012394Y013527D01*
X012452Y013468D02*
X010091Y013468D01*
X010149Y013410D02*
X012511Y013410D01*
X012569Y013351D02*
X010208Y013351D01*
X010266Y013293D02*
X012628Y013293D01*
X012686Y013234D02*
X010325Y013234D01*
X010383Y013176D02*
X012745Y013176D01*
X013722Y012708D02*
X014059Y012708D01*
X014117Y012649D02*
X013781Y012649D01*
X013839Y012591D02*
X014144Y012591D01*
X014007Y008788D02*
X015417Y008788D01*
X015476Y008730D02*
X014065Y008730D01*
X014615Y007852D02*
X015452Y007852D01*
X015393Y007794D02*
X014615Y007794D01*
X014630Y007735D02*
X015375Y007735D01*
X015965Y007735D02*
X017475Y007735D01*
X017450Y007794D02*
X015965Y007794D01*
X015965Y007852D02*
X017450Y007852D01*
X017460Y007911D02*
X015965Y007911D01*
X015965Y007969D02*
X017519Y007969D01*
X017533Y007677D02*
X015965Y007677D01*
X015151Y006916D02*
X019735Y006916D01*
X019735Y006858D02*
X015092Y006858D01*
X015034Y006799D02*
X019735Y006799D01*
X019735Y006741D02*
X014975Y006741D01*
X014917Y006682D02*
X019735Y006682D01*
X019735Y006624D02*
X014858Y006624D01*
X014800Y006565D02*
X019735Y006565D01*
X019735Y006507D02*
X014741Y006507D01*
X014683Y006448D02*
X019735Y006448D01*
X019735Y006390D02*
X014624Y006390D01*
X014566Y006331D02*
X019735Y006331D01*
X019735Y006273D02*
X014507Y006273D01*
X014449Y006214D02*
X019735Y006214D01*
X019735Y006156D02*
X014390Y006156D01*
X017802Y007267D02*
X018112Y007267D01*
X018171Y007326D02*
X017860Y007326D01*
X017919Y007384D02*
X018229Y007384D01*
X018288Y007443D02*
X017977Y007443D01*
X018036Y007501D02*
X018346Y007501D01*
X018405Y007560D02*
X018065Y007560D01*
X018065Y007618D02*
X018463Y007618D01*
X018522Y007677D02*
X018065Y007677D01*
X018065Y007735D02*
X018525Y007735D01*
X018568Y007794D02*
X018065Y007794D01*
X003466Y005805D02*
X002490Y005805D01*
X002490Y005863D02*
X003407Y005863D01*
X003349Y005922D02*
X002490Y005922D01*
X002490Y005980D02*
X003290Y005980D01*
X003232Y006039D02*
X002490Y006039D01*
X002490Y006097D02*
X003173Y006097D01*
X002498Y006624D02*
X002292Y006624D01*
X002350Y006565D02*
X002440Y006565D01*
X002400Y006507D02*
X002390Y006507D01*
X002390Y006448D02*
X002393Y006448D01*
X002530Y006741D02*
X002189Y006741D01*
D15*
X002095Y006830D02*
X001145Y006830D01*
X001145Y007230D01*
X002095Y007230D01*
X002095Y006830D01*
X002095Y006927D02*
X001145Y006927D01*
X001145Y007025D02*
X002095Y007025D01*
X002095Y007124D02*
X001145Y007124D01*
X001145Y007222D02*
X002095Y007222D01*
X000945Y006730D02*
X001645Y006030D01*
X001645Y002930D01*
X004745Y006530D02*
X004745Y006755D01*
X005920Y007930D01*
X007170Y007930D01*
X007595Y007034D02*
X008490Y007929D01*
X008794Y007929D01*
X008820Y007930D01*
X007595Y007034D02*
X007595Y006755D01*
X007245Y010893D02*
X006745Y011393D01*
X006745Y012180D01*
X006991Y012426D01*
X006991Y012980D01*
X006499Y012980D02*
X006095Y012980D01*
X005541Y012980D02*
X005541Y012434D01*
X005745Y012230D01*
X005745Y011393D01*
X006245Y010893D01*
X008245Y010893D02*
X008745Y011393D01*
X008745Y012130D01*
X008491Y012384D01*
X008491Y012980D01*
X007999Y012980D02*
X007495Y012980D01*
X009645Y013730D02*
X012395Y010980D01*
X013945Y010980D01*
X014545Y010380D01*
X014545Y009830D01*
X011995Y011980D02*
X011995Y012930D01*
X011595Y012930D01*
X011595Y011992D01*
X011607Y011980D01*
X011995Y011980D01*
X011995Y012049D02*
X011595Y012049D01*
X011595Y012147D02*
X011995Y012147D01*
X011995Y012246D02*
X011595Y012246D01*
X011595Y012344D02*
X011995Y012344D01*
X011995Y012443D02*
X011595Y012443D01*
X011595Y012541D02*
X011995Y012541D01*
X011995Y012640D02*
X011595Y012640D01*
X011595Y012738D02*
X011995Y012738D01*
X011995Y012837D02*
X011595Y012837D01*
X009645Y013730D02*
X004445Y013730D01*
X002445Y011730D01*
X000945Y011430D02*
X000945Y006730D01*
X000945Y011430D02*
X004295Y014780D01*
X012170Y014780D01*
X014270Y012680D01*
X014295Y012680D01*
X005049Y012980D02*
X004745Y012980D01*
X004545Y013180D01*
X004545Y013330D01*
D16*
X009245Y011893D02*
X009745Y011393D01*
X009745Y010680D01*
X010045Y010380D01*
X011195Y010380D01*
X012195Y009380D01*
X012695Y009380D01*
X013945Y008130D01*
X013945Y007280D01*
X014245Y006980D01*
X014045Y006780D02*
X013745Y007080D01*
X013745Y008079D01*
X012594Y009230D01*
X012095Y009230D01*
X011145Y010180D01*
X009958Y010180D01*
X009245Y010893D01*
X010245Y010893D02*
X011482Y010893D01*
X014245Y008080D01*
X014245Y007280D01*
X014495Y007630D02*
X014495Y008130D01*
X012695Y009930D01*
X012695Y010330D01*
X012595Y010430D01*
X011082Y011893D01*
X010245Y011893D01*
X008845Y009180D02*
X008645Y008980D01*
X007570Y008980D01*
X009220Y008955D02*
X010720Y008955D01*
X010920Y008755D01*
X010470Y007930D02*
X009620Y007080D01*
X009620Y006430D01*
X009945Y006130D02*
X010245Y006430D01*
X010245Y006805D01*
X008395Y006830D02*
X008395Y006330D01*
X008970Y005330D02*
X011645Y005330D01*
X012145Y005830D01*
X012145Y006080D01*
X012245Y006180D01*
X012445Y006180D01*
X012995Y006730D01*
X013695Y006730D01*
X013795Y006630D01*
X013545Y006480D02*
X013495Y006530D01*
X013195Y006530D01*
X012895Y006230D01*
X012895Y006130D01*
X012495Y005730D01*
X012295Y005730D01*
X011620Y005055D01*
X009245Y005055D01*
X008970Y005330D02*
X008695Y005055D01*
X006495Y005055D01*
X007045Y004805D02*
X009795Y004805D01*
X009245Y004480D02*
X011995Y004480D01*
X011995Y004630D01*
X012345Y005030D01*
X012545Y005030D01*
X012770Y005255D01*
X016870Y005255D01*
X016954Y005171D01*
X017411Y005171D01*
X017595Y005355D02*
X017995Y004955D01*
X017995Y003630D01*
X017595Y003230D01*
X017620Y002680D01*
X016070Y001130D01*
X005020Y001130D01*
X002370Y003780D01*
X002370Y006255D01*
X002570Y006455D01*
X002220Y006455D02*
X002220Y003655D01*
X004945Y000930D01*
X016170Y000930D01*
X018220Y002980D01*
X018220Y005455D01*
X017895Y005780D01*
X017370Y005780D01*
X017195Y005605D01*
X016945Y005705D02*
X016945Y005480D01*
X017070Y005355D01*
X017595Y005355D01*
X017195Y005955D02*
X016945Y005705D01*
X016770Y005080D02*
X016870Y004980D01*
X016770Y005080D02*
X013095Y005080D01*
X012395Y004380D01*
X012295Y004380D01*
X011995Y004080D01*
X009245Y004080D01*
X006495Y004080D01*
X006495Y003705D02*
X009245Y003705D01*
X011995Y003705D01*
X012020Y003705D01*
X012095Y003780D01*
X012395Y003780D01*
X012695Y004080D01*
X012695Y004430D01*
X013170Y004905D01*
X016320Y004905D01*
X016570Y004655D01*
X016470Y004330D02*
X016270Y004130D01*
X015045Y004130D01*
X013945Y003030D01*
X013945Y002630D01*
X013620Y002305D01*
X013220Y002305D01*
X013020Y002430D02*
X013020Y002130D01*
X013020Y002430D02*
X013295Y002705D01*
X013295Y003030D01*
X014295Y004030D01*
X014620Y004030D01*
X014995Y004405D01*
X015320Y004405D01*
X015570Y003980D02*
X015895Y003980D01*
X015995Y003880D01*
X015995Y003330D01*
X015645Y002980D01*
X015645Y002630D01*
X015195Y002180D01*
X015195Y002080D01*
X015195Y001780D02*
X015495Y001780D01*
X016270Y002555D01*
X016270Y003780D01*
X016445Y003580D02*
X016445Y002455D01*
X015470Y001480D01*
X015195Y001480D01*
X015045Y002680D02*
X014595Y002680D01*
X015045Y002680D02*
X015195Y002830D01*
X015195Y003230D01*
X015745Y003780D01*
X015570Y003980D02*
X015520Y003930D01*
X016445Y003580D02*
X016570Y003705D01*
X016570Y003980D01*
X014195Y004480D02*
X012745Y003030D01*
X012745Y002880D01*
X012645Y002730D01*
X007545Y002730D01*
X006945Y003330D01*
X006495Y003330D01*
X006945Y002530D02*
X004595Y002530D01*
X004095Y003030D01*
X004295Y004805D02*
X007045Y004805D01*
X006495Y004480D02*
X009245Y004480D01*
X009245Y003330D02*
X009645Y002930D01*
X011995Y002930D01*
X012245Y003180D01*
X012644Y003180D01*
X013745Y004281D01*
X013745Y004630D01*
X013320Y004630D02*
X013320Y004107D01*
X012543Y003330D01*
X012119Y003330D01*
X012069Y003280D01*
X011995Y003280D01*
X011995Y005030D02*
X011995Y005230D01*
X012345Y005580D01*
X012595Y005580D01*
X013295Y006280D01*
X013570Y005980D02*
X013820Y005980D01*
X015545Y007705D01*
X015845Y007480D02*
X015845Y008530D01*
X014545Y009830D01*
X013920Y011705D02*
X013920Y011955D01*
X015170Y011955D01*
X015170Y011705D01*
X013920Y011705D01*
X013920Y011748D02*
X015170Y011748D01*
X015170Y011827D02*
X013920Y011827D01*
X013920Y011905D02*
X015170Y011905D01*
X017745Y009055D02*
X017945Y008855D01*
X017945Y007580D01*
X017695Y007330D01*
X016945Y007330D01*
X016870Y007255D01*
X017170Y007105D02*
X018120Y007105D01*
X018695Y007680D01*
X015845Y007480D02*
X015645Y007280D01*
X015345Y007280D01*
X014195Y006130D01*
X014195Y005480D01*
X013570Y005980D02*
X013095Y005505D01*
X011995Y005030D02*
X011970Y005030D01*
X014195Y004630D02*
X014195Y004480D01*
X006720Y006355D02*
X006695Y006330D01*
X006720Y006355D02*
X006720Y006830D01*
D17*
X006695Y006330D02*
X006195Y006330D01*
X005795Y005930D01*
X003595Y005930D01*
X002595Y006930D01*
X001995Y006930D01*
X001345Y007180D02*
X001345Y011230D01*
X004388Y014273D01*
X011902Y014273D01*
X014045Y012130D01*
X014045Y011830D01*
X009245Y006330D02*
X008395Y006330D01*
X006695Y006330D01*
X009245Y006330D02*
X009445Y006130D01*
X009945Y006130D01*
D18*
X003120Y015180D02*
X003020Y015178D01*
X002920Y015172D01*
X002820Y015162D01*
X002721Y015149D01*
X002623Y015131D01*
X002525Y015110D01*
X002428Y015084D01*
X002332Y015055D01*
X002237Y015022D01*
X002144Y014986D01*
X002052Y014946D01*
X001962Y014902D01*
X001874Y014855D01*
X001788Y014804D01*
X001703Y014750D01*
X001621Y014693D01*
X001541Y014633D01*
X001464Y014569D01*
X001389Y014503D01*
X001317Y014433D01*
X001247Y014361D01*
X001181Y014286D01*
X001117Y014209D01*
X001057Y014129D01*
X001000Y014047D01*
X000946Y013962D01*
X000895Y013876D01*
X000848Y013788D01*
X000804Y013698D01*
X000764Y013606D01*
X000728Y013513D01*
X000695Y013418D01*
X000666Y013322D01*
X000640Y013225D01*
X000619Y013127D01*
X000601Y013029D01*
X000588Y012930D01*
X000578Y012830D01*
X000572Y012730D01*
X000570Y012630D01*
X000570Y006405D01*
X000505Y006405D01*
X000670Y006405D02*
X000735Y006405D01*
X000670Y006405D02*
X000670Y012630D01*
X000672Y012726D01*
X000678Y012822D01*
X000687Y012918D01*
X000700Y013013D01*
X000717Y013108D01*
X000738Y013202D01*
X000762Y013295D01*
X000790Y013387D01*
X000821Y013478D01*
X000856Y013568D01*
X000895Y013656D01*
X000937Y013742D01*
X000982Y013827D01*
X001031Y013910D01*
X001083Y013991D01*
X001138Y014070D01*
X001196Y014147D01*
X001257Y014221D01*
X001321Y014293D01*
X001388Y014362D01*
X001457Y014429D01*
X001529Y014493D01*
X001603Y014554D01*
X001680Y014612D01*
X001759Y014667D01*
X001840Y014719D01*
X001923Y014768D01*
X002008Y014813D01*
X002094Y014855D01*
X002182Y014894D01*
X002272Y014929D01*
X002363Y014960D01*
X002455Y014988D01*
X002548Y015012D01*
X002642Y015033D01*
X002737Y015050D01*
X002832Y015063D01*
X002928Y015072D01*
X003024Y015078D01*
X003120Y015080D01*
X013570Y015080D01*
X013570Y015180D02*
X003120Y015180D01*
X013570Y015180D02*
X013625Y015178D01*
X013679Y015173D01*
X013733Y015163D01*
X013786Y015150D01*
X013838Y015134D01*
X013889Y015114D01*
X013938Y015090D01*
X013986Y015064D01*
X014031Y015034D01*
X014075Y015001D01*
X014116Y014965D01*
X014155Y014926D01*
X014191Y014885D01*
X014224Y014841D01*
X014254Y014796D01*
X014280Y014748D01*
X014304Y014699D01*
X014324Y014648D01*
X014340Y014596D01*
X014353Y014543D01*
X014363Y014489D01*
X014368Y014435D01*
X014370Y014380D01*
X014370Y013355D01*
X014435Y013355D01*
X014270Y013355D02*
X014270Y014380D01*
X014268Y014430D01*
X014263Y014480D01*
X014254Y014529D01*
X014242Y014577D01*
X014226Y014625D01*
X014207Y014671D01*
X014184Y014715D01*
X014159Y014758D01*
X014130Y014799D01*
X014099Y014838D01*
X014065Y014875D01*
X014028Y014909D01*
X013989Y014940D01*
X013948Y014969D01*
X013905Y014994D01*
X013861Y015017D01*
X013815Y015036D01*
X013767Y015052D01*
X013719Y015064D01*
X013670Y015073D01*
X013620Y015078D01*
X013570Y015080D01*
X014205Y013355D02*
X014270Y013355D01*
M02*
