G75*
%MOIN*%
%OFA0B0*%
%FSLAX24Y24*%
%IPPOS*%
%LPD*%
%AMOC8*
5,1,8,0,0,1.08239X$1,22.5*
%
%ADD10C,0.0075*%
%ADD11C,0.0098*%
%ADD12C,0.0030*%
%ADD13C,0.0050*%
%ADD14R,0.0236X0.0315*%
%ADD15C,0.0060*%
%ADD16R,0.0138X0.0502*%
%ADD17R,0.0118X0.0394*%
%ADD18R,0.0118X0.0118*%
D10*
X003488Y002151D02*
X003488Y002309D01*
X003802Y002309D02*
X003802Y002151D01*
X004450Y003035D02*
X004450Y004925D01*
X006340Y004925D01*
X006340Y003035D01*
X004450Y003035D01*
X005688Y002309D02*
X005688Y002151D01*
X006002Y002151D02*
X006002Y002309D01*
X006288Y002309D02*
X006288Y002151D01*
X006602Y002151D02*
X006602Y002309D01*
X007200Y003035D02*
X007200Y004925D01*
X009090Y004925D01*
X009090Y003035D01*
X007200Y003035D01*
X008188Y002409D02*
X008188Y002251D01*
X008502Y002251D02*
X008502Y002409D01*
X009950Y003035D02*
X009950Y004925D01*
X011840Y004925D01*
X011840Y003035D01*
X009950Y003035D01*
X010938Y002409D02*
X010938Y002251D01*
X011252Y002251D02*
X011252Y002409D01*
X009724Y001137D02*
X009566Y001137D01*
X009566Y000823D02*
X009724Y000823D01*
X013427Y001583D02*
X013427Y002527D01*
X014963Y002527D01*
X014963Y001583D01*
X013427Y001583D01*
X015516Y002348D02*
X015674Y002348D01*
X015674Y002662D02*
X015516Y002662D01*
X015052Y004101D02*
X015052Y004259D01*
X014738Y004259D02*
X014738Y004101D01*
X014406Y004791D02*
X014406Y007469D01*
X017084Y007469D01*
X017084Y004791D01*
X014406Y004791D01*
X013774Y005698D02*
X013616Y005698D01*
X013616Y006012D02*
X013774Y006012D01*
X011777Y005709D02*
X011777Y005551D01*
X011463Y005551D02*
X011463Y005709D01*
X011177Y005709D02*
X011177Y005551D01*
X010863Y005551D02*
X010863Y005709D01*
X010399Y007123D02*
X010241Y007123D01*
X010241Y007437D02*
X010399Y007437D01*
X010317Y007732D02*
X009373Y007732D01*
X009373Y009228D01*
X010317Y009228D01*
X010317Y007732D01*
X008749Y007437D02*
X008591Y007437D01*
X008667Y007732D02*
X007723Y007732D01*
X007723Y009228D01*
X008667Y009228D01*
X008667Y007732D01*
X008591Y007123D02*
X008749Y007123D01*
X007099Y007123D02*
X006941Y007123D01*
X006941Y007437D02*
X007099Y007437D01*
X007017Y007732D02*
X006073Y007732D01*
X006073Y009228D01*
X007017Y009228D01*
X007017Y007732D01*
X006888Y009851D02*
X006888Y010009D01*
X007202Y010009D02*
X007202Y009851D01*
X008538Y009851D02*
X008538Y010009D01*
X008852Y010009D02*
X008852Y009851D01*
X010188Y009851D02*
X010188Y010009D01*
X010502Y010009D02*
X010502Y009851D01*
X011899Y011582D02*
X011899Y011778D01*
X012391Y011778D02*
X012391Y011582D01*
X012723Y011179D02*
X013667Y011179D01*
X013667Y012281D01*
X012723Y012281D01*
X012723Y011179D01*
X012816Y010887D02*
X012974Y010887D01*
X012974Y010573D02*
X012816Y010573D01*
X014159Y010708D02*
X014159Y011652D01*
X015931Y011652D01*
X015931Y010708D01*
X014159Y010708D01*
X014476Y012404D02*
X014476Y012956D01*
X015814Y012956D01*
X015814Y012404D01*
X014476Y012404D01*
X016144Y013506D02*
X012246Y013506D01*
X012246Y015630D01*
X016144Y015630D02*
X016144Y013506D01*
X017205Y011095D02*
X017835Y011095D01*
X018150Y010839D02*
X018150Y010721D01*
X017835Y010465D02*
X017205Y010465D01*
X016890Y010721D02*
X016890Y010839D01*
X016774Y009337D02*
X016616Y009337D01*
X016616Y009023D02*
X016774Y009023D01*
X016774Y008737D02*
X016616Y008737D01*
X016616Y008423D02*
X016774Y008423D01*
X017888Y008459D02*
X017888Y008301D01*
X018202Y008301D02*
X018202Y008459D01*
X018538Y008459D02*
X018538Y008301D01*
X018852Y008301D02*
X018852Y008459D01*
X018524Y009023D02*
X018366Y009023D01*
X018366Y009337D02*
X018524Y009337D01*
X017874Y007612D02*
X017716Y007612D01*
X017716Y007298D02*
X017874Y007298D01*
X017874Y006987D02*
X017716Y006987D01*
X017716Y006673D02*
X017874Y006673D01*
X018438Y006901D02*
X018438Y007059D01*
X018752Y007059D02*
X018752Y006901D01*
X018324Y004737D02*
X018166Y004737D01*
X018166Y004423D02*
X018324Y004423D01*
X017152Y004259D02*
X017152Y004101D01*
X016838Y004101D02*
X016838Y004259D01*
X015524Y007923D02*
X015366Y007923D01*
X015366Y008237D02*
X015524Y008237D01*
X015524Y008523D02*
X015366Y008523D01*
X015366Y008837D02*
X015524Y008837D01*
X014702Y008809D02*
X014702Y008651D01*
X014388Y008651D02*
X014388Y008809D01*
X013774Y008687D02*
X013616Y008687D01*
X013616Y008373D02*
X013774Y008373D01*
X009027Y005709D02*
X009027Y005551D01*
X008713Y005551D02*
X008713Y005709D01*
X008427Y005709D02*
X008427Y005551D01*
X008113Y005551D02*
X008113Y005709D01*
X006277Y005709D02*
X006277Y005551D01*
X005963Y005551D02*
X005963Y005709D01*
X005677Y005709D02*
X005677Y005551D01*
X005363Y005551D02*
X005363Y005709D01*
X003752Y005209D02*
X003752Y005051D01*
X003438Y005051D02*
X003438Y005209D01*
X003140Y004435D02*
X001250Y004435D01*
X001250Y006325D01*
X003140Y006325D01*
X003140Y004435D01*
X002402Y003809D02*
X002402Y003651D01*
X002088Y003651D02*
X002088Y003809D01*
X001802Y003609D02*
X001802Y003451D01*
X001488Y003451D02*
X001488Y003609D01*
X001202Y003609D02*
X001202Y003451D01*
X000888Y003451D02*
X000888Y003609D01*
X000952Y004651D02*
X000952Y004809D01*
X000638Y004809D02*
X000638Y004651D01*
X002297Y007134D02*
X002493Y007134D01*
X002493Y007626D02*
X002297Y007626D01*
X001794Y007958D02*
X001794Y008902D01*
X002896Y008902D01*
X002896Y007958D01*
X001794Y007958D01*
X003188Y008051D02*
X003188Y008209D01*
X003502Y008209D02*
X003502Y008051D01*
X003867Y010394D02*
X002923Y010394D01*
X002923Y012166D01*
X003867Y012166D01*
X003867Y010394D01*
X002066Y010535D02*
X002066Y011125D01*
X001101Y010830D02*
X001103Y010869D01*
X001109Y010908D01*
X001119Y010946D01*
X001132Y010983D01*
X001149Y011018D01*
X001169Y011052D01*
X001193Y011083D01*
X001220Y011112D01*
X001249Y011138D01*
X001281Y011161D01*
X001315Y011181D01*
X001351Y011197D01*
X001388Y011209D01*
X001427Y011218D01*
X001466Y011223D01*
X001505Y011224D01*
X001544Y011221D01*
X001583Y011214D01*
X001620Y011203D01*
X001657Y011189D01*
X001692Y011171D01*
X001725Y011150D01*
X001756Y011125D01*
X001784Y011098D01*
X001809Y011068D01*
X001831Y011035D01*
X001850Y011001D01*
X001865Y010965D01*
X001877Y010927D01*
X001885Y010889D01*
X001889Y010850D01*
X001889Y010810D01*
X001885Y010771D01*
X001877Y010733D01*
X001865Y010695D01*
X001850Y010659D01*
X001831Y010625D01*
X001809Y010592D01*
X001784Y010562D01*
X001756Y010535D01*
X001725Y010510D01*
X001692Y010489D01*
X001657Y010471D01*
X001620Y010457D01*
X001583Y010446D01*
X001544Y010439D01*
X001505Y010436D01*
X001466Y010437D01*
X001427Y010442D01*
X001388Y010451D01*
X001351Y010463D01*
X001315Y010479D01*
X001281Y010499D01*
X001249Y010522D01*
X001220Y010548D01*
X001193Y010577D01*
X001169Y010608D01*
X001149Y010642D01*
X001132Y010677D01*
X001119Y010714D01*
X001109Y010752D01*
X001103Y010791D01*
X001101Y010830D01*
X000924Y010535D02*
X000924Y011125D01*
X003466Y013123D02*
X003624Y013123D01*
X003624Y013437D02*
X003466Y013437D01*
X003466Y013973D02*
X003624Y013973D01*
X003624Y014287D02*
X003466Y014287D01*
X003466Y014873D02*
X003624Y014873D01*
X003624Y015187D02*
X003466Y015187D01*
D11*
X002994Y007839D02*
X002996Y007847D01*
X003001Y007854D01*
X003008Y007858D01*
X003016Y007859D01*
X003024Y007856D01*
X003030Y007851D01*
X003034Y007843D01*
X003034Y007835D01*
X003030Y007827D01*
X003024Y007822D01*
X003016Y007819D01*
X003008Y007820D01*
X003001Y007824D01*
X002996Y007831D01*
X002994Y007839D01*
X001112Y006443D02*
X001114Y006451D01*
X001119Y006458D01*
X001126Y006462D01*
X001134Y006463D01*
X001142Y006460D01*
X001148Y006455D01*
X001152Y006447D01*
X001152Y006439D01*
X001148Y006431D01*
X001142Y006426D01*
X001134Y006423D01*
X001126Y006424D01*
X001119Y006428D01*
X001114Y006435D01*
X001112Y006443D01*
X004312Y005043D02*
X004314Y005051D01*
X004319Y005058D01*
X004326Y005062D01*
X004334Y005063D01*
X004342Y005060D01*
X004348Y005055D01*
X004352Y005047D01*
X004352Y005039D01*
X004348Y005031D01*
X004342Y005026D01*
X004334Y005023D01*
X004326Y005024D01*
X004319Y005028D01*
X004314Y005035D01*
X004312Y005043D01*
X007062Y005043D02*
X007064Y005051D01*
X007069Y005058D01*
X007076Y005062D01*
X007084Y005063D01*
X007092Y005060D01*
X007098Y005055D01*
X007102Y005047D01*
X007102Y005039D01*
X007098Y005031D01*
X007092Y005026D01*
X007084Y005023D01*
X007076Y005024D01*
X007069Y005028D01*
X007064Y005035D01*
X007062Y005043D01*
X009812Y005043D02*
X009814Y005051D01*
X009819Y005058D01*
X009826Y005062D01*
X009834Y005063D01*
X009842Y005060D01*
X009848Y005055D01*
X009852Y005047D01*
X009852Y005039D01*
X009848Y005031D01*
X009842Y005026D01*
X009834Y005023D01*
X009826Y005024D01*
X009819Y005028D01*
X009814Y005035D01*
X009812Y005043D01*
X009234Y007614D02*
X009236Y007622D01*
X009241Y007629D01*
X009248Y007633D01*
X009256Y007634D01*
X009264Y007631D01*
X009270Y007626D01*
X009274Y007618D01*
X009274Y007610D01*
X009270Y007602D01*
X009264Y007597D01*
X009256Y007594D01*
X009248Y007595D01*
X009241Y007599D01*
X009236Y007606D01*
X009234Y007614D01*
X007584Y007614D02*
X007586Y007622D01*
X007591Y007629D01*
X007598Y007633D01*
X007606Y007634D01*
X007614Y007631D01*
X007620Y007626D01*
X007624Y007618D01*
X007624Y007610D01*
X007620Y007602D01*
X007614Y007597D01*
X007606Y007594D01*
X007598Y007595D01*
X007591Y007599D01*
X007586Y007606D01*
X007584Y007614D01*
X005934Y007614D02*
X005936Y007622D01*
X005941Y007629D01*
X005948Y007633D01*
X005956Y007634D01*
X005964Y007631D01*
X005970Y007626D01*
X005974Y007618D01*
X005974Y007610D01*
X005970Y007602D01*
X005964Y007597D01*
X005956Y007594D01*
X005948Y007595D01*
X005941Y007599D01*
X005936Y007606D01*
X005934Y007614D01*
X012584Y011061D02*
X012586Y011069D01*
X012591Y011076D01*
X012598Y011080D01*
X012606Y011081D01*
X012614Y011078D01*
X012620Y011073D01*
X012624Y011065D01*
X012624Y011057D01*
X012620Y011049D01*
X012614Y011044D01*
X012606Y011041D01*
X012598Y011042D01*
X012591Y011046D01*
X012586Y011053D01*
X012584Y011061D01*
X017182Y007587D02*
X017184Y007595D01*
X017189Y007602D01*
X017196Y007606D01*
X017204Y007607D01*
X017212Y007604D01*
X017218Y007599D01*
X017222Y007591D01*
X017222Y007583D01*
X017218Y007575D01*
X017212Y007570D01*
X017204Y007567D01*
X017196Y007568D01*
X017189Y007572D01*
X017184Y007579D01*
X017182Y007587D01*
X013289Y002626D02*
X013291Y002634D01*
X013296Y002641D01*
X013303Y002645D01*
X013311Y002646D01*
X013319Y002643D01*
X013325Y002638D01*
X013329Y002630D01*
X013329Y002622D01*
X013325Y002614D01*
X013319Y002609D01*
X013311Y002606D01*
X013303Y002607D01*
X013296Y002611D01*
X013291Y002618D01*
X013289Y002626D01*
D12*
X001477Y002571D02*
X001477Y002781D01*
X001582Y002781D01*
X001617Y002746D01*
X001617Y002676D01*
X001582Y002641D01*
X001477Y002641D01*
X001547Y002641D02*
X001617Y002571D01*
X001698Y002571D02*
X001838Y002571D01*
X001768Y002571D02*
X001768Y002781D01*
X001698Y002711D01*
X001919Y002711D02*
X001989Y002781D01*
X001989Y002571D01*
X001919Y002571D02*
X002059Y002571D01*
X001225Y002769D02*
X001085Y002769D01*
X001225Y002910D01*
X001225Y002945D01*
X001190Y002980D01*
X001120Y002980D01*
X001085Y002945D01*
X000934Y002980D02*
X000934Y002769D01*
X000864Y002769D02*
X001004Y002769D01*
X000864Y002910D02*
X000934Y002980D01*
X000783Y002945D02*
X000783Y002874D01*
X000748Y002839D01*
X000643Y002839D01*
X000643Y002769D02*
X000643Y002980D01*
X000748Y002980D01*
X000783Y002945D01*
X000713Y002839D02*
X000783Y002769D01*
X002527Y003321D02*
X002527Y003531D01*
X002632Y003531D01*
X002667Y003496D01*
X002667Y003426D01*
X002632Y003391D01*
X002527Y003391D01*
X002597Y003391D02*
X002667Y003321D01*
X002748Y003321D02*
X002888Y003321D01*
X002818Y003321D02*
X002818Y003531D01*
X002748Y003461D01*
X002969Y003496D02*
X002969Y003356D01*
X003109Y003496D01*
X003109Y003356D01*
X003074Y003321D01*
X003004Y003321D01*
X002969Y003356D01*
X002969Y003496D02*
X003004Y003531D01*
X003074Y003531D01*
X003109Y003496D01*
X003312Y004421D02*
X003382Y004421D01*
X003417Y004456D01*
X003498Y004456D02*
X003533Y004421D01*
X003603Y004421D01*
X003638Y004456D01*
X003638Y004491D01*
X003603Y004526D01*
X003568Y004526D01*
X003603Y004526D02*
X003638Y004561D01*
X003638Y004596D01*
X003603Y004631D01*
X003533Y004631D01*
X003498Y004596D01*
X003417Y004596D02*
X003382Y004631D01*
X003312Y004631D01*
X003277Y004596D01*
X003277Y004456D01*
X003312Y004421D01*
X003719Y004421D02*
X003859Y004421D01*
X003789Y004421D02*
X003789Y004631D01*
X003719Y004561D01*
X004465Y005054D02*
X004465Y005229D01*
X004605Y005229D02*
X004605Y005054D01*
X004570Y005019D01*
X004500Y005019D01*
X004465Y005054D01*
X004686Y005054D02*
X004721Y005019D01*
X004791Y005019D01*
X004826Y005054D01*
X004826Y005089D01*
X004791Y005124D01*
X004756Y005124D01*
X004791Y005124D02*
X004826Y005159D01*
X004826Y005194D01*
X004791Y005229D01*
X004721Y005229D01*
X004686Y005194D01*
X005187Y006171D02*
X005257Y006171D01*
X005292Y006206D01*
X005373Y006171D02*
X005513Y006311D01*
X005513Y006346D01*
X005478Y006381D01*
X005408Y006381D01*
X005373Y006346D01*
X005292Y006346D02*
X005257Y006381D01*
X005187Y006381D01*
X005152Y006346D01*
X005152Y006206D01*
X005187Y006171D01*
X005373Y006171D02*
X005513Y006171D01*
X005594Y006171D02*
X005734Y006311D01*
X005734Y006346D01*
X005699Y006381D01*
X005629Y006381D01*
X005594Y006346D01*
X005594Y006171D02*
X005734Y006171D01*
X005952Y006171D02*
X005952Y006381D01*
X006057Y006381D01*
X006092Y006346D01*
X006092Y006276D01*
X006057Y006241D01*
X005952Y006241D01*
X006022Y006241D02*
X006092Y006171D01*
X006173Y006206D02*
X006173Y006241D01*
X006208Y006276D01*
X006278Y006276D01*
X006313Y006241D01*
X006313Y006206D01*
X006278Y006171D01*
X006208Y006171D01*
X006173Y006206D01*
X006208Y006276D02*
X006173Y006311D01*
X006173Y006346D01*
X006208Y006381D01*
X006278Y006381D01*
X006313Y006346D01*
X006313Y006311D01*
X006278Y006276D01*
X006927Y006831D02*
X006962Y006796D01*
X007032Y006796D01*
X007067Y006831D01*
X007148Y006796D02*
X007288Y006796D01*
X007218Y006796D02*
X007218Y007006D01*
X007148Y006936D01*
X007067Y006971D02*
X007032Y007006D01*
X006962Y007006D01*
X006927Y006971D01*
X006927Y006831D01*
X007369Y006831D02*
X007369Y006796D01*
X007369Y006831D02*
X007509Y006971D01*
X007509Y007006D01*
X007369Y007006D01*
X007937Y006381D02*
X007902Y006346D01*
X007902Y006206D01*
X007937Y006171D01*
X008007Y006171D01*
X008042Y006206D01*
X008123Y006171D02*
X008263Y006311D01*
X008263Y006346D01*
X008228Y006381D01*
X008158Y006381D01*
X008123Y006346D01*
X008042Y006346D02*
X008007Y006381D01*
X007937Y006381D01*
X008123Y006171D02*
X008263Y006171D01*
X008344Y006206D02*
X008379Y006171D01*
X008449Y006171D01*
X008484Y006206D01*
X008484Y006241D01*
X008449Y006276D01*
X008414Y006276D01*
X008449Y006276D02*
X008484Y006311D01*
X008484Y006346D01*
X008449Y006381D01*
X008379Y006381D01*
X008344Y006346D01*
X008702Y006381D02*
X008702Y006171D01*
X008702Y006241D02*
X008807Y006241D01*
X008842Y006276D01*
X008842Y006346D01*
X008807Y006381D01*
X008702Y006381D01*
X008772Y006241D02*
X008842Y006171D01*
X008923Y006171D02*
X008923Y006206D01*
X009063Y006346D01*
X009063Y006381D01*
X008923Y006381D01*
X008943Y006771D02*
X008943Y006981D01*
X008873Y006911D01*
X008792Y006946D02*
X008757Y006981D01*
X008687Y006981D01*
X008652Y006946D01*
X008652Y006806D01*
X008687Y006771D01*
X008757Y006771D01*
X008792Y006806D01*
X008873Y006771D02*
X009013Y006771D01*
X009094Y006806D02*
X009129Y006771D01*
X009199Y006771D01*
X009234Y006806D01*
X009234Y006946D01*
X009199Y006981D01*
X009129Y006981D01*
X009094Y006946D01*
X009094Y006911D01*
X009129Y006876D01*
X009234Y006876D01*
X010318Y006829D02*
X010353Y006794D01*
X010423Y006794D01*
X010458Y006829D01*
X010539Y006794D02*
X010679Y006935D01*
X010679Y006970D01*
X010644Y007005D01*
X010574Y007005D01*
X010539Y006970D01*
X010458Y006970D02*
X010423Y007005D01*
X010353Y007005D01*
X010318Y006970D01*
X010318Y006829D01*
X010539Y006794D02*
X010679Y006794D01*
X010760Y006794D02*
X010900Y006794D01*
X010830Y006794D02*
X010830Y007005D01*
X010760Y006935D01*
X011452Y006681D02*
X011452Y006471D01*
X011452Y006541D02*
X011557Y006541D01*
X011592Y006576D01*
X011592Y006646D01*
X011557Y006681D01*
X011452Y006681D01*
X011522Y006541D02*
X011592Y006471D01*
X011673Y006506D02*
X011708Y006471D01*
X011778Y006471D01*
X011813Y006506D01*
X011813Y006646D01*
X011778Y006681D01*
X011708Y006681D01*
X011673Y006646D01*
X011673Y006611D01*
X011708Y006576D01*
X011813Y006576D01*
X011215Y006380D02*
X011215Y006169D01*
X011250Y006274D02*
X011110Y006274D01*
X011215Y006380D01*
X011029Y006345D02*
X010994Y006380D01*
X010924Y006380D01*
X010889Y006345D01*
X010808Y006345D02*
X010773Y006380D01*
X010703Y006380D01*
X010668Y006345D01*
X010668Y006204D01*
X010703Y006169D01*
X010773Y006169D01*
X010808Y006204D01*
X010889Y006169D02*
X011029Y006310D01*
X011029Y006345D01*
X011029Y006169D02*
X010889Y006169D01*
X010326Y005229D02*
X010186Y005229D01*
X010186Y005124D01*
X010256Y005159D01*
X010291Y005159D01*
X010326Y005124D01*
X010326Y005054D01*
X010291Y005019D01*
X010221Y005019D01*
X010186Y005054D01*
X010105Y005054D02*
X010105Y005229D01*
X009965Y005229D02*
X009965Y005054D01*
X010000Y005019D01*
X010070Y005019D01*
X010105Y005054D01*
X007576Y005124D02*
X007436Y005124D01*
X007541Y005229D01*
X007541Y005019D01*
X007355Y005054D02*
X007355Y005229D01*
X007215Y005229D02*
X007215Y005054D01*
X007250Y005019D01*
X007320Y005019D01*
X007355Y005054D01*
X008677Y002131D02*
X008782Y002131D01*
X008817Y002096D01*
X008817Y002026D01*
X008782Y001991D01*
X008677Y001991D01*
X008747Y001991D02*
X008817Y001921D01*
X008898Y001956D02*
X008933Y001921D01*
X009003Y001921D01*
X009038Y001956D01*
X009038Y002026D01*
X009003Y002061D01*
X008968Y002061D01*
X008898Y002026D01*
X008898Y002131D01*
X009038Y002131D01*
X008677Y002131D02*
X008677Y001921D01*
X008641Y001599D02*
X008746Y001599D01*
X008781Y001564D01*
X008781Y001424D01*
X008746Y001389D01*
X008641Y001389D01*
X008641Y001599D01*
X008862Y001564D02*
X008897Y001599D01*
X008967Y001599D01*
X009002Y001564D01*
X009002Y001529D01*
X008862Y001389D01*
X009002Y001389D01*
X009277Y001341D02*
X009382Y001341D01*
X009417Y001376D01*
X009417Y001446D01*
X009382Y001481D01*
X009277Y001481D01*
X009277Y001271D01*
X009347Y001341D02*
X009417Y001271D01*
X009498Y001271D02*
X009638Y001271D01*
X009568Y001271D02*
X009568Y001481D01*
X009498Y001411D01*
X009719Y001446D02*
X009754Y001481D01*
X009824Y001481D01*
X009859Y001446D01*
X009859Y001411D01*
X009824Y001376D01*
X009859Y001341D01*
X009859Y001306D01*
X009824Y001271D01*
X009754Y001271D01*
X009719Y001306D01*
X009789Y001376D02*
X009824Y001376D01*
X011427Y001921D02*
X011427Y002131D01*
X011532Y002131D01*
X011567Y002096D01*
X011567Y002026D01*
X011532Y001991D01*
X011427Y001991D01*
X011497Y001991D02*
X011567Y001921D01*
X011648Y001956D02*
X011683Y001921D01*
X011753Y001921D01*
X011788Y001956D01*
X011788Y001991D01*
X011753Y002026D01*
X011648Y002026D01*
X011648Y001956D01*
X011648Y002026D02*
X011718Y002096D01*
X011788Y002131D01*
X013442Y002637D02*
X013477Y002601D01*
X013547Y002601D01*
X013582Y002637D01*
X013582Y002812D01*
X013663Y002777D02*
X013698Y002812D01*
X013768Y002812D01*
X013803Y002777D01*
X013803Y002742D01*
X013663Y002601D01*
X013803Y002601D01*
X013442Y002637D02*
X013442Y002812D01*
X015177Y004106D02*
X015177Y004246D01*
X015212Y004281D01*
X015282Y004281D01*
X015317Y004246D01*
X015398Y004246D02*
X015398Y004211D01*
X015433Y004176D01*
X015503Y004176D01*
X015538Y004141D01*
X015538Y004106D01*
X015503Y004071D01*
X015433Y004071D01*
X015398Y004106D01*
X015398Y004141D01*
X015433Y004176D01*
X015503Y004176D02*
X015538Y004211D01*
X015538Y004246D01*
X015503Y004281D01*
X015433Y004281D01*
X015398Y004246D01*
X015317Y004106D02*
X015282Y004071D01*
X015212Y004071D01*
X015177Y004106D01*
X017277Y003946D02*
X017277Y003806D01*
X017312Y003771D01*
X017382Y003771D01*
X017417Y003806D01*
X017498Y003806D02*
X017533Y003771D01*
X017603Y003771D01*
X017638Y003806D01*
X017638Y003946D01*
X017603Y003981D01*
X017533Y003981D01*
X017498Y003946D01*
X017498Y003911D01*
X017533Y003876D01*
X017638Y003876D01*
X017417Y003946D02*
X017382Y003981D01*
X017312Y003981D01*
X017277Y003946D01*
X017777Y004106D02*
X017812Y004071D01*
X017882Y004071D01*
X017917Y004106D01*
X017998Y004106D02*
X018033Y004071D01*
X018103Y004071D01*
X018138Y004106D01*
X018138Y004141D01*
X018103Y004176D01*
X018068Y004176D01*
X018103Y004176D02*
X018138Y004211D01*
X018138Y004246D01*
X018103Y004281D01*
X018033Y004281D01*
X017998Y004246D01*
X017917Y004246D02*
X017882Y004281D01*
X017812Y004281D01*
X017777Y004246D01*
X017777Y004106D01*
X017558Y004762D02*
X017417Y004762D01*
X017487Y004762D02*
X017487Y004973D01*
X017417Y004902D01*
X017337Y004973D02*
X017337Y004797D01*
X017302Y004762D01*
X017231Y004762D01*
X017196Y004797D01*
X017196Y004973D01*
X017370Y005915D02*
X017511Y005915D01*
X017546Y005950D01*
X017546Y006020D01*
X017511Y006055D01*
X017546Y006136D02*
X017546Y006276D01*
X017546Y006206D02*
X017335Y006206D01*
X017405Y006136D01*
X017370Y006055D02*
X017335Y006020D01*
X017335Y005950D01*
X017370Y005915D01*
X017405Y006357D02*
X017335Y006427D01*
X017546Y006427D01*
X017546Y006357D02*
X017546Y006497D01*
X018362Y007596D02*
X018327Y007631D01*
X018327Y007771D01*
X018362Y007806D01*
X018432Y007806D01*
X018467Y007771D01*
X018548Y007736D02*
X018618Y007806D01*
X018618Y007596D01*
X018548Y007596D02*
X018688Y007596D01*
X018769Y007631D02*
X018909Y007771D01*
X018909Y007631D01*
X018874Y007596D01*
X018804Y007596D01*
X018769Y007631D01*
X018769Y007771D01*
X018804Y007806D01*
X018874Y007806D01*
X018909Y007771D01*
X019027Y007906D02*
X019062Y007871D01*
X019132Y007871D01*
X019167Y007906D01*
X019248Y007976D02*
X019388Y007976D01*
X019353Y007871D02*
X019353Y008081D01*
X019248Y007976D01*
X019167Y008046D02*
X019132Y008081D01*
X019062Y008081D01*
X019027Y008046D01*
X019027Y007906D01*
X019062Y007631D02*
X019027Y007596D01*
X019027Y007456D01*
X019062Y007421D01*
X019132Y007421D01*
X019167Y007456D01*
X019248Y007421D02*
X019388Y007561D01*
X019388Y007596D01*
X019353Y007631D01*
X019283Y007631D01*
X019248Y007596D01*
X019167Y007596D02*
X019132Y007631D01*
X019062Y007631D01*
X019248Y007421D02*
X019388Y007421D01*
X018467Y007631D02*
X018432Y007596D01*
X018362Y007596D01*
X017671Y008020D02*
X017531Y008020D01*
X017601Y008020D02*
X017601Y008230D01*
X017531Y008160D01*
X017450Y008020D02*
X017310Y008020D01*
X017310Y008230D01*
X017307Y008396D02*
X017342Y008431D01*
X017307Y008396D02*
X017237Y008396D01*
X017202Y008431D01*
X017202Y008571D01*
X017237Y008606D01*
X017307Y008606D01*
X017342Y008571D01*
X017423Y008536D02*
X017493Y008606D01*
X017493Y008396D01*
X017423Y008396D02*
X017563Y008396D01*
X017644Y008396D02*
X017784Y008536D01*
X017784Y008571D01*
X017749Y008606D01*
X017679Y008606D01*
X017644Y008571D01*
X017648Y008646D02*
X017788Y008646D01*
X017718Y008646D02*
X017718Y008856D01*
X017648Y008786D01*
X017567Y008821D02*
X017567Y008751D01*
X017532Y008716D01*
X017427Y008716D01*
X017497Y008716D02*
X017567Y008646D01*
X017427Y008646D02*
X017427Y008856D01*
X017532Y008856D01*
X017567Y008821D01*
X017404Y008947D02*
X017404Y009017D01*
X017369Y009052D01*
X017404Y009133D02*
X017404Y009273D01*
X017404Y009203D02*
X017194Y009203D01*
X017264Y009133D01*
X017229Y009052D02*
X017194Y009017D01*
X017194Y008947D01*
X017229Y008912D01*
X017369Y008912D01*
X017404Y008947D01*
X017612Y009221D02*
X017682Y009221D01*
X017717Y009256D01*
X017798Y009221D02*
X017938Y009221D01*
X017868Y009221D02*
X017868Y009431D01*
X017798Y009361D01*
X017717Y009396D02*
X017682Y009431D01*
X017612Y009431D01*
X017577Y009396D01*
X017577Y009256D01*
X017612Y009221D01*
X017404Y009389D02*
X017369Y009354D01*
X017404Y009389D02*
X017404Y009459D01*
X017369Y009494D01*
X017334Y009494D01*
X017299Y009459D01*
X017299Y009424D01*
X017299Y009459D02*
X017264Y009494D01*
X017229Y009494D01*
X017194Y009459D01*
X017194Y009389D01*
X017229Y009354D01*
X017644Y008396D02*
X017784Y008396D01*
X018375Y010348D02*
X018375Y010488D01*
X018445Y010558D01*
X018515Y010488D01*
X018515Y010348D01*
X018596Y010348D02*
X018736Y010348D01*
X018666Y010348D02*
X018666Y010558D01*
X018596Y010488D01*
X018515Y010453D02*
X018375Y010453D01*
X015908Y010523D02*
X015768Y010382D01*
X015908Y010382D01*
X015908Y010523D02*
X015908Y010558D01*
X015873Y010593D01*
X015803Y010593D01*
X015768Y010558D01*
X015687Y010593D02*
X015547Y010593D01*
X015547Y010382D01*
X015547Y010487D02*
X015617Y010487D01*
X014694Y009455D02*
X014729Y009420D01*
X014729Y009385D01*
X014694Y009349D01*
X014729Y009314D01*
X014729Y009279D01*
X014694Y009244D01*
X014624Y009244D01*
X014589Y009279D01*
X014508Y009244D02*
X014438Y009314D01*
X014473Y009314D02*
X014368Y009314D01*
X014368Y009244D02*
X014368Y009455D01*
X014473Y009455D01*
X014508Y009420D01*
X014508Y009349D01*
X014473Y009314D01*
X014589Y009420D02*
X014624Y009455D01*
X014694Y009455D01*
X014694Y009349D02*
X014659Y009349D01*
X015027Y009146D02*
X015027Y009006D01*
X015062Y008971D01*
X015132Y008971D01*
X015167Y009006D01*
X015248Y009006D02*
X015283Y008971D01*
X015353Y008971D01*
X015388Y009006D01*
X015388Y009041D01*
X015353Y009076D01*
X015248Y009076D01*
X015248Y009006D01*
X015248Y009076D02*
X015318Y009146D01*
X015388Y009181D01*
X015167Y009146D02*
X015132Y009181D01*
X015062Y009181D01*
X015027Y009146D01*
X014938Y008081D02*
X014798Y008081D01*
X014798Y007976D01*
X014868Y008011D01*
X014903Y008011D01*
X014938Y007976D01*
X014938Y007906D01*
X014903Y007871D01*
X014833Y007871D01*
X014798Y007906D01*
X014717Y007906D02*
X014682Y007871D01*
X014612Y007871D01*
X014577Y007906D01*
X014577Y008046D01*
X014612Y008081D01*
X014682Y008081D01*
X014717Y008046D01*
X013654Y008794D02*
X013514Y008794D01*
X013654Y008935D01*
X013654Y008970D01*
X013619Y009005D01*
X013549Y009005D01*
X013514Y008970D01*
X013433Y008970D02*
X013433Y008899D01*
X013398Y008864D01*
X013293Y008864D01*
X013293Y008794D02*
X013293Y009005D01*
X013398Y009005D01*
X013433Y008970D01*
X013363Y008864D02*
X013433Y008794D01*
X013437Y010571D02*
X013507Y010571D01*
X013542Y010606D01*
X013623Y010571D02*
X013763Y010711D01*
X013763Y010746D01*
X013728Y010781D01*
X013658Y010781D01*
X013623Y010746D01*
X013542Y010746D02*
X013507Y010781D01*
X013437Y010781D01*
X013402Y010746D01*
X013402Y010606D01*
X013437Y010571D01*
X013623Y010571D02*
X013763Y010571D01*
X013844Y010606D02*
X013844Y010641D01*
X013879Y010676D01*
X013949Y010676D01*
X013984Y010641D01*
X013984Y010606D01*
X013949Y010571D01*
X013879Y010571D01*
X013844Y010606D01*
X013879Y010676D02*
X013844Y010711D01*
X013844Y010746D01*
X013879Y010781D01*
X013949Y010781D01*
X013984Y010746D01*
X013984Y010711D01*
X013949Y010676D01*
X015491Y012099D02*
X015596Y012099D01*
X015631Y012134D01*
X015631Y012274D01*
X015596Y012310D01*
X015491Y012310D01*
X015491Y012099D01*
X015712Y012099D02*
X015852Y012099D01*
X015782Y012099D02*
X015782Y012310D01*
X015712Y012239D01*
X016295Y013595D02*
X016330Y013595D01*
X016365Y013630D01*
X016365Y013805D01*
X016330Y013805D02*
X016400Y013805D01*
X016481Y013770D02*
X016516Y013805D01*
X016586Y013805D01*
X016621Y013770D01*
X016621Y013735D01*
X016481Y013595D01*
X016621Y013595D01*
X016295Y013595D02*
X016260Y013630D01*
X013866Y012571D02*
X013726Y012431D01*
X013761Y012396D01*
X013831Y012396D01*
X013866Y012431D01*
X013866Y012571D01*
X013831Y012606D01*
X013761Y012606D01*
X013726Y012571D01*
X013726Y012431D01*
X013645Y012396D02*
X013505Y012396D01*
X013575Y012396D02*
X013575Y012606D01*
X013505Y012536D01*
X013424Y012606D02*
X013424Y012431D01*
X013389Y012396D01*
X013319Y012396D01*
X013284Y012431D01*
X013284Y012606D01*
X012549Y013126D02*
X012514Y013091D01*
X012444Y013091D01*
X012409Y013126D01*
X012328Y013091D02*
X012188Y013091D01*
X012188Y013301D01*
X012409Y013266D02*
X012444Y013301D01*
X012514Y013301D01*
X012549Y013266D01*
X012549Y013231D01*
X012514Y013196D01*
X012549Y013161D01*
X012549Y013126D01*
X012514Y013196D02*
X012479Y013196D01*
X011732Y011335D02*
X011662Y011335D01*
X011627Y011299D01*
X011627Y011264D01*
X011662Y011229D01*
X011767Y011229D01*
X011767Y011159D02*
X011767Y011299D01*
X011732Y011335D01*
X011767Y011159D02*
X011732Y011124D01*
X011662Y011124D01*
X011627Y011159D01*
X011546Y011124D02*
X011406Y011124D01*
X011546Y011264D01*
X011546Y011299D01*
X011511Y011335D01*
X011441Y011335D01*
X011406Y011299D01*
X011325Y011299D02*
X011290Y011335D01*
X011220Y011335D01*
X011185Y011299D01*
X011185Y011159D01*
X011220Y011124D01*
X011290Y011124D01*
X011325Y011159D01*
X010059Y010296D02*
X009919Y010156D01*
X009954Y010121D01*
X010024Y010121D01*
X010059Y010156D01*
X010059Y010296D01*
X010024Y010331D01*
X009954Y010331D01*
X009919Y010296D01*
X009919Y010156D01*
X009838Y010121D02*
X009698Y010121D01*
X009838Y010261D01*
X009838Y010296D01*
X009803Y010331D01*
X009733Y010331D01*
X009698Y010296D01*
X009617Y010296D02*
X009582Y010331D01*
X009512Y010331D01*
X009477Y010296D01*
X009477Y010156D01*
X009512Y010121D01*
X009582Y010121D01*
X009617Y010156D01*
X009668Y009556D02*
X009738Y009556D01*
X009773Y009521D01*
X009773Y009486D01*
X009738Y009451D01*
X009668Y009451D01*
X009633Y009486D01*
X009633Y009521D01*
X009668Y009556D01*
X009668Y009451D02*
X009633Y009416D01*
X009633Y009381D01*
X009668Y009346D01*
X009738Y009346D01*
X009773Y009381D01*
X009773Y009416D01*
X009738Y009451D01*
X009552Y009381D02*
X009552Y009556D01*
X009412Y009556D02*
X009412Y009381D01*
X009447Y009346D01*
X009517Y009346D01*
X009552Y009381D01*
X008409Y010156D02*
X008374Y010121D01*
X008304Y010121D01*
X008269Y010156D01*
X008269Y010191D01*
X008304Y010226D01*
X008374Y010226D01*
X008409Y010191D01*
X008409Y010156D01*
X008374Y010226D02*
X008409Y010261D01*
X008409Y010296D01*
X008374Y010331D01*
X008304Y010331D01*
X008269Y010296D01*
X008269Y010261D01*
X008304Y010226D01*
X008188Y010121D02*
X008048Y010121D01*
X008118Y010121D02*
X008118Y010331D01*
X008048Y010261D01*
X007967Y010296D02*
X007932Y010331D01*
X007862Y010331D01*
X007827Y010296D01*
X007827Y010156D01*
X007862Y010121D01*
X007932Y010121D01*
X007967Y010156D01*
X007983Y009556D02*
X008123Y009556D01*
X008123Y009521D01*
X007983Y009381D01*
X007983Y009346D01*
X007902Y009381D02*
X007902Y009556D01*
X007762Y009556D02*
X007762Y009381D01*
X007797Y009346D01*
X007867Y009346D01*
X007902Y009381D01*
X006767Y010147D02*
X006767Y010182D01*
X006731Y010217D01*
X006626Y010217D01*
X006626Y010147D01*
X006661Y010112D01*
X006731Y010112D01*
X006767Y010147D01*
X006696Y010287D02*
X006626Y010217D01*
X006696Y010287D02*
X006767Y010322D01*
X006475Y010322D02*
X006475Y010112D01*
X006405Y010112D02*
X006546Y010112D01*
X006405Y010252D02*
X006475Y010322D01*
X006325Y010287D02*
X006289Y010322D01*
X006219Y010322D01*
X006184Y010287D01*
X006184Y010147D01*
X006219Y010112D01*
X006289Y010112D01*
X006325Y010147D01*
X006252Y009556D02*
X006252Y009381D01*
X006217Y009346D01*
X006147Y009346D01*
X006112Y009381D01*
X006112Y009556D01*
X006333Y009451D02*
X006333Y009381D01*
X006368Y009346D01*
X006438Y009346D01*
X006473Y009381D01*
X006473Y009416D01*
X006438Y009451D01*
X006333Y009451D01*
X006403Y009521D01*
X006473Y009556D01*
X004821Y010608D02*
X004681Y010608D01*
X004751Y010608D02*
X004751Y010818D01*
X004681Y010748D01*
X004600Y010818D02*
X004530Y010818D01*
X004565Y010818D02*
X004565Y010643D01*
X004530Y010608D01*
X004495Y010608D01*
X004460Y010643D01*
X003308Y012257D02*
X003168Y012257D01*
X003238Y012257D02*
X003238Y012468D01*
X003168Y012398D01*
X003087Y012468D02*
X002947Y012468D01*
X002947Y012257D01*
X002947Y012362D02*
X003017Y012362D01*
X003330Y012779D02*
X003330Y012990D01*
X003435Y012990D01*
X003470Y012955D01*
X003470Y012884D01*
X003435Y012849D01*
X003330Y012849D01*
X003400Y012849D02*
X003470Y012779D01*
X003551Y012779D02*
X003691Y012779D01*
X003621Y012779D02*
X003621Y012990D01*
X003551Y012920D01*
X003772Y012884D02*
X003912Y012884D01*
X003877Y012779D02*
X003877Y012990D01*
X003772Y012884D01*
X003807Y013629D02*
X003772Y013664D01*
X003807Y013629D02*
X003877Y013629D01*
X003912Y013664D01*
X003912Y013734D01*
X003877Y013770D01*
X003842Y013770D01*
X003772Y013734D01*
X003772Y013840D01*
X003912Y013840D01*
X003691Y013629D02*
X003551Y013629D01*
X003621Y013629D02*
X003621Y013840D01*
X003551Y013770D01*
X003470Y013805D02*
X003470Y013734D01*
X003435Y013699D01*
X003330Y013699D01*
X003330Y013629D02*
X003330Y013840D01*
X003435Y013840D01*
X003470Y013805D01*
X003400Y013699D02*
X003470Y013629D01*
X003470Y014529D02*
X003400Y014599D01*
X003435Y014599D02*
X003330Y014599D01*
X003330Y014529D02*
X003330Y014740D01*
X003435Y014740D01*
X003470Y014705D01*
X003470Y014634D01*
X003435Y014599D01*
X003551Y014529D02*
X003691Y014529D01*
X003621Y014529D02*
X003621Y014740D01*
X003551Y014670D01*
X003772Y014634D02*
X003877Y014634D01*
X003912Y014599D01*
X003912Y014564D01*
X003877Y014529D01*
X003807Y014529D01*
X003772Y014564D01*
X003772Y014634D01*
X003842Y014705D01*
X003912Y014740D01*
X001494Y009732D02*
X001494Y009522D01*
X001424Y009522D02*
X001564Y009522D01*
X001424Y009662D02*
X001494Y009732D01*
X001343Y009697D02*
X001308Y009732D01*
X001238Y009732D01*
X001203Y009697D01*
X001203Y009662D01*
X001238Y009627D01*
X001308Y009627D01*
X001343Y009592D01*
X001343Y009557D01*
X001308Y009522D01*
X001238Y009522D01*
X001203Y009557D01*
X001859Y009206D02*
X001859Y009031D01*
X001894Y008996D01*
X001964Y008996D01*
X001999Y009031D01*
X001999Y009206D01*
X002080Y009171D02*
X002080Y009136D01*
X002115Y009101D01*
X002220Y009101D01*
X002220Y009031D02*
X002220Y009171D01*
X002185Y009206D01*
X002115Y009206D01*
X002080Y009171D01*
X002080Y009031D02*
X002115Y008996D01*
X002185Y008996D01*
X002220Y009031D01*
X001449Y008691D02*
X001414Y008726D01*
X001344Y008726D01*
X001309Y008691D01*
X001449Y008691D02*
X001449Y008656D01*
X001309Y008516D01*
X001449Y008516D01*
X001228Y008516D02*
X001088Y008516D01*
X001088Y008726D01*
X003177Y008706D02*
X003212Y008671D01*
X003282Y008671D01*
X003317Y008706D01*
X003398Y008671D02*
X003538Y008811D01*
X003538Y008846D01*
X003503Y008881D01*
X003433Y008881D01*
X003398Y008846D01*
X003317Y008846D02*
X003282Y008881D01*
X003212Y008881D01*
X003177Y008846D01*
X003177Y008706D01*
X003398Y008671D02*
X003538Y008671D01*
X003619Y008706D02*
X003654Y008671D01*
X003724Y008671D01*
X003759Y008706D01*
X003759Y008741D01*
X003724Y008776D01*
X003619Y008776D01*
X003619Y008706D01*
X003619Y008776D02*
X003689Y008846D01*
X003759Y008881D01*
X003630Y007310D02*
X003490Y007310D01*
X003409Y007274D02*
X003374Y007310D01*
X003304Y007310D01*
X003269Y007274D01*
X003188Y007274D02*
X003153Y007310D01*
X003083Y007310D01*
X003048Y007274D01*
X003048Y007134D01*
X003083Y007099D01*
X003153Y007099D01*
X003188Y007134D01*
X003269Y007099D02*
X003409Y007239D01*
X003409Y007274D01*
X003490Y007134D02*
X003490Y007099D01*
X003490Y007134D02*
X003630Y007274D01*
X003630Y007310D01*
X003409Y007099D02*
X003269Y007099D01*
X001847Y006419D02*
X001707Y006419D01*
X001777Y006419D02*
X001777Y006629D01*
X001707Y006559D01*
X001626Y006419D02*
X001486Y006419D01*
X001556Y006419D02*
X001556Y006629D01*
X001486Y006559D01*
X001405Y006629D02*
X001405Y006454D01*
X001370Y006419D01*
X001300Y006419D01*
X001265Y006454D01*
X001265Y006629D01*
X001007Y005455D02*
X001042Y005420D01*
X000902Y005280D01*
X000937Y005245D01*
X001007Y005245D01*
X001042Y005280D01*
X001042Y005420D01*
X001007Y005455D02*
X000937Y005455D01*
X000902Y005420D01*
X000902Y005280D01*
X000821Y005280D02*
X000786Y005245D01*
X000716Y005245D01*
X000681Y005280D01*
X000600Y005280D02*
X000565Y005245D01*
X000495Y005245D01*
X000460Y005280D01*
X000460Y005420D01*
X000495Y005455D01*
X000565Y005455D01*
X000600Y005420D01*
X000681Y005420D02*
X000716Y005455D01*
X000786Y005455D01*
X000821Y005420D01*
X000821Y005385D01*
X000786Y005350D01*
X000821Y005315D01*
X000821Y005280D01*
X000786Y005350D02*
X000751Y005350D01*
X003312Y001681D02*
X003277Y001646D01*
X003277Y001506D01*
X003312Y001471D01*
X003382Y001471D01*
X003417Y001506D01*
X003498Y001471D02*
X003638Y001471D01*
X003568Y001471D02*
X003568Y001681D01*
X003498Y001611D01*
X003417Y001646D02*
X003382Y001681D01*
X003312Y001681D01*
X003719Y001576D02*
X003859Y001576D01*
X003824Y001681D02*
X003719Y001576D01*
X003824Y001471D02*
X003824Y001681D01*
X005015Y001566D02*
X005015Y001531D01*
X005085Y001461D01*
X005085Y001356D01*
X005085Y001461D02*
X005155Y001531D01*
X005155Y001566D01*
X005236Y001531D02*
X005271Y001566D01*
X005341Y001566D01*
X005376Y001531D01*
X005376Y001496D01*
X005236Y001356D01*
X005376Y001356D01*
X005627Y001506D02*
X005662Y001471D01*
X005732Y001471D01*
X005767Y001506D01*
X005848Y001471D02*
X005988Y001471D01*
X005918Y001471D02*
X005918Y001681D01*
X005848Y001611D01*
X005767Y001646D02*
X005732Y001681D01*
X005662Y001681D01*
X005627Y001646D01*
X005627Y001506D01*
X006069Y001506D02*
X006104Y001471D01*
X006174Y001471D01*
X006209Y001506D01*
X006209Y001576D01*
X006174Y001611D01*
X006139Y001611D01*
X006069Y001576D01*
X006069Y001681D01*
X006209Y001681D01*
X006777Y001821D02*
X006777Y002031D01*
X006882Y002031D01*
X006917Y001996D01*
X006917Y001926D01*
X006882Y001891D01*
X006777Y001891D01*
X006847Y001891D02*
X006917Y001821D01*
X006998Y001926D02*
X007138Y001926D01*
X007103Y002031D02*
X006998Y001926D01*
X007103Y001821D02*
X007103Y002031D01*
X013827Y006181D02*
X013862Y006146D01*
X013932Y006146D01*
X013967Y006181D01*
X014048Y006181D02*
X014048Y006146D01*
X014048Y006181D02*
X014188Y006321D01*
X014188Y006356D01*
X014048Y006356D01*
X013967Y006321D02*
X013932Y006356D01*
X013862Y006356D01*
X013827Y006321D01*
X013827Y006181D01*
X015662Y002231D02*
X015627Y002196D01*
X015627Y002056D01*
X015662Y002021D01*
X015732Y002021D01*
X015767Y002056D01*
X015848Y002021D02*
X015988Y002161D01*
X015988Y002196D01*
X015953Y002231D01*
X015883Y002231D01*
X015848Y002196D01*
X015767Y002196D02*
X015732Y002231D01*
X015662Y002231D01*
X015848Y002021D02*
X015988Y002021D01*
X016069Y002056D02*
X016104Y002021D01*
X016174Y002021D01*
X016209Y002056D01*
X016209Y002126D01*
X016174Y002161D01*
X016139Y002161D01*
X016069Y002126D01*
X016069Y002231D01*
X016209Y002231D01*
X018985Y005081D02*
X018985Y005186D01*
X019055Y005256D01*
X019055Y005291D01*
X019136Y005221D02*
X019206Y005291D01*
X019206Y005081D01*
X019136Y005081D02*
X019276Y005081D01*
X018985Y005186D02*
X018915Y005256D01*
X018915Y005291D01*
D13*
X018787Y005592D02*
X018787Y005768D01*
X018304Y006310D02*
X018286Y006310D01*
X017803Y005768D02*
X017803Y005592D01*
X018286Y005050D02*
X018304Y005050D01*
X016695Y007880D02*
X016695Y008080D01*
X010745Y012491D02*
X010745Y013475D01*
X004745Y013475D01*
X004745Y012491D01*
X010745Y012491D01*
X004833Y002722D02*
X004657Y002722D01*
X004115Y002239D02*
X004115Y002221D01*
X004657Y001738D02*
X004833Y001738D01*
X005375Y002221D02*
X005375Y002239D01*
X007617Y001295D02*
X007617Y000665D01*
X009073Y000665D01*
X009073Y001295D01*
X007617Y001295D01*
D14*
X017303Y010780D03*
D15*
X012763Y012544D02*
X012527Y012544D01*
X012527Y013016D02*
X012763Y013016D01*
X001531Y007998D02*
X001531Y007762D01*
X001059Y007762D02*
X001059Y007998D01*
D16*
X015312Y012685D03*
D17*
X008286Y000980D03*
D18*
X008404Y000980D03*
M02*
